{
.appVersion = "1349";
classes = (
{
automatic = 1;
code = "A Aacute Acircumflex Adieresis Agrave Aring Atilde AE B C Ccedilla D Eth E Eacute Ecircumflex Edieresis Egrave F G H I Iacute Icircumflex Idieresis Igrave J K L M N Ntilde O Oacute Ocircumflex Odieresis Ograve Oslash Otilde OE P Thorn Q R S Germandbls T U Uacute Ucircumflex Udieresis Ugrave V W Wacute Wcircumflex Wdieresis Wgrave X Y Yacute Ycircumflex Ydieresis Ygrave Z A.full B.full C.full D.full E.full F.full G.full H.full I.full J.full K.full L.full M.full N.full O.full P.full Q.full R.full S.full T.full U.full V.full W.full X.full Y.full Z.full A-cy Be-cy Ve-cy Ge-cy De-cy Ie-cy Io-cy Zhe-cy Ze-cy Ii-cy Iishort-cy Ka-cy El-cy Em-cy En-cy O-cy Pe-cy Er-cy Es-cy Te-cy U-cy Ef-cy Ha-cy Che-cy Tse-cy Sha-cy Shcha-cy Softsign-cy Hardsign-cy Yeru-cy Ereversed-cy Iu-cy Ia-cy";
name = Uppercase;
}
);
copyright = "Copyright 2021 The Zen Kaku Gothic Project Authors (https://github.com/googlefonts/zen-kakugothic)";
customParameters = (
{
name = license;
value = "This Font Software is licensed under the SIL Open Font License, Version 1.1. This license is available with a FAQ at: https://scripts.sil.org/OFL";
},
{
name = licenseURL;
value = "https://scripts.sil.org/OFL";
},
{
name = fsType;
value = (
);
},
{
name = vendorID;
value = "ZEN!";
}
);
date = "2021-05-14 05:11:45 +0000";
designer = "Yoshimichi Ohira";
designerURL = "https://www.zenfont.jp";
disablesAutomaticAlignment = 1;
familyName = "Zen Kaku Gothic A";
featurePrefixes = (
{
automatic = 1;
code = "languagesystem DFLT dflt;\012";
name = Languagesystems;
},
{

glyphs = (
{
glyphname = "a-hira";
lastChange = "2021-05-14 05:13:03 +0000";
layers = (
{
layerId = master01;
paths = (
{
closed = 1;
nodes = (
"787 -24 OFFCURVE",
"906 87 OFFCURVE",
"906 223 CURVE SMOOTH",
"906 346 OFFCURVE",
"826 440 OFFCURVE",
"690 477 CURVE",
"697 498 OFFCURVE",
"704 520 OFFCURVE",
"709 542 CURVE",
"699 543 OFFCURVE",
"655 551 OFFCURVE",
"645 553 CURVE",
"640 531 OFFCURVE",
"634 510 OFFCURVE",
"627 489 CURVE",
"605 491 OFFCURVE",
"582 493 OFFCURVE",
"558 493 CURVE SMOOTH",
"512 493 OFFCURVE",
"469 488 OFFCURVE",
"428 478 CURVE",
"426 528 OFFCURVE",
"427 578 OFFCURVE",
"429 626 CURVE",
"536 633 OFFCURVE",
"643 642 OFFCURVE",
"726 652 CURVE",
"725 661 OFFCURVE",
"724 706 OFFCURVE",
"724 715 CURVE",
"647 703 OFFCURVE",
"540 692 OFFCURVE",
"432 685 CURVE",
"435 736 OFFCURVE",
"440 783 OFFCURVE",
"446 825 CURVE",
"435 825 OFFCURVE",
"392 827 OFFCURVE",
"382 828 CURVE",
"377 785 OFFCURVE",
"373 735 OFFCURVE",
"370 682 CURVE",
"280 677 OFFCURVE",
"193 676 OFFCURVE",
"125 679 CURVE",
"127 671 OFFCURVE",
"131 624 OFFCURVE",
"131 615 CURVE",
"198 615 OFFCURVE",
"282 618 OFFCURVE",
"368 622 CURVE",
"366 570 OFFCURVE",
"366 515 OFFCURVE",
"368 460 CURVE",
"182 393 OFFCURVE",
"68 234 OFFCURVE",
"90 104 CURVE",
"101 33 OFFCURVE",
"160 3 OFFCURVE",
"234 13 CURVE SMOOTH",
"293 22 OFFCURVE",
"355 47 OFFCURVE",
"415 90 CURVE",
"422 63 OFFCURVE",
"430 37 OFFCURVE",
"439 13 CURVE",
"446 19 OFFCURVE",
"490 36 OFFCURVE",
"500 40 CURVE",
"488 68 OFFCURVE",
"478 99 OFFCURVE",
"470 133 CURVE",
"550 203 OFFCURVE",
"622 302 OFFCURVE",
"671 424 CURVE",
"781 394 OFFCURVE",
"842 319 OFFCURVE",
"842 223 CURVE SMOOTH",
"842 112 OFFCURVE",
"731 20 OFFCURVE",
"563 -14 CURVE",
"571 -21 OFFCURVE",
"590 -61 OFFCURVE",
"595 -70 CURVE"
);
},
{
closed = 1;
nodes = (
"191 64 OFFCURVE",
"156 83 OFFCURVE",
"151 128 CURVE SMOOTH",
"141 220 OFFCURVE",
"227 341 OFFCURVE",
"371 401 CURVE",
"376 316 OFFCURVE",
"385 232 OFFCURVE",
"401 154 CURVE",
"346 112 OFFCURVE",
"292 86 OFFCURVE",
"245 76 CURVE SMOOTH"
);
},
{
closed = 1;
nodes = (
"442 271 OFFCURVE",
"434 345 OFFCURVE",
"430 421 CURVE",
"470 431 OFFCURVE",
"512 438 OFFCURVE",
"558 438 CURVE SMOOTH",
"575 438 OFFCURVE",
"592 437 OFFCURVE",
"607 435 CURVE",
"568 338 OFFCURVE",
"514 260 OFFCURVE",
"455 202 CURVE"
);
}
);
width = 1000;
},
{
layerId = "E768F6A6-15EB-4D2C-841C-D9E78CD24AB1";
paths = (
{
closed = 1;
nodes = (
"895 86 OFFCURVE",
"780 -18 OFFCURVE",
"588 -64 CURVE",
"574 -26 LINE",
"748 5 OFFCURVE",
"860 104 OFFCURVE",
"860 220 CURVE SMOOTH",
"860 328 OFFCURVE",
"789 411 OFFCURVE",
"662 440 CURVE",
"611 314 OFFCURVE",
"537 209 OFFCURVE",
"455 136 CURVE",
"462 100 OFFCURVE",
"472 67 OFFCURVE",
"482 36 CURVE",
"446 23 LINE",
"437 50 OFFCURVE",
"429 79 OFFCURVE",
"423 110 CURVE",
"364 64 OFFCURVE",
"302 34 OFFCURVE",
"243 23 CURVE SMOOTH",
"164 8 OFFCURVE",
"108 40 OFFCURVE",
"99 111 CURVE SMOOTH",
"82 236 OFFCURVE",
"196 393 OFFCURVE",
"382 457 CURVE",
"380 517 OFFCURVE",
"380 577 OFFCURVE",
"381 633 CURVE",
"290 628 OFFCURVE",
"201 625 OFFCURVE",
"129 625 CURVE",
"126 664 LINE",
"195 661 OFFCURVE",
"288 664 OFFCURVE",
"382 669 CURVE",
"385 726 OFFCURVE",
"389 780 OFFCURVE",
"394 826 CURVE",
"432 823 LINE",
"426 778 OFFCURVE",
"421 726 OFFCURVE",
"418 671 CURVE",
"533 677 OFFCURVE",
"647 688 OFFCURVE",
"725 700 CURVE",
"727 662 LINE",
"640 652 OFFCURVE",
"528 642 OFFCURVE",
"417 635 CURVE",
"415 581 OFFCURVE",
"415 524 OFFCURVE",
"417 467 CURVE",
"460 478 OFFCURVE",
"506 485 OFFCURVE",
"556 485 CURVE SMOOTH",
"584 485 OFFCURVE",
"611 483 OFFCURVE",
"636 479 CURVE",
"644 502 OFFCURVE",
"651 526 OFFCURVE",
"657 551 CURVE",
"696 542 LINE",
"689 518 OFFCURVE",
"682 494 OFFCURVE",
"674 472 CURVE",
"814 438 OFFCURVE",
"895 343 OFFCURVE",
"895 220 CURVE SMOOTH"
);
},
{
closed = 1;
nodes = (
"603 450 OFFCURVE",
"580 451 OFFCURVE",
"556 451 CURVE SMOOTH",
"507 451 OFFCURVE",
"461 444 OFFCURVE",
"418 432 CURVE",
"422 345 OFFCURVE",
"431 257 OFFCURVE",
"446 177 CURVE",
"515 242 OFFCURVE",
"579 332 OFFCURVE",
"624 447 CURVE"
);
},
{
closed = 1;
nodes = (
"398 234 OFFCURVE",
"389 328 OFFCURVE",
"384 421 CURVE",
"221 362 OFFCURVE",
"119 226 OFFCURVE",
"134 116 CURVE SMOOTH",
"140 70 OFFCURVE",
"178 46 OFFCURVE",
"236 57 CURVE SMOOTH",
"289 67 OFFCURVE",
"352 98 OFFCURVE",
"414 149 CURVE"
);
}
);
width = 1000;
},
{
layerId = "E5DBD9E3-8A55-410D-8C4B-D00EFB9ED751";
paths = (
{
closed = 1;
nodes = (
"794 -30 OFFCURVE",
"916 87 OFFCURVE",
"916 226 CURVE SMOOTH",
"916 349 OFFCURVE",
"839 443 OFFCURVE",
"706 482 CURVE",
"712 501 OFFCURVE",
"718 521 OFFCURVE",
"722 542 CURVE",
"703 544 OFFCURVE",
"653 552 OFFCURVE",
"633 556 CURVE",
"628 536 OFFCURVE",
"623 517 OFFCURVE",
"618 498 CURVE",
"599 500 OFFCURVE",
"580 501 OFFCURVE",
"560 501 CURVE SMOOTH",
"518 501 OFFCURVE",
"477 497 OFFCURVE",
"439 488 CURVE",
"438 532 OFFCURVE",
"439 575 OFFCURVE",
"440 617 CURVE",
"543 624 OFFCURVE",
"646 633 OFFCURVE",
"725 642 CURVE",
"724 661 OFFCURVE",
"722 713 OFFCURVE",
"723 729 CURVE",
"647 717 OFFCURVE",
"547 707 OFFCURVE",
"445 700 CURVE",
"449 746 OFFCURVE",
"454 789 OFFCURVE",
"460 828 CURVE",
"437 827 OFFCURVE",
"390 828 OFFCURVE",
"370 831 CURVE",
"365 789 OFFCURVE",
"361 744 OFFCURVE",
"358 695 CURVE",
"273 691 OFFCURVE",
"191 690 OFFCURVE",
"125 694 CURVE",
"128 677 OFFCURVE",
"132 623 OFFCURVE",
"133 605 CURVE",
"196 605 OFFCURVE",
"273 607 OFFCURVE",
"354 612 CURVE",
"353 564 OFFCURVE",
"353 514 OFFCURVE",
"354 464 CURVE",
"168 392 OFFCURVE",
"55 232 OFFCURVE",
"81 97 CURVE SMOOTH",
"94 27 OFFCURVE",
"156 -3 OFFCURVE",
"226 4 CURVE SMOOTH",
"284 10 OFFCURVE",
"347 32 OFFCURVE",
"409 70 CURVE",
"416 47 OFFCURVE",
"423 24 OFFCURVE",
"432 3 CURVE",
"447 14 OFFCURVE",
"497 37 OFFCURVE",
"517 44 CURVE",
"505 70 OFFCURVE",
"495 98 OFFCURVE",
"486 128 CURVE",
"563 196 OFFCURVE",
"632 290 OFFCURVE",
"680 407 CURVE",
"773 377 OFFCURVE",
"823 310 OFFCURVE",
"823 225 CURVE SMOOTH",
"823 120 OFFCURVE",
"715 36 OFFCURVE",
"552 -1 CURVE",
"569 -15 OFFCURVE",
"592 -59 OFFCURVE",
"602 -77 CURVE"
);
},
{
closed = 1;
nodes = (
"203 82 OFFCURVE",
"171 96 OFFCURVE",
"168 140 CURVE SMOOTH",
"162 214 OFFCURVE",
"234 320 OFFCURVE",
"358 379 CURVE",
"363 303 OFFCURVE",
"372 229 OFFCURVE",
"386 160 CURVE",
"340 126 OFFCURVE",
"294 104 OFFCURVE",
"254 94 CURVE SMOOTH"
);
},
{
closed = 1;
nodes = (
"452 284 OFFCURVE",
"446 346 OFFCURVE",
"442 409 CURVE",
"478 419 OFFCURVE",
"518 424 OFFCURVE",
"560 424 CURVE SMOOTH",
"570 424 OFFCURVE",
"581 424 OFFCURVE",
"591 423 CURVE",
"557 343 OFFCURVE",
"512 278 OFFCURVE",
"463 227 CURVE"
);
}
);
width = 1000;
},
{
layerId = "001C0F45-7B19-4771-B55F-26ADC6604229";
paths = (
{
closed = 1;
nodes = (
"802 -35 OFFCURVE",
"927 88 OFFCURVE",
"927 228 CURVE SMOOTH",
"927 352 OFFCURVE",
"851 445 OFFCURVE",
"722 486 CURVE",
"727 504 OFFCURVE",
"731 523 OFFCURVE",
"735 542 CURVE",
"706 545 OFFCURVE",
"651 552 OFFCURVE",
"621 559 CURVE",
"617 541 OFFCURVE",
"613 524 OFFCURVE",
"609 507 CURVE",
"593 509 OFFCURVE",
"578 509 OFFCURVE",
"562 509 CURVE SMOOTH",
"523 509 OFFCURVE",
"486 506 OFFCURVE",
"450 499 CURVE",
"450 536 OFFCURVE",
"450 572 OFFCURVE",
"452 608 CURVE",
"551 615 OFFCURVE",
"648 624 OFFCURVE",
"724 632 CURVE",
"723 661 OFFCURVE",
"720 719 OFFCURVE",
"722 744 CURVE",
"647 732 OFFCURVE",
"554 722 OFFCURVE",
"459 715 CURVE",
"463 756 OFFCURVE",
"468 794 OFFCURVE",
"474 830 CURVE",
"440 829 OFFCURVE",
"388 830 OFFCURVE",
"358 834 CURVE",
"353 795 OFFCURVE",
"349 753 OFFCURVE",
"346 708 CURVE",
"265 705 OFFCURVE",
"188 705 OFFCURVE",
"124 708 CURVE",
"128 684 OFFCURVE",
"134 621 OFFCURVE",
"135 594 CURVE",
"194 595 OFFCURVE",
"265 597 OFFCURVE",
"340 601 CURVE",
"339 557 OFFCURVE",
"339 512 OFFCURVE",
"340 467 CURVE",
"154 392 OFFCURVE",
"41 230 OFFCURVE",
"72 89 CURVE SMOOTH",
"87 20 OFFCURVE",
"152 -9 OFFCURVE",
"218 -5 CURVE",
"275 -3 OFFCURVE",
"339 17 OFFCURVE",
"402 52 CURVE",
"409 32 OFFCURVE",
"417 12 OFFCURVE",
"425 -7 CURVE",
"447 9 OFFCURVE",
"505 37 OFFCURVE",
"534 48 CURVE",
"522 71 OFFCURVE",
"512 97 OFFCURVE",
"502 124 CURVE",
"576 189 OFFCURVE",
"643 278 OFFCURVE",
"689 389 CURVE",
"765 360 OFFCURVE",
"804 301 OFFCURVE",
"804 228 CURVE SMOOTH",
"804 127 OFFCURVE",
"699 51 OFFCURVE",
"541 11 CURVE",
"567 -10 OFFCURVE",
"594 -57 OFFCURVE",
"610 -84 CURVE"
);
},
{
closed = 1;
nodes = (
"216 100 OFFCURVE",
"187 108 OFFCURVE",
"185 153 CURVE SMOOTH",
"182 210 OFFCURVE",
"242 299 OFFCURVE",
"346 356 CURVE",
"351 290 OFFCURVE",
"359 226 OFFCURVE",
"372 165 CURVE",
"334 140 OFFCURVE",
"297 123 OFFCURVE",
"263 113 CURVE SMOOTH"
);
},
{
closed = 1;
nodes = (
"463 298 OFFCURVE",
"457 347 OFFCURVE",
"454 398 CURVE",
"487 406 OFFCURVE",
"523 410 OFFCURVE",
"562 410 CURVE SMOOTH",
"566 410 OFFCURVE",
"570 410 OFFCURVE",
"574 410 CURVE",
"546 347 OFFCURVE",
"510 295 OFFCURVE",
"471 251 CURVE"
);
}
);
width = 1000;
},
{
layerId = "192F6294-2DDB-4A85-B973-E64E677F808A";
paths = (
{
closed = 1;
nodes = (
"809 -41 OFFCURVE",
"937 88 OFFCURVE",
"937 231 CURVE SMOOTH",
"937 355 OFFCURVE",
"863 448 OFFCURVE",
"737 491 CURVE",
"741 508 OFFCURVE",
"745 525 OFFCURVE",
"748 542 CURVE",
"709 546 OFFCURVE",
"649 553 OFFCURVE",
"609 562 CURVE",
"606 546 OFFCURVE",
"603 531 OFFCURVE",
"599 516 CURVE",
"587 517 OFFCURVE",
"576 517 OFFCURVE",
"564 517 CURVE SMOOTH",
"528 517 OFFCURVE",
"494 514 OFFCURVE",
"461 509 CURVE",
"461 539 OFFCURVE",
"462 570 OFFCURVE",
"463 600 CURVE",
"558 606 OFFCURVE",
"651 615 OFFCURVE",
"723 622 CURVE",
"721 660 OFFCURVE",
"718 725 OFFCURVE",
"721 758 CURVE",
"648 747 OFFCURVE",
"562 737 OFFCURVE",
"473 730 CURVE",
"477 766 OFFCURVE",
"482 800 OFFCURVE",
"487 833 CURVE",
"442 831 OFFCURVE",
"385 831 OFFCURVE",
"346 836 CURVE",
"341 800 OFFCURVE",
"337 762 OFFCURVE",
"334 722 CURVE",
"258 719 OFFCURVE",
"186 719 OFFCURVE",
"123 723 CURVE",
"129 690 OFFCURVE",
"136 620 OFFCURVE",
"137 584 CURVE",
"191 584 OFFCURVE",
"257 587 OFFCURVE",
"327 591 CURVE",
"326 551 OFFCURVE",
"325 511 OFFCURVE",
"326 470 CURVE",
"140 391 OFFCURVE",
"27 228 OFFCURVE",
"63 82 CURVE SMOOTH",
"80 14 OFFCURVE",
"148 -15 OFFCURVE",
"209 -15 CURVE SMOOTH",
"267 -15 OFFCURVE",
"331 2 OFFCURVE",
"396 35 CURVE",
"403 17 OFFCURVE",
"410 0 OFFCURVE",
"418 -17 CURVE",
"448 5 OFFCURVE",
"512 38 OFFCURVE",
"552 52 CURVE",
"539 73 OFFCURVE",
"529 95 OFFCURVE",
"519 120 CURVE",
"589 182 OFFCURVE",
"652 266 OFFCURVE",
"697 370 CURVE",
"756 342 OFFCURVE",
"786 292 OFFCURVE",
"786 231 CURVE SMOOTH",
"786 135 OFFCURVE",
"683 67 OFFCURVE",
"530 24 CURVE",
"564 -4 OFFCURVE",
"596 -55 OFFCURVE",
"617 -91 CURVE"
);
},
{
closed = 1;
nodes = (
"228 118 OFFCURVE",
"202 121 OFFCURVE",
"202 165 CURVE SMOOTH",
"202 207 OFFCURVE",
"249 279 OFFCURVE",
"333 331 CURVE",
"338 276 OFFCURVE",
"346 222 OFFCURVE",
"356 171 CURVE",
"327 153 OFFCURVE",
"298 140 OFFCURVE",
"272 132 CURVE SMOOTH"
);
},
{
closed = 1;
nodes = (
"473 312 OFFCURVE",
"469 349 OFFCURVE",
"466 386 CURVE",
"494 392 OFFCURVE",
"524 396 OFFCURVE",
"556 397 CURVE",
"534 351 OFFCURVE",
"508 311 OFFCURVE",
"479 277 CURVE"
);
}
);
width = 1000;
}
);
unicode = 3042;
},
{
glyphname = "asmall-hira";
lastChange = "2021-05-14 05:19:36 +0000";
layers = (
{
background = {
paths = (
{
closed = 1;
nodes = (
"720 -48 OFFCURVE",
"807 34 OFFCURVE",
"807 139 CURVE SMOOTH",
"807 234 OFFCURVE",
"747 306 OFFCURVE",
"646 334 CURVE",
"650 348 OFFCURVE",
"655 362 OFFCURVE",
"658 377 CURVE",
"651 378 OFFCURVE",
"613 386 OFFCURVE",
"605 388 CURVE",
"602 373 OFFCURVE",
"598 358 OFFCURVE",
"593 344 CURVE",
"577 346 OFFCURVE",
"561 347 OFFCURVE",
"543 347 CURVE SMOOTH",
"510 347 OFFCURVE",
"479 344 OFFCURVE",
"449 337 CURVE",
"449 371 OFFCURVE",
"449 406 OFFCURVE",
"450 439 CURVE",
"529 444 OFFCURVE",
"607 451 OFFCURVE",
"668 458 CURVE",
"668 465 OFFCURVE",
"666 506 OFFCURVE",
"667 512 CURVE",
"610 503 OFFCURVE",
"532 495 OFFCURVE",
"453 490 CURVE",
"456 527 OFFCURVE",
"459 561 OFFCURVE",
"464 591 CURVE",
"455 591 OFFCURVE",
"416 592 OFFCURVE",
"408 593 CURVE",
"405 561 OFFCURVE",
"402 526 OFFCURVE",
"400 487 CURVE",
"334 484 OFFCURVE",
"270 483 OFFCURVE",
"220 485 CURVE",
"221 479 OFFCURVE",
"224 437 OFFCURVE",
"224 430 CURVE",
"274 430 OFFCURVE",
"335 432 OFFCURVE",
"398 436 CURVE",
"397 399 OFFCURVE",
"396 360 OFFCURVE",
"398 322 CURVE",
"260 271 OFFCURVE",
"172 153 OFFCURVE",
"190 47 CURVE",
"199 -13 OFFCURVE",
"243 -31 OFFCURVE",
"300 -23 CURVE SMOOTH",
"343 -17 OFFCURVE",
"390 3 OFFCURVE",
"434 35 CURVE",
"439 17 OFFCURVE",
"444 -1 OFFCURVE",
"450 -17 CURVE",
"456 -13 OFFCURVE",
"493 0 OFFCURVE",
"503 4 CURVE",
"494 25 OFFCURVE",
"487 48 OFFCURVE",
"481 72 CURVE",
"540 126 OFFCURVE",
"593 201 OFFCURVE",
"629 288 CURVE",
"710 266 OFFCURVE",
"751 212 OFFCURVE",
"751 139 CURVE SMOOTH",
"751 56 OFFCURVE",
"673 -9 OFFCURVE",
"547 -34 CURVE",
"554 -41 OFFCURVE",
"572 -74 OFFCURVE",
"576 -83 CURVE"
);
},
{
closed = 1;
nodes = (
"268 21 OFFCURVE",
"245 36 OFFCURVE",
"241 67 CURVE",
"234 136 OFFCURVE",
"295 225 OFFCURVE",
"400 270 CURVE",
"404 207 OFFCURVE",
"410 145 OFFCURVE",
"422 88 CURVE",
"383 57 OFFCURVE",
"343 37 OFFCURVE",
"309 30 CURVE SMOOTH"
);
},
{
closed = 1;
nodes = (
"459 180 OFFCURVE",
"454 233 OFFCURVE",
"451 287 CURVE",
"480 294 OFFCURVE",
"510 299 OFFCURVE",
"543 299 CURVE SMOOTH",
"555 299 OFFCURVE",
"566 298 OFFCURVE",
"576 297 CURVE",
"548 230 OFFCURVE",
"510 174 OFFCURVE",
"468 130 CURVE"
);
}
);
};
layerId = master01;
paths = (
{
closed = 1;
nodes = (
"720 -48 OFFCURVE",
"807 34 OFFCURVE",
"807 139 CURVE SMOOTH",
"807 234 OFFCURVE",
"747 306 OFFCURVE",
"646 334 CURVE",
"650 348 OFFCURVE",
"655 362 OFFCURVE",
"658 377 CURVE",
"651 378 OFFCURVE",
"613 386 OFFCURVE",
"605 388 CURVE",
"602 373 OFFCURVE",
"598 358 OFFCURVE",
"593 344 CURVE",
"577 346 OFFCURVE",
"561 347 OFFCURVE",
"543 347 CURVE SMOOTH",
"510 347 OFFCURVE",
"479 344 OFFCURVE",
"449 337 CURVE",
"449 371 OFFCURVE",
"449 406 OFFCURVE",
"450 439 CURVE",
"529 444 OFFCURVE",
"607 451 OFFCURVE",
"668 458 CURVE",
"668 465 OFFCURVE",
"666 506 OFFCURVE",
"667 512 CURVE",
"610 503 OFFCURVE",
"532 495 OFFCURVE",
"453 490 CURVE",
"456 527 OFFCURVE",
"459 561 OFFCURVE",
"464 591 CURVE",
"455 591 OFFCURVE",
"416 592 OFFCURVE",
"408 593 CURVE",
"405 561 OFFCURVE",
"402 526 OFFCURVE",
"400 487 CURVE",
"334 484 OFFCURVE",
"270 483 OFFCURVE",
"220 485 CURVE",
"221 479 OFFCURVE",
"224 437 OFFCURVE",
"224 430 CURVE",
"274 430 OFFCURVE",
"335 432 OFFCURVE",
"398 436 CURVE",
"397 399 OFFCURVE",
"396 360 OFFCURVE",
"398 322 CURVE",
"260 271 OFFCURVE",
"172 153 OFFCURVE",
"190 47 CURVE",
"199 -13 OFFCURVE",
"243 -31 OFFCURVE",
"300 -23 CURVE SMOOTH",
"343 -17 OFFCURVE",
"390 3 OFFCURVE",
"434 35 CURVE",
"439 17 OFFCURVE",
"444 -1 OFFCURVE",
"450 -17 CURVE",
"456 -13 OFFCURVE",
"493 0 OFFCURVE",
"503 4 CURVE",
"494 25 OFFCURVE",
"487 48 OFFCURVE",
"481 72 CURVE",
"540 126 OFFCURVE",
"593 201 OFFCURVE",
"629 288 CURVE",
"710 266 OFFCURVE",
"751 212 OFFCURVE",
"751 139 CURVE SMOOTH",
"751 56 OFFCURVE",
"673 -9 OFFCURVE",
"547 -34 CURVE",
"554 -41 OFFCURVE",
"572 -74 OFFCURVE",
"576 -83 CURVE"
);
},
{
closed = 1;
nodes = (
"268 21 OFFCURVE",
"245 36 OFFCURVE",
"241 67 CURVE",
"234 136 OFFCURVE",
"295 225 OFFCURVE",
"400 270 CURVE",
"404 207 OFFCURVE",
"410 145 OFFCURVE",
"422 88 CURVE",
"383 57 OFFCURVE",
"343 37 OFFCURVE",
"309 30 CURVE SMOOTH"
);
},
{
closed = 1;
nodes = (
"459 180 OFFCURVE",
"454 233 OFFCURVE",
"451 287 CURVE",
"480 294 OFFCURVE",
"510 299 OFFCURVE",
"543 299 CURVE SMOOTH",
"555 299 OFFCURVE",
"566 298 OFFCURVE",
"576 297 CURVE",
"548 230 OFFCURVE",
"510 174 OFFCURVE",
"468 130 CURVE"
);
}
);
width = 1000;
},
{
layerId = "E768F6A6-15EB-4D2C-841C-D9E78CD24AB1";
paths = (
{
closed = 1;
nodes = (
"799 33 OFFCURVE",
"715 -40 OFFCURVE",
"571 -74 CURVE",
"555 -43 LINE",
"686 -20 OFFCURVE",
"766 50 OFFCURVE",
"766 138 CURVE SMOOTH",
"766 220 OFFCURVE",
"716 280 OFFCURVE",
"621 301 CURVE",
"584 211 OFFCURVE",
"530 133 OFFCURVE",
"469 76 CURVE",
"475 48 OFFCURVE",
"482 23 OFFCURVE",
"490 0 CURVE",
"458 -10 LINE",
"451 9 OFFCURVE",
"446 30 OFFCURVE",
"441 51 CURVE",
"397 16 OFFCURVE",
"351 -8 OFFCURVE",
"306 -16 CURVE SMOOTH",
"246 -28 OFFCURVE",
"205 -11 OFFCURVE",
"197 52 CURVE SMOOTH",
"183 155 OFFCURVE",
"274 270 OFFCURVE",
"410 318 CURVE",
"408 362 OFFCURVE",
"408 405 OFFCURVE",
"409 445 CURVE",
"342 442 OFFCURVE",
"277 439 OFFCURVE",
"223 440 CURVE",
"221 474 LINE",
"273 472 OFFCURVE",
"340 473 OFFCURVE",
"410 477 CURVE",
"412 519 OFFCURVE",
"415 558 OFFCURVE",
"419 592 CURVE",
"452 590 LINE",
"448 557 OFFCURVE",
"444 519 OFFCURVE",
"442 479 CURVE",
"526 484 OFFCURVE",
"609 492 OFFCURVE",
"667 501 CURVE",
"668 467 LINE",
"604 460 OFFCURVE",
"522 452 OFFCURVE",
"441 447 CURVE",
"440 409 OFFCURVE",
"439 368 OFFCURVE",
"441 327 CURVE",
"473 336 OFFCURVE",
"507 340 OFFCURVE",
"542 340 CURVE SMOOTH",
"562 340 OFFCURVE",
"582 339 OFFCURVE",
"600 336 CURVE",
"605 352 OFFCURVE",
"610 369 OFFCURVE",
"614 385 CURVE",
"647 377 LINE",
"642 361 OFFCURVE",
"637 346 OFFCURVE",
"632 330 CURVE",
"737 305 OFFCURVE",
"799 234 OFFCURVE",
"799 138 CURVE SMOOTH"
);
},
{
closed = 1;
nodes = (
"574 308 OFFCURVE",
"558 309 OFFCURVE",
"542 309 CURVE SMOOTH",
"506 309 OFFCURVE",
"473 304 OFFCURVE",
"442 296 CURVE",
"445 233 OFFCURVE",
"451 170 OFFCURVE",
"462 112 CURVE",
"511 161 OFFCURVE",
"557 227 OFFCURVE",
"589 306 CURVE"
);
},
{
closed = 1;
nodes = (
"422 149 OFFCURVE",
"415 217 OFFCURVE",
"411 286 CURVE",
"291 241 OFFCURVE",
"217 138 OFFCURVE",
"228 55 CURVE SMOOTH",
"232 21 OFFCURVE",
"258 6 OFFCURVE",
"301 15 CURVE",
"341 22 OFFCURVE",
"388 47 OFFCURVE",
"434 86 CURVE"
);
}
);
width = 1000;
},
{
background = {
paths = (
{
closed = 1;
nodes = (
"725 -55 OFFCURVE",
"815 35 OFFCURVE",
"815 140 CURVE SMOOTH",
"815 234 OFFCURVE",
"757 306 OFFCURVE",
"660 337 CURVE",
"663 350 OFFCURVE",
"667 363 OFFCURVE",
"670 377 CURVE",
"655 378 OFFCURVE",
"611 387 OFFCURVE",
"596 390 CURVE",
"593 377 OFFCURVE",
"590 364 OFFCURVE",
"587 352 CURVE",
"573 353 OFFCURVE",
"559 354 OFFCURVE",
"545 354 CURVE SMOOTH",
"515 354 OFFCURVE",
"486 351 OFFCURVE",
"458 346 CURVE",
"458 374 OFFCURVE",
"458 403 OFFCURVE",
"459 430 CURVE",
"535 436 OFFCURVE",
"609 442 OFFCURVE",
"668 449 CURVE",
"667 463 OFFCURVE",
"665 511 OFFCURVE",
"667 523 CURVE",
"610 515 OFFCURVE",
"538 507 OFFCURVE",
"464 502 CURVE",
"467 534 OFFCURVE",
"471 565 OFFCURVE",
"475 592 CURVE",
"458 591 OFFCURVE",
"413 593 OFFCURVE",
"398 595 CURVE",
"395 565 OFFCURVE",
"392 532 OFFCURVE",
"389 497 CURVE",
"327 495 OFFCURVE",
"268 494 OFFCURVE",
"219 496 CURVE",
"221 484 OFFCURVE",
"225 434 OFFCURVE",
"226 421 CURVE",
"271 421 OFFCURVE",
"327 423 OFFCURVE",
"386 426 CURVE",
"385 393 OFFCURVE",
"385 359 OFFCURVE",
"385 325 CURVE",
"246 271 OFFCURVE",
"162 151 OFFCURVE",
"183 42 CURVE SMOOTH",
"194 -15 OFFCURVE",
"241 -36 OFFCURVE",
"294 -30 CURVE SMOOTH",
"336 -26 OFFCURVE",
"382 -9 OFFCURVE",
"428 19 CURVE",
"432 4 OFFCURVE",
"437 -11 OFFCURVE",
"443 -25 CURVE",
"454 -17 OFFCURVE",
"496 1 OFFCURVE",
"515 8 CURVE",
"506 27 OFFCURVE",
"499 47 OFFCURVE",
"493 68 CURVE",
"550 120 OFFCURVE",
"602 190 OFFCURVE",
"637 275 CURVE",
"703 252 OFFCURVE",
"737 203 OFFCURVE",
"737 140 CURVE SMOOTH",
"737 61 OFFCURVE",
"661 2 OFFCURVE",
"539 -26 CURVE",
"553 -39 OFFCURVE",
"572 -74 OFFCURVE",
"581 -91 CURVE"
);
},
{
closed = 1;
nodes = (
"279 36 OFFCURVE",
"258 51 OFFCURVE",
"255 80 CURVE",
"251 134 OFFCURVE",
"301 209 OFFCURVE",
"389 253 CURVE",
"392 197 OFFCURVE",
"399 142 OFFCURVE",
"409 91 CURVE",
"377 68 OFFCURVE",
"345 52 OFFCURVE",
"317 45 CURVE SMOOTH"
);
},
{
closed = 1;
nodes = (
"467 190 OFFCURVE",
"462 234 OFFCURVE",
"460 278 CURVE",
"486 285 OFFCURVE",
"515 288 OFFCURVE",
"545 288 CURVE SMOOTH",
"551 288 OFFCURVE",
"557 288 OFFCURVE",
"564 288 CURVE",
"540 232 OFFCURVE",
"508 186 OFFCURVE",
"474 148 CURVE"
);
}
);
};
layerId = "E5DBD9E3-8A55-410D-8C4B-D00EFB9ED751";
paths = (
{
closed = 1;
nodes = (
"725 -55 OFFCURVE",
"815 35 OFFCURVE",
"815 140 CURVE SMOOTH",
"815 234 OFFCURVE",
"757 306 OFFCURVE",
"660 337 CURVE",
"663 350 OFFCURVE",
"667 363 OFFCURVE",
"670 377 CURVE",
"655 378 OFFCURVE",
"611 387 OFFCURVE",
"596 390 CURVE",
"593 377 OFFCURVE",
"590 364 OFFCURVE",
"587 352 CURVE",
"573 353 OFFCURVE",
"559 354 OFFCURVE",
"545 354 CURVE SMOOTH",
"515 354 OFFCURVE",
"486 351 OFFCURVE",
"458 346 CURVE",
"458 374 OFFCURVE",
"458 403 OFFCURVE",
"459 430 CURVE",
"535 436 OFFCURVE",
"609 442 OFFCURVE",
"668 449 CURVE",
"667 463 OFFCURVE",
"665 511 OFFCURVE",
"667 523 CURVE",
"610 515 OFFCURVE",
"538 507 OFFCURVE",
"464 502 CURVE",
"467 534 OFFCURVE",
"471 565 OFFCURVE",
"475 592 CURVE",
"458 591 OFFCURVE",
"413 593 OFFCURVE",
"398 595 CURVE",
"395 565 OFFCURVE",
"392 532 OFFCURVE",
"389 497 CURVE",
"327 495 OFFCURVE",
"268 494 OFFCURVE",
"219 496 CURVE",
"221 484 OFFCURVE",
"225 434 OFFCURVE",
"226 421 CURVE",
"271 421 OFFCURVE",
"327 423 OFFCURVE",
"386 426 CURVE",
"385 393 OFFCURVE",
"385 359 OFFCURVE",
"385 325 CURVE",
"246 271 OFFCURVE",
"162 151 OFFCURVE",
"183 42 CURVE SMOOTH",
"194 -15 OFFCURVE",
"241 -36 OFFCURVE",
"294 -30 CURVE SMOOTH",
"336 -26 OFFCURVE",
"382 -9 OFFCURVE",
"428 19 CURVE",
"432 4 OFFCURVE",
"437 -11 OFFCURVE",
"443 -25 CURVE",
"454 -17 OFFCURVE",
"496 1 OFFCURVE",
"515 8 CURVE",
"506 27 OFFCURVE",
"499 47 OFFCURVE",
"493 68 CURVE",
"550 120 OFFCURVE",
"602 190 OFFCURVE",
"637 275 CURVE",
"703 252 OFFCURVE",
"737 203 OFFCURVE",
"737 140 CURVE SMOOTH",
"737 61 OFFCURVE",
"661 2 OFFCURVE",
"539 -26 CURVE",
"553 -39 OFFCURVE",
"572 -74 OFFCURVE",
"581 -91 CURVE"
);
},
{
closed = 1;
nodes = (
"279 36 OFFCURVE",
"258 51 OFFCURVE",
"255 80 CURVE",
"251 134 OFFCURVE",
"301 209 OFFCURVE",
"389 253 CURVE",
"392 197 OFFCURVE",
"399 142 OFFCURVE",
"409 91 CURVE",
"377 68 OFFCURVE",
"345 52 OFFCURVE",
"317 45 CURVE SMOOTH"
);
},
{
closed = 1;
nodes = (
"467 190 OFFCURVE",
"462 234 OFFCURVE",
"460 278 CURVE",
"486 285 OFFCURVE",
"515 288 OFFCURVE",
"545 288 CURVE SMOOTH",
"551 288 OFFCURVE",
"557 288 OFFCURVE",
"564 288 CURVE",
"540 232 OFFCURVE",
"508 186 OFFCURVE",
"474 148 CURVE"
);
}
);
width = 1000;
},
{
layerId = "001C0F45-7B19-4771-B55F-26ADC6604229";
paths = (
{
closed = 1;
nodes = (
"730 -63 OFFCURVE",
"823 35 OFFCURVE",
"823 142 CURVE SMOOTH",
"823 234 OFFCURVE",
"767 307 OFFCURVE",
"673 341 CURVE",
"676 352 OFFCURVE",
"679 364 OFFCURVE",
"681 377 CURVE",
"659 379 OFFCURVE",
"610 387 OFFCURVE",
"587 392 CURVE",
"585 381 OFFCURVE",
"582 370 OFFCURVE",
"580 360 CURVE",
"569 361 OFFCURVE",
"558 361 OFFCURVE",
"546 361 CURVE SMOOTH",
"519 361 OFFCURVE",
"492 359 OFFCURVE",
"467 355 CURVE",
"467 377 OFFCURVE",
"468 400 OFFCURVE",
"469 422 CURVE",
"541 427 OFFCURVE",
"612 433 OFFCURVE",
"667 439 CURVE",
"667 461 OFFCURVE",
"665 516 OFFCURVE",
"666 534 CURVE",
"612 526 OFFCURVE",
"545 518 OFFCURVE",
"476 513 CURVE",
"478 541 OFFCURVE",
"482 568 OFFCURVE",
"486 593 CURVE",
"461 592 OFFCURVE",
"410 593 OFFCURVE",
"388 596 CURVE",
"384 568 OFFCURVE",
"382 539 OFFCURVE",
"379 508 CURVE",
"321 505 OFFCURVE",
"265 505 OFFCURVE",
"218 508 CURVE",
"222 489 OFFCURVE",
"226 431 OFFCURVE",
"227 411 CURVE",
"269 411 OFFCURVE",
"320 413 OFFCURVE",
"374 416 CURVE",
"373 387 OFFCURVE",
"373 358 OFFCURVE",
"373 328 CURVE",
"232 271 OFFCURVE",
"151 149 OFFCURVE",
"176 37 CURVE SMOOTH",
"188 -18 OFFCURVE",
"239 -40 OFFCURVE",
"288 -37 CURVE SMOOTH",
"329 -35 OFFCURVE",
"376 -21 OFFCURVE",
"422 4 CURVE",
"426 -8 OFFCURVE",
"431 -20 OFFCURVE",
"436 -32 CURVE",
"452 -20 OFFCURVE",
"499 2 OFFCURVE",
"528 13 CURVE",
"519 28 OFFCURVE",
"512 45 OFFCURVE",
"506 64 CURVE",
"561 113 OFFCURVE",
"611 179 OFFCURVE",
"645 260 CURVE",
"697 237 OFFCURVE",
"722 195 OFFCURVE",
"722 142 CURVE SMOOTH",
"722 66 OFFCURVE",
"649 13 OFFCURVE",
"531 -17 CURVE",
"552 -37 OFFCURVE",
"573 -74 OFFCURVE",
"586 -100 CURVE"
);
},
{
closed = 1;
nodes = (
"289 50 OFFCURVE",
"270 66 OFFCURVE",
"269 92 CURVE SMOOTH",
"267 133 OFFCURVE",
"306 194 OFFCURVE",
"377 234 CURVE",
"381 186 OFFCURVE",
"387 139 OFFCURVE",
"397 94 CURVE",
"372 78 OFFCURVE",
"347 67 OFFCURVE",
"324 60 CURVE SMOOTH"
);
},
{
closed = 1;
nodes = (
"475 200 OFFCURVE",
"471 234 OFFCURVE",
"469 270 CURVE",
"493 275 OFFCURVE",
"519 278 OFFCURVE",
"546 278 CURVE",
"548 278 OFFCURVE",
"549 278 OFFCURVE",
"551 278 CURVE",
"531 235 OFFCURVE",
"507 197 OFFCURVE",
"480 167 CURVE"
);
}
);
width = 1000;
},
{
background = {
paths = (
{
closed = 1;
nodes = (
"735 -71 OFFCURVE",
"831 36 OFFCURVE",
"831 143 CURVE SMOOTH",
"831 234 OFFCURVE",
"777 307 OFFCURVE",
"686 344 CURVE",
"688 354 OFFCURVE",
"691 365 OFFCURVE",
"693 376 CURVE",
"664 379 OFFCURVE",
"608 388 OFFCURVE",
"578 395 CURVE",
"576 385 OFFCURVE",
"574 376 OFFCURVE",
"572 367 CURVE",
"564 368 OFFCURVE",
"556 368 OFFCURVE",
"548 368 CURVE SMOOTH",
"523 368 OFFCURVE",
"499 366 OFFCURVE",
"476 363 CURVE",
"476 380 OFFCURVE",
"477 397 OFFCURVE",
"478 413 CURVE",
"547 418 OFFCURVE",
"615 424 OFFCURVE",
"667 430 CURVE",
"666 459 OFFCURVE",
"664 521 OFFCURVE",
"666 545 CURVE",
"613 537 OFFCURVE",
"551 530 OFFCURVE",
"487 525 CURVE",
"490 549 OFFCURVE",
"494 573 OFFCURVE",
"497 594 CURVE",
"463 593 OFFCURVE",
"407 593 OFFCURVE",
"378 597 CURVE",
"374 572 OFFCURVE",
"372 545 OFFCURVE",
"369 518 CURVE",
"315 516 OFFCURVE",
"262 516 OFFCURVE",
"217 519 CURVE",
"222 494 OFFCURVE",
"227 428 OFFCURVE",
"228 401 CURVE",
"267 402 OFFCURVE",
"313 403 OFFCURVE",
"362 406 CURVE",
"361 382 OFFCURVE",
"361 357 OFFCURVE",
"361 332 CURVE",
"219 272 OFFCURVE",
"140 147 OFFCURVE",
"169 32 CURVE SMOOTH",
"182 -20 OFFCURVE",
"236 -44 OFFCURVE",
"282 -44 CURVE SMOOTH",
"323 -44 OFFCURVE",
"369 -33 OFFCURVE",
"416 -10 CURVE",
"420 -20 OFFCURVE",
"424 -30 OFFCURVE",
"429 -39 CURVE",
"451 -23 OFFCURVE",
"502 2 OFFCURVE",
"540 17 CURVE",
"532 30 OFFCURVE",
"525 44 OFFCURVE",
"519 59 CURVE",
"571 106 OFFCURVE",
"619 168 OFFCURVE",
"652 244 CURVE",
"690 222 OFFCURVE",
"708 186 OFFCURVE",
"708 143 CURVE SMOOTH",
"708 71 OFFCURVE",
"637 23 OFFCURVE",
"523 -9 CURVE",
"550 -34 OFFCURVE",
"574 -74 OFFCURVE",
"591 -108 CURVE"
);
},
{
closed = 1;
nodes = (
"300 65 OFFCURVE",
"283 81 OFFCURVE",
"283 104 CURVE SMOOTH",
"283 133 OFFCURVE",
"312 179 OFFCURVE",
"366 215 CURVE",
"370 175 OFFCURVE",
"375 136 OFFCURVE",
"383 98 CURVE",
"366 88 OFFCURVE",
"349 81 OFFCURVE",
"332 75 CURVE SMOOTH"
);
},
{
closed = 1;
nodes = (
"483 210 OFFCURVE",
"480 235 OFFCURVE",
"478 261 CURVE",
"497 264 OFFCURVE",
"517 267 OFFCURVE",
"538 267 CURVE",
"523 236 OFFCURVE",
"505 209 OFFCURVE",
"486 186 CURVE"
);
}
);
};
layerId = "192F6294-2DDB-4A85-B973-E64E677F808A";
paths = (
{
closed = 1;
nodes = (
"735 -71 OFFCURVE",
"831 36 OFFCURVE",
"831 143 CURVE SMOOTH",
"831 234 OFFCURVE",
"777 307 OFFCURVE",
"686 344 CURVE",
"688 354 OFFCURVE",
"691 365 OFFCURVE",
"693 376 CURVE",
"664 379 OFFCURVE",
"608 388 OFFCURVE",
"578 395 CURVE",
"576 385 OFFCURVE",
"574 376 OFFCURVE",
"572 367 CURVE",
"564 368 OFFCURVE",
"556 368 OFFCURVE",
"548 368 CURVE SMOOTH",
"523 368 OFFCURVE",
"499 366 OFFCURVE",
"476 363 CURVE",
"476 380 OFFCURVE",
"477 397 OFFCURVE",
"478 413 CURVE",
"547 418 OFFCURVE",
"615 424 OFFCURVE",
"667 430 CURVE",
"666 459 OFFCURVE",
"664 521 OFFCURVE",
"666 545 CURVE",
"613 537 OFFCURVE",
"551 530 OFFCURVE",
"487 525 CURVE",
"490 549 OFFCURVE",
"494 573 OFFCURVE",
"497 594 CURVE",
"463 593 OFFCURVE",
"407 593 OFFCURVE",
"378 597 CURVE",
"374 572 OFFCURVE",
"372 545 OFFCURVE",
"369 518 CURVE",
"315 516 OFFCURVE",
"262 516 OFFCURVE",
"217 519 CURVE",
"222 494 OFFCURVE",
"227 428 OFFCURVE",
"228 401 CURVE",
"267 402 OFFCURVE",
"313 403 OFFCURVE",
"362 406 CURVE",
"361 382 OFFCURVE",
"361 357 OFFCURVE",
"361 332 CURVE",
"219 272 OFFCURVE",
"140 147 OFFCURVE",
"169 32 CURVE SMOOTH",
"182 -20 OFFCURVE",
"236 -44 OFFCURVE",
"282 -44 CURVE SMOOTH",
"323 -44 OFFCURVE",
"369 -33 OFFCURVE",
"416 -10 CURVE",
"420 -20 OFFCURVE",
"424 -30 OFFCURVE",
"429 -39 CURVE",
"451 -23 OFFCURVE",
"502 2 OFFCURVE",
"540 17 CURVE",
"532 30 OFFCURVE",
"525 44 OFFCURVE",
"519 59 CURVE",
"571 106 OFFCURVE",
"619 168 OFFCURVE",
"652 244 CURVE",
"690 222 OFFCURVE",
"708 186 OFFCURVE",
"708 143 CURVE SMOOTH",
"708 71 OFFCURVE",
"637 23 OFFCURVE",
"523 -9 CURVE",
"550 -34 OFFCURVE",
"574 -74 OFFCURVE",
"591 -108 CURVE"
);
},
{
closed = 1;
nodes = (
"300 65 OFFCURVE",
"283 81 OFFCURVE",
"283 104 CURVE SMOOTH",
"283 133 OFFCURVE",
"312 179 OFFCURVE",
"366 215 CURVE",
"370 175 OFFCURVE",
"375 136 OFFCURVE",
"383 98 CURVE",
"366 88 OFFCURVE",
"349 81 OFFCURVE",
"332 75 CURVE SMOOTH"
);
},
{
closed = 1;
nodes = (
"483 210 OFFCURVE",
"480 235 OFFCURVE",
"478 261 CURVE",
"497 264 OFFCURVE",
"517 267 OFFCURVE",
"538 267 CURVE",
"523 236 OFFCURVE",
"505 209 OFFCURVE",
"486 186 CURVE"
);
}
);
width = 1000;
}
);
unicode = 3041;
},
{
glyphname = "i-hira";
lastChange = "2021-05-14 05:13:03 +0000";
layers = (
{
layerId = master01;
paths = (
{
closed = 1;
nodes = (
"272 15 OFFCURVE",
"308 19 OFFCURVE",
"344 67 CURVE SMOOTH",
"372 106 OFFCURVE",
"407 168 OFFCURVE",
"427 219 CURVE",
"422 225 OFFCURVE",
"390 255 OFFCURVE",
"383 266 CURVE",
"366 222 OFFCURVE",
"330 160 OFFCURVE",
"309 131 CURVE SMOOTH",
"293 109 OFFCURVE",
"276 108 OFFCURVE",
"258 130 CURVE SMOOTH",
"218 179 OFFCURVE",
"189 274 OFFCURVE",
"187 370 CURVE SMOOTH",
"185 477 OFFCURVE",
"203 602 OFFCURVE",
"245 723 CURVE",
"232 725 OFFCURVE",
"190 737 OFFCURVE",
"178 741 CURVE",
"142 615 OFFCURVE",
"119 484 OFFCURVE",
"123 366 CURVE",
"126 240 OFFCURVE",
"165 121 OFFCURVE",
"230 57 CURVE SMOOTH"
);
},
{
closed = 1;
nodes = (
"855 204 OFFCURVE",
"896 219 OFFCURVE",
"905 222 CURVE",
"871 322 OFFCURVE",
"787 463 OFFCURVE",
"711 547 CURVE",
"703 542 OFFCURVE",
"665 524 OFFCURVE",
"653 521 CURVE",
"732 433 OFFCURVE",
"807 299 OFFCURVE",
"841 197 CURVE"
);
}
);
width = 1000;
},
{
layerId = "E768F6A6-15EB-4D2C-841C-D9E78CD24AB1";
paths = (
{
closed = 1;
nodes = (
"859 204 LINE",
"827 303 OFFCURVE",
"748 440 OFFCURVE",
"668 527 CURVE",
"701 543 LINE",
"776 459 OFFCURVE",
"859 318 OFFCURVE",
"894 219 CURVE"
);
},
{
closed = 1;
nodes = (
"399 179 OFFCURVE",
"363 117 OFFCURVE",
"338 81 CURVE SMOOTH",
"305 33 OFFCURVE",
"271 29 OFFCURVE",
"231 72 CURVE SMOOTH",
"176 131 OFFCURVE",
"138 252 OFFCURVE",
"135 367 CURVE SMOOTH",
"133 479 OFFCURVE",
"155 610 OFFCURVE",
"193 738 CURVE",
"230 727 LINE",
"187 601 OFFCURVE",
"169 476 OFFCURVE",
"171 368 CURVE SMOOTH",
"173 261 OFFCURVE",
"207 151 OFFCURVE",
"256 98 CURVE",
"275 79 OFFCURVE",
"293 80 OFFCURVE",
"309 102 CURVE SMOOTH",
"332 135 OFFCURVE",
"372 203 OFFCURVE",
"390 249 CURVE",
"420 224 LINE"
);
}
);
width = 1000;
},
{
layerId = "E5DBD9E3-8A55-410D-8C4B-D00EFB9ED751";
paths = (
{
closed = 1;
nodes = (
"272 1 OFFCURVE",
"312 5 OFFCURVE",
"349 53 CURVE SMOOTH",
"381 94 OFFCURVE",
"415 158 OFFCURVE",
"435 215 CURVE",
"425 227 OFFCURVE",
"391 261 OFFCURVE",
"376 283 CURVE",
"359 241 OFFCURVE",
"328 186 OFFCURVE",
"309 160 CURVE SMOOTH",
"293 138 OFFCURVE",
"278 138 OFFCURVE",
"260 162 CURVE SMOOTH",
"228 207 OFFCURVE",
"205 288 OFFCURVE",
"203 373 CURVE SMOOTH",
"201 478 OFFCURVE",
"219 603 OFFCURVE",
"261 719 CURVE",
"235 723 OFFCURVE",
"187 737 OFFCURVE",
"163 745 CURVE",
"129 620 OFFCURVE",
"106 488 OFFCURVE",
"110 365 CURVE SMOOTH",
"114 228 OFFCURVE",
"154 112 OFFCURVE",
"229 41 CURVE SMOOTH"
);
},
{
closed = 1;
nodes = (
"852 203 OFFCURVE",
"897 220 OFFCURVE",
"917 226 CURVE",
"883 326 OFFCURVE",
"798 467 OFFCURVE",
"721 550 CURVE",
"705 541 OFFCURVE",
"663 522 OFFCURVE",
"638 516 CURVE",
"715 426 OFFCURVE",
"787 296 OFFCURVE",
"824 190 CURVE"
);
}
);
width = 1000;
},
{
layerId = "001C0F45-7B19-4771-B55F-26ADC6604229";
paths = (
{
closed = 1;
nodes = (
"272 -14 OFFCURVE",
"316 -9 OFFCURVE",
"354 38 CURVE SMOOTH",
"391 83 OFFCURVE",
"422 147 OFFCURVE",
"442 210 CURVE",
"427 228 OFFCURVE",
"391 267 OFFCURVE",
"369 300 CURVE",
"353 260 OFFCURVE",
"326 211 OFFCURVE",
"310 189 CURVE SMOOTH",
"293 168 OFFCURVE",
"279 167 OFFCURVE",
"263 193 CURVE SMOOTH",
"238 234 OFFCURVE",
"221 302 OFFCURVE",
"219 375 CURVE SMOOTH",
"216 479 OFFCURVE",
"235 603 OFFCURVE",
"277 715 CURVE",
"237 722 OFFCURVE",
"184 737 OFFCURVE",
"148 748 CURVE",
"115 625 OFFCURVE",
"92 492 OFFCURVE",
"97 365 CURVE SMOOTH",
"102 216 OFFCURVE",
"143 102 OFFCURVE",
"229 25 CURVE SMOOTH"
);
},
{
closed = 1;
nodes = (
"848 203 OFFCURVE",
"899 220 OFFCURVE",
"928 229 CURVE",
"895 330 OFFCURVE",
"809 471 OFFCURVE",
"731 554 CURVE",
"707 540 OFFCURVE",
"660 519 OFFCURVE",
"623 510 CURVE",
"698 419 OFFCURVE",
"767 292 OFFCURVE",
"807 182 CURVE"
);
}
);
width = 1000;
},
{
layerId = "192F6294-2DDB-4A85-B973-E64E677F808A";
paths = (
{
closed = 1;
nodes = (
"272 -29 OFFCURVE",
"319 -23 OFFCURVE",
"359 24 CURVE SMOOTH",
"400 72 OFFCURVE",
"430 137 OFFCURVE",
"449 206 CURVE",
"429 229 OFFCURVE",
"392 274 OFFCURVE",
"362 317 CURVE",
"346 279 OFFCURVE",
"324 236 OFFCURVE",
"310 218 CURVE SMOOTH",
"293 197 OFFCURVE",
"279 195 OFFCURVE",
"265 225 CURVE SMOOTH",
"247 261 OFFCURVE",
"237 315 OFFCURVE",
"235 378 CURVE SMOOTH",
"232 480 OFFCURVE",
"251 604 OFFCURVE",
"292 711 CURVE",
"239 720 OFFCURVE",
"181 736 OFFCURVE",
"133 752 CURVE",
"102 630 OFFCURVE",
"78 496 OFFCURVE",
"84 364 CURVE",
"90 204 OFFCURVE",
"132 92 OFFCURVE",
"228 9 CURVE SMOOTH"
);
},
{
closed = 1;
nodes = (
"844 202 OFFCURVE",
"901 220 OFFCURVE",
"939 232 CURVE",
"907 334 OFFCURVE",
"820 475 OFFCURVE",
"741 557 CURVE",
"708 539 OFFCURVE",
"657 517 OFFCURVE",
"608 505 CURVE",
"681 412 OFFCURVE",
"748 288 OFFCURVE",
"789 175 CURVE"
);
}
);
width = 1000;
}
);
unicode = 3044;
},
{
glyphname = "ismall-hira";
lastChange = "2021-05-14 05:27:52 +0000";
layers = (
{
background = {
paths = (
{
closed = 1;
nodes = (
"328 -24 OFFCURVE",
"359 -20 OFFCURVE",
"386 18 CURVE SMOOTH",
"407 48 OFFCURVE",
"433 94 OFFCURVE",
"448 132 CURVE",
"444 136 OFFCURVE",
"415 162 OFFCURVE",
"409 170 CURVE",
"398 142 OFFCURVE",
"372 97 OFFCURVE",
"356 75 CURVE SMOOTH",
"343 57 OFFCURVE",
"334 56 OFFCURVE",
"320 72 CURVE SMOOTH",
"289 111 OFFCURVE",
"270 182 OFFCURVE",
"270 259 CURVE SMOOTH",
"270 337 OFFCURVE",
"284 427 OFFCURVE",
"314 514 CURVE",
"304 515 OFFCURVE",
"264 525 OFFCURVE",
"255 528 CURVE",
"228 433 OFFCURVE",
"210 333 OFFCURVE",
"213 245 CURVE",
"215 150 OFFCURVE",
"245 59 OFFCURVE",
"293 10 CURVE SMOOTH"
);
},
{
closed = 1;
nodes = (
"762 122 OFFCURVE",
"801 135 OFFCURVE",
"808 137 CURVE",
"782 212 OFFCURVE",
"719 319 OFFCURVE",
"663 382 CURVE",
"657 379 OFFCURVE",
"621 364 OFFCURVE",
"612 362 CURVE",
"670 293 OFFCURVE",
"726 194 OFFCURVE",
"752 117 CURVE"
);
}
);
};
layerId = master01;
paths = (
{
closed = 1;
nodes = (
"328 -24 OFFCURVE",
"359 -20 OFFCURVE",
"386 18 CURVE SMOOTH",
"407 48 OFFCURVE",
"433 94 OFFCURVE",
"448 132 CURVE",
"444 136 OFFCURVE",
"415 162 OFFCURVE",
"409 170 CURVE",
"398 142 OFFCURVE",
"372 97 OFFCURVE",
"356 75 CURVE SMOOTH",
"343 57 OFFCURVE",
"334 56 OFFCURVE",
"320 72 CURVE SMOOTH",
"289 111 OFFCURVE",
"270 182 OFFCURVE",
"270 259 CURVE SMOOTH",
"270 337 OFFCURVE",
"284 427 OFFCURVE",
"314 514 CURVE",
"304 515 OFFCURVE",
"264 525 OFFCURVE",
"255 528 CURVE",
"228 433 OFFCURVE",
"210 333 OFFCURVE",
"213 245 CURVE",
"215 150 OFFCURVE",
"245 59 OFFCURVE",
"293 10 CURVE SMOOTH"
);
},
{
closed = 1;
nodes = (
"762 122 OFFCURVE",
"801 135 OFFCURVE",
"808 137 CURVE",
"782 212 OFFCURVE",
"719 319 OFFCURVE",
"663 382 CURVE",
"657 379 OFFCURVE",
"621 364 OFFCURVE",
"612 362 CURVE",
"670 293 OFFCURVE",
"726 194 OFFCURVE",
"752 117 CURVE"
);
}
);
width = 1000;
},
{
layerId = "E768F6A6-15EB-4D2C-841C-D9E78CD24AB1";
paths = (
{
closed = 1;
nodes = (
"766 123 LINE",
"742 197 OFFCURVE",
"684 296 OFFCURVE",
"624 365 CURVE",
"654 379 LINE",
"710 316 OFFCURVE",
"772 210 OFFCURVE",
"799 136 CURVE"
);
},
{
closed = 1;
nodes = (
"425 102 OFFCURVE",
"398 56 OFFCURVE",
"379 29 CURVE SMOOTH",
"352 -9 OFFCURVE",
"327 -12 OFFCURVE",
"295 23 CURVE SMOOTH",
"254 66 OFFCURVE",
"225 159 OFFCURVE",
"223 245 CURVE SMOOTH",
"222 329 OFFCURVE",
"238 427 OFFCURVE",
"266 523 CURVE",
"301 515 LINE",
"269 421 OFFCURVE",
"255 327 OFFCURVE",
"256 246 CURVE SMOOTH",
"258 166 OFFCURVE",
"280 90 OFFCURVE",
"317 50 CURVE SMOOTH",
"333 34 OFFCURVE",
"341 36 OFFCURVE",
"355 55 CURVE SMOOTH",
"372 80 OFFCURVE",
"401 127 OFFCURVE",
"412 156 CURVE",
"440 136 LINE"
);
}
);
width = 1000;
},
{
background = {
paths = (
{
closed = 1;
nodes = (
"454 88 OFFCURVE",
"491 93 OFFCURVE",
"518 132 CURVE SMOOTH",
"542 166 OFFCURVE",
"566 212 OFFCURVE",
"581 252 CURVE",
"573 261 OFFCURVE",
"542 292 OFFCURVE",
"531 309 CURVE",
"520 282 OFFCURVE",
"497 240 OFFCURVE",
"483 221 CURVE SMOOTH",
"470 203 OFFCURVE",
"461 203 OFFCURVE",
"449 220 CURVE SMOOTH",
"422 257 OFFCURVE",
"407 324 OFFCURVE",
"408 398 CURVE SMOOTH",
"409 473 OFFCURVE",
"424 558 OFFCURVE",
"452 637 CURVE",
"433 641 OFFCURVE",
"387 651 OFFCURVE",
"369 657 CURVE",
"343 563 OFFCURVE",
"324 461 OFFCURVE",
"327 369 CURVE SMOOTH",
"330 266 OFFCURVE",
"361 176 OFFCURVE",
"417 123 CURVE SMOOTH"
);
},
{
closed = 1;
nodes = (
"884 246 OFFCURVE",
"928 259 OFFCURVE",
"942 263 CURVE",
"917 339 OFFCURVE",
"853 448 OFFCURVE",
"796 510 CURVE",
"784 503 OFFCURVE",
"743 488 OFFCURVE",
"724 483 CURVE",
"782 414 OFFCURVE",
"835 315 OFFCURVE",
"863 236 CURVE"
);
}
);
};
layerId = "E5DBD9E3-8A55-410D-8C4B-D00EFB9ED751";
paths = (
{
closed = 1;
nodes = (
"329 -37 OFFCURVE",
"366 -32 OFFCURVE",
"393 7 CURVE SMOOTH",
"417 41 OFFCURVE",
"441 87 OFFCURVE",
"456 127 CURVE",
"448 136 OFFCURVE",
"417 167 OFFCURVE",
"406 184 CURVE",
"395 157 OFFCURVE",
"372 115 OFFCURVE",
"358 96 CURVE SMOOTH",
"345 78 OFFCURVE",
"336 78 OFFCURVE",
"324 95 CURVE SMOOTH",
"297 132 OFFCURVE",
"282 199 OFFCURVE",
"283 273 CURVE SMOOTH",
"284 348 OFFCURVE",
"299 433 OFFCURVE",
"327 512 CURVE",
"308 516 OFFCURVE",
"262 526 OFFCURVE",
"244 532 CURVE",
"218 438 OFFCURVE",
"199 336 OFFCURVE",
"202 244 CURVE SMOOTH",
"205 141 OFFCURVE",
"236 51 OFFCURVE",
"292 -2 CURVE SMOOTH"
);
},
{
closed = 1;
nodes = (
"759 121 OFFCURVE",
"803 134 OFFCURVE",
"817 138 CURVE",
"792 214 OFFCURVE",
"728 323 OFFCURVE",
"671 385 CURVE",
"659 378 OFFCURVE",
"618 363 OFFCURVE",
"599 358 CURVE",
"657 289 OFFCURVE",
"710 190 OFFCURVE",
"738 111 CURVE"
);
}
);
width = 1000;
},
{
layerId = "001C0F45-7B19-4771-B55F-26ADC6604229";
paths = (
{
closed = 1;
nodes = (
"331 -50 OFFCURVE",
"374 -43 OFFCURVE",
"401 -4 CURVE SMOOTH",
"427 33 OFFCURVE",
"448 79 OFFCURVE",
"464 122 CURVE",
"452 135 OFFCURVE",
"420 173 OFFCURVE",
"403 197 CURVE",
"393 171 OFFCURVE",
"372 133 OFFCURVE",
"359 116 CURVE SMOOTH",
"347 100 OFFCURVE",
"337 100 OFFCURVE",
"327 117 CURVE SMOOTH",
"305 153 OFFCURVE",
"294 216 OFFCURVE",
"297 286 CURVE",
"299 358 OFFCURVE",
"314 438 OFFCURVE",
"341 511 CURVE",
"311 516 OFFCURVE",
"259 527 OFFCURVE",
"232 536 CURVE",
"208 444 OFFCURVE",
"188 339 OFFCURVE",
"192 243 CURVE SMOOTH",
"196 132 OFFCURVE",
"226 43 OFFCURVE",
"291 -14 CURVE SMOOTH"
);
},
{
closed = 1;
nodes = (
"755 120 OFFCURVE",
"805 133 OFFCURVE",
"827 139 CURVE",
"802 215 OFFCURVE",
"737 326 OFFCURVE",
"679 388 CURVE",
"661 378 OFFCURVE",
"615 362 OFFCURVE",
"587 355 CURVE",
"643 286 OFFCURVE",
"695 187 OFFCURVE",
"724 104 CURVE"
);
}
);
width = 1000;
},
{
background = {
paths = (
{
closed = 1;
nodes = (
"457 62 OFFCURVE",
"506 71 OFFCURVE",
"533 110 CURVE SMOOTH",
"561 151 OFFCURVE",
"581 196 OFFCURVE",
"597 243 CURVE",
"582 260 OFFCURVE",
"547 304 OFFCURVE",
"525 336 CURVE",
"515 311 OFFCURVE",
"497 276 OFFCURVE",
"486 262 CURVE SMOOTH",
"473 246 OFFCURVE",
"463 247 OFFCURVE",
"455 264 CURVE SMOOTH",
"421 335 OFFCURVE",
"429 506 OFFCURVE",
"479 635 CURVE",
"440 642 OFFCURVE",
"382 654 OFFCURVE",
"346 666 CURVE",
"323 574 OFFCURVE",
"302 467 OFFCURVE",
"306 368 CURVE SMOOTH",
"311 248 OFFCURVE",
"342 161 OFFCURVE",
"415 98 CURVE SMOOTH"
);
},
{
closed = 1;
nodes = (
"877 243 OFFCURVE",
"932 257 OFFCURVE",
"961 266 CURVE",
"937 342 OFFCURVE",
"871 454 OFFCURVE",
"813 516 CURVE",
"788 503 OFFCURVE",
"736 486 OFFCURVE",
"699 477 CURVE",
"754 408 OFFCURVE",
"804 308 OFFCURVE",
"835 223 CURVE"
);
}
);
};
layerId = "192F6294-2DDB-4A85-B973-E64E677F808A";
paths = (
{
closed = 1;
nodes = (
"332 -63 OFFCURVE",
"381 -54 OFFCURVE",
"408 -15 CURVE SMOOTH",
"436 26 OFFCURVE",
"456 71 OFFCURVE",
"472 118 CURVE",
"457 135 OFFCURVE",
"422 179 OFFCURVE",
"400 211 CURVE",
"390 186 OFFCURVE",
"372 151 OFFCURVE",
"361 137 CURVE SMOOTH",
"348 121 OFFCURVE",
"338 122 OFFCURVE",
"330 139 CURVE SMOOTH",
"296 210 OFFCURVE",
"304 381 OFFCURVE",
"354 510 CURVE",
"315 517 OFFCURVE",
"257 529 OFFCURVE",
"221 541 CURVE",
"198 449 OFFCURVE",
"177 342 OFFCURVE",
"181 243 CURVE SMOOTH",
"186 123 OFFCURVE",
"217 36 OFFCURVE",
"290 -27 CURVE SMOOTH"
);
},
{
closed = 1;
nodes = (
"752 118 OFFCURVE",
"807 132 OFFCURVE",
"836 141 CURVE",
"812 217 OFFCURVE",
"746 329 OFFCURVE",
"688 391 CURVE",
"663 378 OFFCURVE",
"611 361 OFFCURVE",
"574 352 CURVE",
"629 283 OFFCURVE",
"679 183 OFFCURVE",
"710 98 CURVE"
);
}
);
width = 1000;
}
);
unicode = 3043;
},
{
glyphname = "u-hira";
lastChange = "2021-05-14 05:13:03 +0000";
layers = (
{
layerId = master01;
paths = (
{
closed = 1;
nodes = (
"622 0 OFFCURVE",
"739 145 OFFCURVE",
"737 322 CURVE SMOOTH",
"735 483 OFFCURVE",
"645 561 OFFCURVE",
"524 561 CURVE SMOOTH",
"433 561 OFFCURVE",
"315 508 OFFCURVE",
"219 468 CURVE",
"226 460 OFFCURVE",
"252 418 OFFCURVE",
"256 407 CURVE",
"340 456 OFFCURVE",
"442 499 OFFCURVE",
"520 499 CURVE SMOOTH",
"607 499 OFFCURVE",
"671 444 OFFCURVE",
"672 321 CURVE SMOOTH",
"673 175 OFFCURVE",
"566 39 OFFCURVE",
"361 -30 CURVE",
"373 -39 OFFCURVE",
"401 -77 OFFCURVE",
"406 -85 CURVE"
);
},
{
closed = 1;
nodes = (
"660 692 OFFCURVE",
"672 736 OFFCURVE",
"678 746 CURVE",
"584 757 OFFCURVE",
"429 805 OFFCURVE",
"351 844 CURVE",
"348 835 OFFCURVE",
"328 795 OFFCURVE",
"322 787 CURVE",
"401 750 OFFCURVE",
"556 699 OFFCURVE",
"657 683 CURVE"
);
}
);
width = 1000;
},
{
layerId = "E768F6A6-15EB-4D2C-841C-D9E78CD24AB1";
paths = (
{
closed = 1;
nodes = (
"666 700 LINE",
"566 715 OFFCURVE",
"414 765 OFFCURVE",
"331 803 CURVE",
"348 836 LINE",
"425 796 OFFCURVE",
"585 748 OFFCURVE",
"676 737 CURVE"
);
},
{
closed = 1;
nodes = (
"727 159 OFFCURVE",
"614 12 OFFCURVE",
"402 -79 CURVE",
"380 -47 LINE",
"581 29 OFFCURVE",
"692 174 OFFCURVE",
"692 322 CURVE SMOOTH",
"692 453 OFFCURVE",
"622 519 OFFCURVE",
"527 519 CURVE SMOOTH",
"444 519 OFFCURVE",
"338 476 OFFCURVE",
"251 426 CURVE",
"231 458 LINE",
"323 504 OFFCURVE",
"439 554 OFFCURVE",
"527 554 CURVE SMOOTH",
"641 554 OFFCURVE",
"727 475 OFFCURVE",
"727 322 CURVE SMOOTH"
);
}
);
width = 1000;
},
{
layerId = "E5DBD9E3-8A55-410D-8C4B-D00EFB9ED751";
paths = (
{
closed = 1;
nodes = (
"632 -12 OFFCURVE",
"752 131 OFFCURVE",
"748 322 CURVE SMOOTH",
"745 491 OFFCURVE",
"651 567 OFFCURVE",
"522 567 CURVE SMOOTH",
"428 567 OFFCURVE",
"310 512 OFFCURVE",
"209 478 CURVE",
"223 462 OFFCURVE",
"256 410 OFFCURVE",
"264 389 CURVE",
"344 437 OFFCURVE",
"442 479 OFFCURVE",
"516 479 CURVE SMOOTH",
"594 479 OFFCURVE",
"651 434 OFFCURVE",
"653 320 CURVE SMOOTH",
"655 175 OFFCURVE",
"552 49 OFFCURVE",
"344 -13 CURVE",
"367 -30 OFFCURVE",
"402 -75 OFFCURVE",
"412 -92 CURVE"
);
},
{
closed = 1;
nodes = (
"655 684 OFFCURVE",
"670 736 OFFCURVE",
"681 756 CURVE",
"584 767 OFFCURVE",
"435 813 OFFCURVE",
"356 852 CURVE",
"350 833 OFFCURVE",
"326 787 OFFCURVE",
"315 771 CURVE",
"390 736 OFFCURVE",
"548 684 OFFCURVE",
"650 667 CURVE"
);
}
);
width = 1000;
},
{
layerId = "001C0F45-7B19-4771-B55F-26ADC6604229";
paths = (
{
closed = 1;
nodes = (
"642 -24 OFFCURVE",
"765 117 OFFCURVE",
"760 322 CURVE SMOOTH",
"755 499 OFFCURVE",
"657 574 OFFCURVE",
"520 574 CURVE SMOOTH",
"423 574 OFFCURVE",
"304 516 OFFCURVE",
"200 488 CURVE",
"220 465 OFFCURVE",
"259 402 OFFCURVE",
"271 371 CURVE",
"347 418 OFFCURVE",
"441 459 OFFCURVE",
"511 459 CURVE SMOOTH",
"580 459 OFFCURVE",
"631 425 OFFCURVE",
"634 318 CURVE SMOOTH",
"638 175 OFFCURVE",
"538 59 OFFCURVE",
"327 4 CURVE",
"361 -21 OFFCURVE",
"403 -73 OFFCURVE",
"418 -98 CURVE"
);
},
{
closed = 1;
nodes = (
"650 677 OFFCURVE",
"669 736 OFFCURVE",
"685 765 CURVE",
"585 776 OFFCURVE",
"441 822 OFFCURVE",
"361 860 CURVE",
"351 832 OFFCURVE",
"324 779 OFFCURVE",
"307 755 CURVE",
"380 722 OFFCURVE",
"540 668 OFFCURVE",
"642 650 CURVE"
);
}
);
width = 1000;
},
{
layerId = "192F6294-2DDB-4A85-B973-E64E677F808A";
paths = (
{
closed = 1;
nodes = (
"652 -36 OFFCURVE",
"779 103 OFFCURVE",
"771 323 CURVE SMOOTH",
"765 506 OFFCURVE",
"663 581 OFFCURVE",
"518 581 CURVE SMOOTH",
"418 581 OFFCURVE",
"298 520 OFFCURVE",
"190 498 CURVE",
"217 467 OFFCURVE",
"262 395 OFFCURVE",
"278 352 CURVE",
"350 399 OFFCURVE",
"441 439 OFFCURVE",
"506 439 CURVE SMOOTH",
"567 439 OFFCURVE",
"612 415 OFFCURVE",
"615 317 CURVE SMOOTH",
"620 176 OFFCURVE",
"523 69 OFFCURVE",
"309 22 CURVE",
"355 -13 OFFCURVE",
"404 -71 OFFCURVE",
"423 -105 CURVE"
);
},
{
closed = 1;
nodes = (
"645 669 OFFCURVE",
"667 735 OFFCURVE",
"688 775 CURVE",
"586 785 OFFCURVE",
"447 830 OFFCURVE",
"367 868 CURVE",
"353 830 OFFCURVE",
"323 772 OFFCURVE",
"300 739 CURVE",
"369 707 OFFCURVE",
"532 653 OFFCURVE",
"635 634 CURVE"
);
}
);
width = 1000;
}
);
unicode = 3046;
},
{
glyphname = "usmall-hira";
lastChange = "2021-05-14 05:27:58 +0000";
layers = (
{
background = {
paths = (
{
closed = 1;
nodes = (
"593 -34 OFFCURVE",
"683 74 OFFCURVE",
"682 210 CURVE SMOOTH",
"681 330 OFFCURVE",
"612 394 OFFCURVE",
"518 394 CURVE SMOOTH",
"450 394 OFFCURVE",
"359 356 OFFCURVE",
"284 323 CURVE",
"290 317 OFFCURVE",
"315 279 OFFCURVE",
"319 270 CURVE",
"379 307 OFFCURVE",
"453 339 OFFCURVE",
"515 339 CURVE SMOOTH",
"580 339 OFFCURVE",
"624 299 OFFCURVE",
"625 209 CURVE",
"625 99 OFFCURVE",
"544 1 OFFCURVE",
"391 -49 CURVE",
"399 -56 OFFCURVE",
"428 -91 OFFCURVE",
"431 -98 CURVE"
);
},
{
closed = 1;
nodes = (
"619 486 OFFCURVE",
"631 526 OFFCURVE",
"635 534 CURVE",
"564 542 OFFCURVE",
"445 578 OFFCURVE",
"387 607 CURVE",
"384 600 OFFCURVE",
"366 563 OFFCURVE",
"361 557 CURVE",
"421 529 OFFCURVE",
"542 491 OFFCURVE",
"617 479 CURVE"
);
}
);
};
layerId = master01;
paths = (
{
closed = 1;
nodes = (
"593 -34 OFFCURVE",
"683 74 OFFCURVE",
"682 210 CURVE SMOOTH",
"681 330 OFFCURVE",
"612 394 OFFCURVE",
"518 394 CURVE SMOOTH",
"450 394 OFFCURVE",
"359 356 OFFCURVE",
"284 323 CURVE",
"290 317 OFFCURVE",
"315 279 OFFCURVE",
"319 270 CURVE",
"379 307 OFFCURVE",
"453 339 OFFCURVE",
"515 339 CURVE SMOOTH",
"580 339 OFFCURVE",
"624 299 OFFCURVE",
"625 209 CURVE",
"625 99 OFFCURVE",
"544 1 OFFCURVE",
"391 -49 CURVE",
"399 -56 OFFCURVE",
"428 -91 OFFCURVE",
"431 -98 CURVE"
);
},
{
closed = 1;
nodes = (
"619 486 OFFCURVE",
"631 526 OFFCURVE",
"635 534 CURVE",
"564 542 OFFCURVE",
"445 578 OFFCURVE",
"387 607 CURVE",
"384 600 OFFCURVE",
"366 563 OFFCURVE",
"361 557 CURVE",
"421 529 OFFCURVE",
"542 491 OFFCURVE",
"617 479 CURVE"
);
}
);
width = 1000;
},
{
layerId = "E768F6A6-15EB-4D2C-841C-D9E78CD24AB1";
paths = (
{
closed = 1;
nodes = (
"622 492 LINE",
"547 503 OFFCURVE",
"431 540 OFFCURVE",
"369 569 CURVE",
"384 601 LINE",
"442 571 OFFCURVE",
"562 535 OFFCURVE",
"631 526 CURVE"
);
},
{
closed = 1;
nodes = (
"673 85 OFFCURVE",
"587 -22 OFFCURVE",
"429 -91 CURVE",
"406 -62 LINE",
"556 -8 OFFCURVE",
"640 101 OFFCURVE",
"640 212 CURVE SMOOTH",
"640 310 OFFCURVE",
"591 357 OFFCURVE",
"519 357 CURVE SMOOTH",
"452 357 OFFCURVE",
"378 326 OFFCURVE",
"315 288 CURVE",
"293 318 LINE",
"366 357 OFFCURVE",
"453 391 OFFCURVE",
"519 391 CURVE SMOOTH",
"609 391 OFFCURVE",
"673 326 OFFCURVE",
"673 212 CURVE SMOOTH"
);
}
);
width = 1000;
},
{
background = {
paths = (
{
closed = 1;
nodes = (
"724 80 OFFCURVE",
"819 188 OFFCURVE",
"816 333 CURVE SMOOTH",
"814 460 OFFCURVE",
"741 523 OFFCURVE",
"641 523 CURVE SMOOTH",
"571 523 OFFCURVE",
"477 480 OFFCURVE",
"400 453 CURVE",
"411 441 OFFCURVE",
"439 396 OFFCURVE",
"448 378 CURVE",
"506 414 OFFCURVE",
"579 446 OFFCURVE",
"637 446 CURVE SMOOTH",
"695 446 OFFCURVE",
"733 413 OFFCURVE",
"735 331 CURVE",
"736 223 OFFCURVE",
"657 134 OFFCURVE",
"501 89 CURVE",
"518 76 OFFCURVE",
"552 33 OFFCURVE",
"559 20 CURVE"
);
},
{
closed = 1;
nodes = (
"742 605 OFFCURVE",
"756 652 OFFCURVE",
"764 667 CURVE",
"692 675 OFFCURVE",
"573 710 OFFCURVE",
"514 739 CURVE",
"509 725 OFFCURVE",
"488 682 OFFCURVE",
"479 670 CURVE",
"536 644 OFFCURVE",
"662 605 OFFCURVE",
"738 592 CURVE"
);
}
);
};
layerId = "E5DBD9E3-8A55-410D-8C4B-D00EFB9ED751";
paths = (
{
closed = 1;
nodes = (
"599 -45 OFFCURVE",
"694 63 OFFCURVE",
"691 208 CURVE SMOOTH",
"689 335 OFFCURVE",
"616 398 OFFCURVE",
"516 398 CURVE SMOOTH",
"446 398 OFFCURVE",
"352 355 OFFCURVE",
"275 328 CURVE",
"286 316 OFFCURVE",
"314 271 OFFCURVE",
"323 252 CURVE",
"381 289 OFFCURVE",
"454 321 OFFCURVE",
"512 321 CURVE SMOOTH",
"570 321 OFFCURVE",
"608 288 OFFCURVE",
"610 206 CURVE",
"611 98 OFFCURVE",
"532 9 OFFCURVE",
"376 -36 CURVE",
"393 -49 OFFCURVE",
"427 -92 OFFCURVE",
"434 -105 CURVE"
);
},
{
closed = 1;
nodes = (
"617 480 OFFCURVE",
"631 527 OFFCURVE",
"639 542 CURVE",
"567 550 OFFCURVE",
"448 585 OFFCURVE",
"389 614 CURVE",
"384 600 OFFCURVE",
"363 557 OFFCURVE",
"354 545 CURVE",
"411 519 OFFCURVE",
"537 480 OFFCURVE",
"613 467 CURVE"
);
}
);
width = 1000;
},
{
layerId = "001C0F45-7B19-4771-B55F-26ADC6604229";
paths = (
{
closed = 1;
nodes = (
"605 -56 OFFCURVE",
"705 52 OFFCURVE",
"701 207 CURVE SMOOTH",
"697 339 OFFCURVE",
"619 402 OFFCURVE",
"515 402 CURVE SMOOTH",
"442 402 OFFCURVE",
"345 354 OFFCURVE",
"266 332 CURVE",
"282 315 OFFCURVE",
"314 263 OFFCURVE",
"327 235 CURVE",
"383 271 OFFCURVE",
"455 304 OFFCURVE",
"508 304 CURVE SMOOTH",
"560 304 OFFCURVE",
"593 277 OFFCURVE",
"595 204 CURVE SMOOTH",
"597 97 OFFCURVE",
"520 17 OFFCURVE",
"362 -23 CURVE",
"387 -43 OFFCURVE",
"426 -93 OFFCURVE",
"437 -112 CURVE"
);
},
{
closed = 1;
nodes = (
"615 474 OFFCURVE",
"631 527 OFFCURVE",
"644 550 CURVE",
"569 558 OFFCURVE",
"451 592 OFFCURVE",
"391 621 CURVE",
"384 600 OFFCURVE",
"360 551 OFFCURVE",
"347 533 CURVE",
"401 508 OFFCURVE",
"532 468 OFFCURVE",
"609 454 CURVE"
);
}
);
width = 1000;
},
{
background = {
paths = (
{
closed = 1;
nodes = (
"736 58 OFFCURVE",
"841 166 OFFCURVE",
"835 330 CURVE SMOOTH",
"830 468 OFFCURVE",
"747 531 OFFCURVE",
"639 531 CURVE SMOOTH",
"564 531 OFFCURVE",
"464 479 OFFCURVE",
"382 462 CURVE",
"403 439 OFFCURVE",
"439 380 OFFCURVE",
"455 343 CURVE",
"509 378 OFFCURVE",
"581 411 OFFCURVE",
"629 411 CURVE SMOOTH",
"675 411 OFFCURVE",
"703 391 OFFCURVE",
"705 326 CURVE SMOOTH",
"709 220 OFFCURVE",
"633 150 OFFCURVE",
"472 115 CURVE",
"506 89 OFFCURVE",
"550 32 OFFCURVE",
"564 7 CURVE"
);
},
{
closed = 1;
nodes = (
"737 593 OFFCURVE",
"757 653 OFFCURVE",
"773 683 CURVE",
"696 690 OFFCURVE",
"578 724 OFFCURVE",
"518 753 CURVE",
"508 724 OFFCURVE",
"482 670 OFFCURVE",
"465 646 CURVE",
"517 622 OFFCURVE",
"652 581 OFFCURVE",
"730 567 CURVE"
);
}
);
};
layerId = "192F6294-2DDB-4A85-B973-E64E677F808A";
paths = (
{
closed = 1;
nodes = (
"611 -67 OFFCURVE",
"716 41 OFFCURVE",
"710 205 CURVE SMOOTH",
"705 343 OFFCURVE",
"622 406 OFFCURVE",
"514 406 CURVE SMOOTH",
"439 406 OFFCURVE",
"339 354 OFFCURVE",
"257 337 CURVE",
"278 314 OFFCURVE",
"314 255 OFFCURVE",
"330 218 CURVE",
"384 253 OFFCURVE",
"456 286 OFFCURVE",
"504 286 CURVE SMOOTH",
"550 286 OFFCURVE",
"578 266 OFFCURVE",
"580 201 CURVE SMOOTH",
"584 95 OFFCURVE",
"508 25 OFFCURVE",
"347 -10 CURVE",
"381 -36 OFFCURVE",
"425 -93 OFFCURVE",
"439 -118 CURVE"
);
},
{
closed = 1;
nodes = (
"612 468 OFFCURVE",
"632 528 OFFCURVE",
"648 558 CURVE",
"571 565 OFFCURVE",
"453 599 OFFCURVE",
"393 628 CURVE",
"383 599 OFFCURVE",
"357 545 OFFCURVE",
"340 521 CURVE",
"392 497 OFFCURVE",
"527 456 OFFCURVE",
"605 442 CURVE"
);
}
);
width = 1000;
}
);
unicode = 3045;
},
{
glyphname = "e-hira";
lastChange = "2021-05-14 05:13:03 +0000";
layers = (
{
layerId = master01;
paths = (
{
closed = 1;
nodes = (
"714 -37 OFFCURVE",
"848 -33 OFFCURVE",
"923 -27 CURVE",
"923 -17 OFFCURVE",
"928 28 OFFCURVE",
"932 39 CURVE",
"865 27 OFFCURVE",
"732 23 OFFCURVE",
"672 25 CURVE SMOOTH",
"627 27 OFFCURVE",
"616 37 OFFCURVE",
"616 69 CURVE SMOOTH",
"616 92 OFFCURVE",
"617 159 OFFCURVE",
"617 192 CURVE SMOOTH",
"617 297 OFFCURVE",
"553 325 OFFCURVE",
"460 292 CURVE",
"540 374 OFFCURVE",
"671 501 OFFCURVE",
"698 526 CURVE",
"693 532 OFFCURVE",
"669 558 OFFCURVE",
"665 564 CURVE",
"579 552 OFFCURVE",
"280 536 OFFCURVE",
"181 538 CURVE",
"183 527 OFFCURVE",
"188 485 OFFCURVE",
"188 474 CURVE",
"276 480 OFFCURVE",
"498 492 OFFCURVE",
"588 499 CURVE",
"495 402 OFFCURVE",
"198 109 OFFCURVE",
"92 16 CURVE",
"101 9 OFFCURVE",
"135 -23 OFFCURVE",
"144 -32 CURVE",
"181 8 OFFCURVE",
"290 120 OFFCURVE",
"352 180 CURVE SMOOTH",
"392 219 OFFCURVE",
"414 234 OFFCURVE",
"459 245 CURVE SMOOTH",
"529 261 OFFCURVE",
"557 241 OFFCURVE",
"556 170 CURVE",
"555 148 OFFCURVE",
"554 83 OFFCURVE",
"554 52 CURVE SMOOTH",
"554 -10 OFFCURVE",
"579 -29 OFFCURVE",
"652 -33 CURVE SMOOTH"
);
},
{
closed = 1;
nodes = (
"686 709 OFFCURVE",
"691 753 OFFCURVE",
"694 764 CURVE",
"585 762 OFFCURVE",
"408 780 OFFCURVE",
"305 806 CURVE",
"304 795 OFFCURVE",
"292 752 OFFCURVE",
"288 743 CURVE",
"381 725 OFFCURVE",
"573 704 OFFCURVE",
"686 700 CURVE"
);
}
);
width = 1000;
},
{
layerId = "E768F6A6-15EB-4D2C-841C-D9E78CD24AB1";
paths = (
{
closed = 1;
nodes = (
"690 716 LINE",
"576 721 OFFCURVE",
"387 741 OFFCURVE",
"293 759 CURVE",
"304 797 LINE",
"410 770 OFFCURVE",
"585 753 OFFCURVE",
"694 755 CURVE"
);
},
{
closed = 1;
nodes = (
"924 -16 LINE",
"851 -23 OFFCURVE",
"722 -28 OFFCURVE",
"663 -25 CURVE SMOOTH",
"593 -22 OFFCURVE",
"568 -4 OFFCURVE",
"568 58 CURVE SMOOTH",
"568 85 OFFCURVE",
"569 159 OFFCURVE",
"569 180 CURVE SMOOTH",
"569 256 OFFCURVE",
"536 276 OFFCURVE",
"458 257 CURVE SMOOTH",
"409 246 OFFCURVE",
"387 232 OFFCURVE",
"350 196 CURVE SMOOTH",
"285 133 OFFCURVE",
"172 16 OFFCURVE",
"133 -23 CURVE",
"102 4 LINE",
"204 96 OFFCURVE",
"516 409 OFFCURVE",
"623 520 CURVE",
"527 511 OFFCURVE",
"282 499 OFFCURVE",
"191 494 CURVE",
"186 531 LINE",
"284 530 OFFCURVE",
"584 546 OFFCURVE",
"664 557 CURVE",
"686 535 LINE",
"661 512 OFFCURVE",
"516 366 OFFCURVE",
"432 279 CURVE",
"537 320 OFFCURVE",
"604 292 OFFCURVE",
"604 180 CURVE SMOOTH",
"604 153 OFFCURVE",
"603 82 OFFCURVE",
"603 58 CURVE SMOOTH",
"603 24 OFFCURVE",
"616 13 OFFCURVE",
"665 10 CURVE SMOOTH",
"731 6 OFFCURVE",
"853 8 OFFCURVE",
"929 22 CURVE"
);
}
);
width = 1000;
},
{
layerId = "E5DBD9E3-8A55-410D-8C4B-D00EFB9ED751";
paths = (
{
closed = 1;
nodes = (
"192 0 OFFCURVE",
"296 107 OFFCURVE",
"356 164 CURVE SMOOTH",
"399 206 OFFCURVE",
"421 223 OFFCURVE",
"463 232 CURVE SMOOTH",
"523 246 OFFCURVE",
"546 226 OFFCURVE",
"544 160 CURVE SMOOTH",
"543 136 OFFCURVE",
"542 81 OFFCURVE",
"542 47 CURVE SMOOTH",
"542 -15 OFFCURVE",
"566 -36 OFFCURVE",
"642 -41 CURVE SMOOTH",
"707 -45 OFFCURVE",
"846 -43 OFFCURVE",
"923 -36 CURVE",
"924 -18 OFFCURVE",
"929 34 OFFCURVE",
"938 57 CURVE",
"878 47 OFFCURVE",
"735 39 OFFCURVE",
"682 41 CURVE SMOOTH",
"641 42 OFFCURVE",
"631 51 OFFCURVE",
"631 81 CURVE SMOOTH",
"631 103 OFFCURVE",
"631 166 OFFCURVE",
"631 205 CURVE SMOOTH",
"631 302 OFFCURVE",
"572 331 OFFCURVE",
"491 305 CURVE",
"566 383 OFFCURVE",
"682 490 OFFCURVE",
"713 517 CURVE",
"701 529 OFFCURVE",
"675 559 OFFCURVE",
"666 571 CURVE",
"577 559 OFFCURVE",
"278 543 OFFCURVE",
"178 546 CURVE",
"182 523 OFFCURVE",
"187 476 OFFCURVE",
"188 455 CURVE",
"272 461 OFFCURVE",
"471 473 OFFCURVE",
"555 479 CURVE",
"475 396 OFFCURVE",
"194 122 OFFCURVE",
"83 27 CURVE",
"102 14 OFFCURVE",
"139 -23 OFFCURVE",
"157 -42 CURVE"
);
},
{
closed = 1;
nodes = (
"684 702 OFFCURVE",
"690 752 OFFCURVE",
"696 773 CURVE",
"586 771 OFFCURVE",
"407 790 OFFCURVE",
"308 815 CURVE",
"305 792 OFFCURVE",
"292 746 OFFCURVE",
"284 727 CURVE",
"377 710 OFFCURVE",
"571 687 OFFCURVE",
"683 684 CURVE"
);
}
);
width = 1000;
},
{
layerId = "001C0F45-7B19-4771-B55F-26ADC6604229";
paths = (
{
closed = 1;
nodes = (
"203 -8 OFFCURVE",
"303 94 OFFCURVE",
"359 149 CURVE",
"406 193 OFFCURVE",
"428 211 OFFCURVE",
"466 220 CURVE SMOOTH",
"518 231 OFFCURVE",
"535 210 OFFCURVE",
"532 150 CURVE SMOOTH",
"531 124 OFFCURVE",
"529 78 OFFCURVE",
"529 42 CURVE SMOOTH",
"529 -21 OFFCURVE",
"553 -44 OFFCURVE",
"632 -49 CURVE SMOOTH",
"701 -54 OFFCURVE",
"844 -53 OFFCURVE",
"924 -46 CURVE",
"924 -18 OFFCURVE",
"930 40 OFFCURVE",
"943 74 CURVE",
"891 66 OFFCURVE",
"737 56 OFFCURVE",
"691 56 CURVE",
"654 57 OFFCURVE",
"645 65 OFFCURVE",
"645 93 CURVE SMOOTH",
"645 114 OFFCURVE",
"646 173 OFFCURVE",
"646 218 CURVE SMOOTH",
"646 307 OFFCURVE",
"590 337 OFFCURVE",
"521 319 CURVE",
"591 391 OFFCURVE",
"693 479 OFFCURVE",
"727 508 CURVE",
"709 526 OFFCURVE",
"682 560 OFFCURVE",
"668 578 CURVE",
"574 566 OFFCURVE",
"275 550 OFFCURVE",
"175 554 CURVE",
"180 520 OFFCURVE",
"186 466 OFFCURVE",
"187 435 CURVE",
"268 443 OFFCURVE",
"444 454 OFFCURVE",
"521 458 CURVE",
"455 389 OFFCURVE",
"190 136 OFFCURVE",
"74 39 CURVE",
"103 19 OFFCURVE",
"142 -23 OFFCURVE",
"170 -51 CURVE"
);
},
{
closed = 1;
nodes = (
"682 696 OFFCURVE",
"689 750 OFFCURVE",
"698 783 CURVE",
"587 780 OFFCURVE",
"407 800 OFFCURVE",
"311 824 CURVE",
"306 790 OFFCURVE",
"292 739 OFFCURVE",
"281 712 CURVE",
"373 694 OFFCURVE",
"569 671 OFFCURVE",
"680 668 CURVE"
);
}
);
width = 1000;
},
{
layerId = "192F6294-2DDB-4A85-B973-E64E677F808A";
paths = (
{
closed = 1;
nodes = (
"214 -16 OFFCURVE",
"309 81 OFFCURVE",
"363 133 CURVE SMOOTH",
"413 181 OFFCURVE",
"434 200 OFFCURVE",
"469 207 CURVE",
"512 217 OFFCURVE",
"524 195 OFFCURVE",
"520 141 CURVE",
"519 113 OFFCURVE",
"517 76 OFFCURVE",
"517 37 CURVE SMOOTH",
"517 -26 OFFCURVE",
"541 -51 OFFCURVE",
"622 -57 CURVE SMOOTH",
"695 -62 OFFCURVE",
"842 -63 OFFCURVE",
"924 -56 CURVE",
"925 -19 OFFCURVE",
"931 46 OFFCURVE",
"948 92 CURVE",
"904 86 OFFCURVE",
"740 72 OFFCURVE",
"700 72 CURVE SMOOTH",
"667 72 OFFCURVE",
"660 79 OFFCURVE",
"660 105 CURVE SMOOTH",
"660 231 LINE SMOOTH",
"660 313 OFFCURVE",
"608 343 OFFCURVE",
"551 332 CURVE",
"617 399 OFFCURVE",
"705 469 OFFCURVE",
"741 499 CURVE",
"718 523 OFFCURVE",
"688 561 OFFCURVE",
"670 586 CURVE",
"571 573 OFFCURVE",
"273 556 OFFCURVE",
"172 562 CURVE",
"179 516 OFFCURVE",
"184 457 OFFCURVE",
"186 416 CURVE",
"264 424 OFFCURVE",
"418 436 OFFCURVE",
"488 438 CURVE",
"436 383 OFFCURVE",
"186 149 OFFCURVE",
"66 51 CURVE",
"104 24 OFFCURVE",
"146 -23 OFFCURVE",
"183 -60 CURVE"
);
},
{
closed = 1;
nodes = (
"680 689 OFFCURVE",
"688 748 OFFCURVE",
"700 792 CURVE",
"589 789 OFFCURVE",
"407 811 OFFCURVE",
"314 833 CURVE",
"307 788 OFFCURVE",
"292 733 OFFCURVE",
"277 696 CURVE",
"368 679 OFFCURVE",
"568 654 OFFCURVE",
"677 652 CURVE"
);
}
);
width = 1000;
}
);
unicode = 3048;
},
{
glyphname = "esmall-hira";
lastChange = "2021-05-14 05:28:04 +0000";
layers = (
{
background = {
paths = (
{
closed = 1;
nodes = (
"658 -61 OFFCURVE",
"761 -58 OFFCURVE",
"817 -53 CURVE",
"817 -46 OFFCURVE",
"823 -3 OFFCURVE",
"826 6 CURVE",
"775 -3 OFFCURVE",
"675 -7 OFFCURVE",
"630 -5 CURVE SMOOTH",
"593 -3 OFFCURVE",
"589 4 OFFCURVE",
"589 28 CURVE SMOOTH",
"589 45 OFFCURVE",
"590 91 OFFCURVE",
"590 116 CURVE SMOOTH",
"590 196 OFFCURVE",
"548 219 OFFCURVE",
"474 189 CURVE",
"533 250 OFFCURVE",
"630 344 OFFCURVE",
"654 364 CURVE",
"649 369 OFFCURVE",
"625 396 OFFCURVE",
"621 401 CURVE",
"559 392 OFFCURVE",
"332 381 OFFCURVE",
"258 382 CURVE",
"260 374 OFFCURVE",
"267 331 OFFCURVE",
"267 324 CURVE",
"328 329 OFFCURVE",
"492 339 OFFCURVE",
"560 344 CURVE",
"488 272 OFFCURVE",
"268 50 OFFCURVE",
"190 -16 CURVE",
"197 -21 OFFCURVE",
"229 -48 OFFCURVE",
"236 -57 CURVE",
"266 -25 OFFCURVE",
"343 59 OFFCURVE",
"383 96 CURVE SMOOTH",
"413 125 OFFCURVE",
"439 142 OFFCURVE",
"472 151 CURVE SMOOTH",
"514 163 OFFCURVE",
"536 154 OFFCURVE",
"535 97 CURVE",
"534 81 OFFCURVE",
"533 30 OFFCURVE",
"533 8 CURVE SMOOTH",
"533 -39 OFFCURVE",
"553 -55 OFFCURVE",
"611 -58 CURVE SMOOTH"
);
},
{
closed = 1;
nodes = (
"641 500 OFFCURVE",
"644 542 OFFCURVE",
"646 550 CURVE",
"565 549 OFFCURVE",
"430 563 OFFCURVE",
"353 582 CURVE",
"352 574 OFFCURVE",
"343 533 OFFCURVE",
"340 526 CURVE",
"410 513 OFFCURVE",
"555 496 OFFCURVE",
"640 493 CURVE"
);
}
);
};
layerId = master01;
paths = (
{
closed = 1;
nodes = (
"658 -61 OFFCURVE",
"761 -58 OFFCURVE",
"817 -53 CURVE",
"817 -46 OFFCURVE",
"823 -3 OFFCURVE",
"826 6 CURVE",
"775 -3 OFFCURVE",
"675 -7 OFFCURVE",
"630 -5 CURVE SMOOTH",
"593 -3 OFFCURVE",
"589 4 OFFCURVE",
"589 28 CURVE SMOOTH",
"589 45 OFFCURVE",
"590 91 OFFCURVE",
"590 116 CURVE SMOOTH",
"590 196 OFFCURVE",
"548 219 OFFCURVE",
"474 189 CURVE",
"533 250 OFFCURVE",
"630 344 OFFCURVE",
"654 364 CURVE",
"649 369 OFFCURVE",
"625 396 OFFCURVE",
"621 401 CURVE",
"559 392 OFFCURVE",
"332 381 OFFCURVE",
"258 382 CURVE",
"260 374 OFFCURVE",
"267 331 OFFCURVE",
"267 324 CURVE",
"328 329 OFFCURVE",
"492 339 OFFCURVE",
"560 344 CURVE",
"488 272 OFFCURVE",
"268 50 OFFCURVE",
"190 -16 CURVE",
"197 -21 OFFCURVE",
"229 -48 OFFCURVE",
"236 -57 CURVE",
"266 -25 OFFCURVE",
"343 59 OFFCURVE",
"383 96 CURVE SMOOTH",
"413 125 OFFCURVE",
"439 142 OFFCURVE",
"472 151 CURVE SMOOTH",
"514 163 OFFCURVE",
"536 154 OFFCURVE",
"535 97 CURVE",
"534 81 OFFCURVE",
"533 30 OFFCURVE",
"533 8 CURVE SMOOTH",
"533 -39 OFFCURVE",
"553 -55 OFFCURVE",
"611 -58 CURVE SMOOTH"
);
},
{
closed = 1;
nodes = (
"641 500 OFFCURVE",
"644 542 OFFCURVE",
"646 550 CURVE",
"565 549 OFFCURVE",
"430 563 OFFCURVE",
"353 582 CURVE",
"352 574 OFFCURVE",
"343 533 OFFCURVE",
"340 526 CURVE",
"410 513 OFFCURVE",
"555 496 OFFCURVE",
"640 493 CURVE"
);
}
);
width = 1000;
},
{
layerId = "E768F6A6-15EB-4D2C-841C-D9E78CD24AB1";
paths = (
{
closed = 1;
nodes = (
"641 505 LINE",
"556 509 OFFCURVE",
"414 524 OFFCURVE",
"344 538 CURVE",
"352 573 LINE",
"431 553 OFFCURVE",
"563 540 OFFCURVE",
"644 541 CURVE"
);
},
{
closed = 1;
nodes = (
"817 -44 LINE",
"762 -49 OFFCURVE",
"665 -53 OFFCURVE",
"621 -51 CURVE SMOOTH",
"564 -48 OFFCURVE",
"544 -33 OFFCURVE",
"544 13 CURVE SMOOTH",
"544 34 OFFCURVE",
"546 89 OFFCURVE",
"546 105 CURVE SMOOTH",
"546 166 OFFCURVE",
"521 175 OFFCURVE",
"469 160 CURVE SMOOTH",
"433 149 OFFCURVE",
"404 132 OFFCURVE",
"376 105 CURVE SMOOTH",
"336 68 OFFCURVE",
"256 -18 OFFCURVE",
"227 -47 CURVE",
"198 -25 LINE",
"275 43 OFFCURVE",
"504 278 OFFCURVE",
"586 360 CURVE",
"514 354 OFFCURVE",
"328 344 OFFCURVE",
"267 339 CURVE",
"261 375 LINE",
"335 374 OFFCURVE",
"560 386 OFFCURVE",
"620 394 CURVE",
"641 372 LINE",
"622 353 OFFCURVE",
"512 244 OFFCURVE",
"449 179 CURVE",
"533 217 OFFCURVE",
"579 192 OFFCURVE",
"579 106 CURVE SMOOTH",
"579 86 OFFCURVE",
"578 36 OFFCURVE",
"578 18 CURVE SMOOTH",
"578 -7 OFFCURVE",
"581 -15 OFFCURVE",
"623 -17 CURVE SMOOTH",
"672 -20 OFFCURVE",
"764 -19 OFFCURVE",
"821 -9 CURVE"
);
}
);
width = 1000;
},
{
background = {
paths = (
{
closed = 1;
nodes = (
"400 93 OFFCURVE",
"475 174 OFFCURVE",
"515 212 CURVE SMOOTH",
"548 244 OFFCURVE",
"571 260 OFFCURVE",
"599 268 CURVE",
"633 276 OFFCURVE",
"650 267 OFFCURVE",
"649 215 CURVE SMOOTH",
"648 197 OFFCURVE",
"647 152 OFFCURVE",
"647 127 CURVE SMOOTH",
"647 80 OFFCURVE",
"667 64 OFFCURVE",
"726 60 CURVE SMOOTH",
"776 57 OFFCURVE",
"884 58 OFFCURVE",
"943 63 CURVE",
"943 78 OFFCURVE",
"950 128 OFFCURVE",
"956 145 CURVE",
"912 138 OFFCURVE",
"803 132 OFFCURVE",
"763 133 CURVE SMOOTH",
"730 134 OFFCURVE",
"725 141 OFFCURVE",
"725 163 CURVE SMOOTH",
"725 180 OFFCURVE",
"726 222 OFFCURVE",
"726 251 CURVE SMOOTH",
"726 325 OFFCURVE",
"687 347 OFFCURVE",
"624 324 CURVE",
"680 381 OFFCURVE",
"764 461 OFFCURVE",
"791 483 CURVE",
"782 492 OFFCURVE",
"754 524 OFFCURVE",
"747 533 CURVE",
"683 522 OFFCURVE",
"454 512 OFFCURVE",
"379 515 CURVE",
"384 498 OFFCURVE",
"392 449 OFFCURVE",
"392 433 CURVE",
"452 439 OFFCURVE",
"596 450 OFFCURVE",
"658 454 CURVE",
"598 390 OFFCURVE",
"386 182 OFFCURVE",
"306 118 CURVE",
"321 108 OFFCURVE",
"356 77 OFFCURVE",
"371 59 CURVE"
);
},
{
closed = 1;
nodes = (
"765 619 OFFCURVE",
"769 668 OFFCURVE",
"774 684 CURVE",
"691 682 OFFCURVE",
"554 699 OFFCURVE",
"480 717 CURVE",
"477 700 OFFCURVE",
"467 654 OFFCURVE",
"461 640 CURVE",
"531 626 OFFCURVE",
"680 608 OFFCURVE",
"764 606 CURVE"
);
}
);
};
layerId = "E5DBD9E3-8A55-410D-8C4B-D00EFB9ED751";
paths = (
{
closed = 1;
nodes = (
"275 -32 OFFCURVE",
"350 49 OFFCURVE",
"390 87 CURVE SMOOTH",
"423 119 OFFCURVE",
"446 135 OFFCURVE",
"474 143 CURVE",
"508 151 OFFCURVE",
"525 142 OFFCURVE",
"524 90 CURVE SMOOTH",
"523 72 OFFCURVE",
"522 27 OFFCURVE",
"522 2 CURVE SMOOTH",
"522 -45 OFFCURVE",
"542 -61 OFFCURVE",
"601 -65 CURVE SMOOTH",
"651 -68 OFFCURVE",
"759 -67 OFFCURVE",
"818 -62 CURVE",
"818 -47 OFFCURVE",
"825 3 OFFCURVE",
"831 20 CURVE",
"787 13 OFFCURVE",
"678 7 OFFCURVE",
"638 8 CURVE SMOOTH",
"605 9 OFFCURVE",
"600 16 OFFCURVE",
"600 38 CURVE SMOOTH",
"600 55 OFFCURVE",
"601 97 OFFCURVE",
"601 126 CURVE SMOOTH",
"601 200 OFFCURVE",
"562 222 OFFCURVE",
"499 199 CURVE",
"555 256 OFFCURVE",
"639 336 OFFCURVE",
"666 358 CURVE",
"657 367 OFFCURVE",
"629 399 OFFCURVE",
"622 408 CURVE",
"558 397 OFFCURVE",
"329 387 OFFCURVE",
"254 390 CURVE",
"259 373 OFFCURVE",
"267 324 OFFCURVE",
"267 308 CURVE",
"327 314 OFFCURVE",
"471 325 OFFCURVE",
"533 329 CURVE",
"473 265 OFFCURVE",
"261 57 OFFCURVE",
"181 -7 CURVE",
"196 -17 OFFCURVE",
"231 -48 OFFCURVE",
"246 -66 CURVE"
);
},
{
closed = 1;
nodes = (
"640 494 OFFCURVE",
"644 543 OFFCURVE",
"649 559 CURVE",
"566 557 OFFCURVE",
"429 574 OFFCURVE",
"355 592 CURVE",
"352 575 OFFCURVE",
"342 529 OFFCURVE",
"336 515 CURVE",
"406 501 OFFCURVE",
"555 483 OFFCURVE",
"639 481 CURVE"
);
}
);
width = 1000;
},
{
layerId = "001C0F45-7B19-4771-B55F-26ADC6604229";
paths = (
{
closed = 1;
nodes = (
"284 -39 OFFCURVE",
"357 40 OFFCURVE",
"397 78 CURVE SMOOTH",
"432 112 OFFCURVE",
"452 129 OFFCURVE",
"477 134 CURVE SMOOTH",
"501 139 OFFCURVE",
"515 130 OFFCURVE",
"513 83 CURVE SMOOTH",
"512 63 OFFCURVE",
"511 24 OFFCURVE",
"511 -3 CURVE SMOOTH",
"511 -51 OFFCURVE",
"531 -68 OFFCURVE",
"592 -72 CURVE SMOOTH",
"643 -76 OFFCURVE",
"758 -76 OFFCURVE",
"818 -70 CURVE",
"818 -49 OFFCURVE",
"828 9 OFFCURVE",
"837 34 CURVE",
"798 28 OFFCURVE",
"680 20 OFFCURVE",
"645 21 CURVE SMOOTH",
"617 22 OFFCURVE",
"612 28 OFFCURVE",
"612 48 CURVE SMOOTH",
"612 64 OFFCURVE",
"612 102 OFFCURVE",
"612 136 CURVE SMOOTH",
"612 204 OFFCURVE",
"577 224 OFFCURVE",
"524 209 CURVE",
"576 263 OFFCURVE",
"647 327 OFFCURVE",
"678 351 CURVE",
"665 365 OFFCURVE",
"633 401 OFFCURVE",
"623 415 CURVE",
"557 403 OFFCURVE",
"326 394 OFFCURVE",
"251 397 CURVE",
"258 373 OFFCURVE",
"267 317 OFFCURVE",
"268 293 CURVE",
"327 299 OFFCURVE",
"450 311 OFFCURVE",
"507 314 CURVE",
"457 259 OFFCURVE",
"254 63 OFFCURVE",
"173 3 CURVE",
"194 -13 OFFCURVE",
"233 -48 OFFCURVE",
"256 -75 CURVE"
);
},
{
closed = 1;
nodes = (
"639 489 OFFCURVE",
"644 544 OFFCURVE",
"651 568 CURVE",
"568 566 OFFCURVE",
"428 584 OFFCURVE",
"356 602 CURVE",
"352 576 OFFCURVE",
"341 524 OFFCURVE",
"333 503 CURVE",
"402 490 OFFCURVE",
"554 470 OFFCURVE",
"638 468 CURVE"
);
}
);
width = 1000;
},
{
background = {
paths = (
{
closed = 1;
nodes = (
"419 79 OFFCURVE",
"489 156 OFFCURVE",
"529 195 CURVE",
"567 230 OFFCURVE",
"583 248 OFFCURVE",
"605 251 CURVE SMOOTH",
"620 253 OFFCURVE",
"630 243 OFFCURVE",
"627 200 CURVE SMOOTH",
"626 180 OFFCURVE",
"624 145 OFFCURVE",
"624 116 CURVE SMOOTH",
"624 69 OFFCURVE",
"645 50 OFFCURVE",
"707 46 CURVE",
"761 41 OFFCURVE",
"882 41 OFFCURVE",
"943 46 CURVE",
"944 74 OFFCURVE",
"955 140 OFFCURVE",
"967 174 CURVE",
"935 169 OFFCURVE",
"808 159 OFFCURVE",
"778 159 CURVE SMOOTH",
"754 159 OFFCURVE",
"748 164 OFFCURVE",
"748 184 CURVE SMOOTH",
"748 271 LINE SMOOTH",
"748 333 OFFCURVE",
"716 352 OFFCURVE",
"674 344 CURVE",
"723 395 OFFCURVE",
"780 444 OFFCURVE",
"816 469 CURVE",
"798 487 OFFCURVE",
"763 529 OFFCURVE",
"749 548 CURVE",
"681 534 OFFCURVE",
"448 526 OFFCURVE",
"372 530 CURVE",
"382 497 OFFCURVE",
"392 435 OFFCURVE",
"393 403 CURVE",
"452 410 OFFCURVE",
"553 422 OFFCURVE",
"606 423 CURVE",
"566 378 OFFCURVE",
"372 195 OFFCURVE",
"289 137 CURVE",
"318 116 OFFCURVE",
"361 77 OFFCURVE",
"390 41 CURVE"
);
},
{
closed = 1;
nodes = (
"763 608 OFFCURVE",
"770 670 OFFCURVE",
"778 702 CURVE",
"695 700 OFFCURVE",
"552 720 OFFCURVE",
"482 736 CURVE",
"477 703 OFFCURVE",
"466 645 OFFCURVE",
"454 617 CURVE",
"523 604 OFFCURVE",
"679 582 OFFCURVE",
"761 581 CURVE"
);
}
);
};
layerId = "192F6294-2DDB-4A85-B973-E64E677F808A";
paths = (
{
closed = 1;
nodes = (
"294 -46 OFFCURVE",
"364 31 OFFCURVE",
"404 70 CURVE",
"442 105 OFFCURVE",
"458 123 OFFCURVE",
"480 126 CURVE SMOOTH",
"495 128 OFFCURVE",
"505 118 OFFCURVE",
"502 75 CURVE SMOOTH",
"501 55 OFFCURVE",
"499 20 OFFCURVE",
"499 -9 CURVE SMOOTH",
"499 -56 OFFCURVE",
"520 -75 OFFCURVE",
"582 -79 CURVE",
"636 -84 OFFCURVE",
"757 -84 OFFCURVE",
"818 -79 CURVE",
"819 -51 OFFCURVE",
"830 15 OFFCURVE",
"842 49 CURVE",
"810 44 OFFCURVE",
"683 34 OFFCURVE",
"653 34 CURVE SMOOTH",
"629 34 OFFCURVE",
"623 39 OFFCURVE",
"623 59 CURVE SMOOTH",
"623 146 LINE SMOOTH",
"623 208 OFFCURVE",
"591 227 OFFCURVE",
"549 219 CURVE",
"598 270 OFFCURVE",
"655 319 OFFCURVE",
"691 344 CURVE",
"673 362 OFFCURVE",
"638 404 OFFCURVE",
"624 423 CURVE",
"556 409 OFFCURVE",
"323 401 OFFCURVE",
"247 405 CURVE",
"257 372 OFFCURVE",
"267 310 OFFCURVE",
"268 278 CURVE",
"327 285 OFFCURVE",
"428 297 OFFCURVE",
"481 298 CURVE",
"441 253 OFFCURVE",
"247 70 OFFCURVE",
"164 12 CURVE",
"193 -9 OFFCURVE",
"236 -48 OFFCURVE",
"265 -84 CURVE"
);
},
{
closed = 1;
nodes = (
"638 483 OFFCURVE",
"645 545 OFFCURVE",
"653 577 CURVE",
"570 575 OFFCURVE",
"427 595 OFFCURVE",
"357 611 CURVE",
"352 578 OFFCURVE",
"341 520 OFFCURVE",
"329 492 CURVE",
"398 479 OFFCURVE",
"554 457 OFFCURVE",
"636 456 CURVE"
);
}
);
width = 1000;
}
);
unicode = 3047;
},
{
glyphname = "o-hira";
lastChange = "2021-05-14 05:13:03 +0000";
layers = (
{
layerId = master01;
paths = (
{
closed = 1;
nodes = (
"354 -24 OFFCURVE",
"395 -13 OFFCURVE",
"408 -11 CURVE",
"405 12 OFFCURVE",
"403 197 OFFCURVE",
"402 283 CURVE",
"490 317 OFFCURVE",
"583 341 OFFCURVE",
"668 341 CURVE SMOOTH",
"776 341 OFFCURVE",
"854 291 OFFCURVE",
"854 199 CURVE SMOOTH",
"854 102 OFFCURVE",
"778 60 OFFCURVE",
"699 60 CURVE SMOOTH",
"625 60 OFFCURVE",
"571 106 OFFCURVE",
"553 188 CURVE",
"544 181 OFFCURVE",
"507 165 OFFCURVE",
"495 159 CURVE",
"524 51 OFFCURVE",
"604 -4 OFFCURVE",
"699 -4 CURVE SMOOTH",
"826 -4 OFFCURVE",
"919 69 OFFCURVE",
"919 198 CURVE SMOOTH",
"919 319 OFFCURVE",
"821 400 OFFCURVE",
"669 400 CURVE SMOOTH",
"584 400 OFFCURVE",
"491 376 OFFCURVE",
"402 343 CURVE",
"402 401 OFFCURVE",
"403 480 OFFCURVE",
"403 555 CURVE",
"473 564 OFFCURVE",
"538 573 OFFCURVE",
"587 583 CURVE",
"586 591 OFFCURVE",
"583 636 OFFCURVE",
"583 645 CURVE",
"538 633 OFFCURVE",
"474 623 OFFCURVE",
"404 614 CURVE",
"404 712 OFFCURVE",
"405 793 OFFCURVE",
"406 800 CURVE",
"397 800 OFFCURVE",
"353 800 OFFCURVE",
"340 802 CURVE",
"342 792 OFFCURVE",
"342 702 OFFCURVE",
"342 667 CURVE SMOOTH",
"342 608 LINE",
"256 599 OFFCURVE",
"170 594 OFFCURVE",
"108 595 CURVE",
"110 586 OFFCURVE",
"115 541 OFFCURVE",
"115 530 CURVE",
"179 533 OFFCURVE",
"261 540 OFFCURVE",
"342 549 CURVE",
"342 319 LINE",
"274 290 OFFCURVE",
"209 257 OFFCURVE",
"155 229 CURVE SMOOTH",
"118 209 OFFCURVE",
"85 194 OFFCURVE",
"57 181 CURVE",
"64 172 OFFCURVE",
"90 131 OFFCURVE",
"94 121 CURVE",
"104 127 OFFCURVE",
"115 133 OFFCURVE",
"125 140 CURVE",
"206 119 OFFCURVE",
"303 53 OFFCURVE",
"344 -28 CURVE"
);
},
{
closed = 1;
nodes = (
"299 111 OFFCURVE",
"239 153 OFFCURVE",
"176 171 CURVE",
"224 200 OFFCURVE",
"281 230 OFFCURVE",
"342 258 CURVE",
"342 60 LINE"
);
},
{
closed = 1;
nodes = (
"888 481 OFFCURVE",
"911 513 OFFCURVE",
"919 521 CURVE",
"852 569 OFFCURVE",
"756 618 OFFCURVE",
"674 648 CURVE",
"670 640 OFFCURVE",
"651 606 OFFCURVE",
"644 597 CURVE",
"721 570 OFFCURVE",
"821 517 OFFCURVE",
"884 472 CURVE"
);
}
);
width = 1000;
},
{
layerId = "E768F6A6-15EB-4D2C-841C-D9E78CD24AB1";
paths = (
{
closed = 1;
nodes = (
"889 480 LINE",
"828 524 OFFCURVE",
"731 575 OFFCURVE",
"657 603 CURVE",
"674 634 LINE",
"753 603 OFFCURVE",
"846 555 OFFCURVE",
"910 509 CURVE"
);
},
{
closed = 1;
nodes = (
"912 75 OFFCURVE",
"821 2 OFFCURVE",
"698 2 CURVE SMOOTH",
"607 2 OFFCURVE",
"529 58 OFFCURVE",
"500 162 CURVE",
"533 177 LINE",
"553 90 OFFCURVE",
"618 37 OFFCURVE",
"698 37 CURVE SMOOTH",
"789 37 OFFCURVE",
"877 83 OFFCURVE",
"877 194 CURVE SMOOTH",
"877 298 OFFCURVE",
"791 352 OFFCURVE",
"673 352 CURVE SMOOTH",
"585 352 OFFCURVE",
"484 324 OFFCURVE",
"387 285 CURVE",
"387 -14 LINE",
"355 -23 LINE",
"308 61 OFFCURVE",
"208 129 OFFCURVE",
"122 153 CURVE",
"89 133 LINE",
"66 166 LINE",
"86 176 OFFCURVE",
"117 191 OFFCURVE",
"147 207 CURVE SMOOTH",
"204 238 OFFCURVE",
"276 275 OFFCURVE",
"352 307 CURVE",
"352 565 LINE",
"267 556 OFFCURVE",
"180 549 OFFCURVE",
"113 546 CURVE",
"110 585 LINE",
"174 583 OFFCURVE",
"264 589 OFFCURVE",
"352 599 CURVE",
"352 662 LINE",
"352 798 LINE",
"387 798 LINE",
"387 603 LINE",
"463 612 OFFCURVE",
"535 624 OFFCURVE",
"584 636 CURVE",
"587 599 LINE",
"535 588 OFFCURVE",
"463 578 OFFCURVE",
"387 569 CURVE",
"387 322 LINE",
"483 359 OFFCURVE",
"584 387 OFFCURVE",
"673 387 CURVE SMOOTH",
"823 387 OFFCURVE",
"912 307 OFFCURVE",
"912 194 CURVE SMOOTH"
);
},
{
closed = 1;
nodes = (
"352 271 LINE",
"280 240 OFFCURVE",
"212 205 OFFCURVE",
"158 174 CURVE",
"232 149 OFFCURVE",
"302 101 OFFCURVE",
"352 38 CURVE"
);
}
);
width = 1000;
},
{
layerId = "E5DBD9E3-8A55-410D-8C4B-D00EFB9ED751";
paths = (
{
closed = 1;
nodes = (
"353 -26 OFFCURVE",
"402 -12 OFFCURVE",
"429 -9 CURVE",
"422 40 OFFCURVE",
"419 153 OFFCURVE",
"417 280 CURVE",
"497 310 OFFCURVE",
"581 330 OFFCURVE",
"663 330 CURVE SMOOTH",
"761 330 OFFCURVE",
"831 284 OFFCURVE",
"831 205 CURVE SMOOTH",
"831 121 OFFCURVE",
"768 82 OFFCURVE",
"699 82 CURVE SMOOTH",
"631 82 OFFCURVE",
"590 122 OFFCURVE",
"572 200 CURVE",
"554 186 OFFCURVE",
"515 168 OFFCURVE",
"490 155 CURVE",
"519 43 OFFCURVE",
"600 -10 OFFCURVE",
"699 -10 CURVE SMOOTH",
"831 -10 OFFCURVE",
"926 64 OFFCURVE",
"926 202 CURVE SMOOTH",
"926 332 OFFCURVE",
"819 412 OFFCURVE",
"665 412 CURVE SMOOTH",
"585 412 OFFCURVE",
"500 392 OFFCURVE",
"417 363 CURVE",
"417 429 OFFCURVE",
"418 489 OFFCURVE",
"418 542 CURVE",
"482 550 OFFCURVE",
"542 559 OFFCURVE",
"587 567 CURVE",
"585 583 OFFCURVE",
"583 635 OFFCURVE",
"583 653 CURVE",
"542 643 OFFCURVE",
"483 634 OFFCURVE",
"419 626 CURVE",
"421 723 OFFCURVE",
"423 786 OFFCURVE",
"425 803 CURVE",
"407 803 OFFCURVE",
"354 803 OFFCURVE",
"329 806 CURVE",
"331 787 OFFCURVE",
"332 742 OFFCURVE",
"332 672 CURVE SMOOTH",
"332 617 LINE",
"249 609 OFFCURVE",
"165 605 OFFCURVE",
"106 605 CURVE",
"110 587 OFFCURVE",
"116 535 OFFCURVE",
"117 515 CURVE",
"178 518 OFFCURVE",
"256 524 OFFCURVE",
"332 532 CURVE",
"332 331 LINE",
"271 305 OFFCURVE",
"214 276 OFFCURVE",
"164 250 CURVE SMOOTH",
"119 228 OFFCURVE",
"84 212 OFFCURVE",
"48 197 CURVE",
"61 178 OFFCURVE",
"91 129 OFFCURVE",
"100 108 CURVE",
"109 114 OFFCURVE",
"119 120 OFFCURVE",
"129 127 CURVE",
"203 110 OFFCURVE",
"297 44 OFFCURVE",
"333 -34 CURVE"
);
},
{
closed = 1;
nodes = (
"296 121 OFFCURVE",
"246 157 OFFCURVE",
"195 168 CURVE",
"235 194 OFFCURVE",
"282 220 OFFCURVE",
"332 244 CURVE",
"332 81 LINE"
);
},
{
closed = 1;
nodes = (
"886 481 OFFCURVE",
"912 518 OFFCURVE",
"927 534 CURVE",
"859 584 OFFCURVE",
"758 634 OFFCURVE",
"675 662 CURVE",
"667 646 OFFCURVE",
"646 609 OFFCURVE",
"632 592 CURVE",
"711 564 OFFCURVE",
"814 509 OFFCURVE",
"878 464 CURVE"
);
}
);
width = 1000;
},
{
layerId = "001C0F45-7B19-4771-B55F-26ADC6604229";
paths = (
{
closed = 1;
nodes = (
"352 -27 OFFCURVE",
"412 -10 OFFCURVE",
"448 -6 CURVE",
"440 47 OFFCURVE",
"435 156 OFFCURVE",
"433 278 CURVE",
"504 302 OFFCURVE",
"580 318 OFFCURVE",
"658 318 CURVE SMOOTH",
"747 318 OFFCURVE",
"807 277 OFFCURVE",
"807 210 CURVE SMOOTH",
"807 140 OFFCURVE",
"758 105 OFFCURVE",
"700 105 CURVE SMOOTH",
"638 105 OFFCURVE",
"605 139 OFFCURVE",
"588 212 CURVE",
"561 191 OFFCURVE",
"517 167 OFFCURVE",
"488 153 CURVE",
"515 43 OFFCURVE",
"598 -15 OFFCURVE",
"700 -15 CURVE SMOOTH",
"837 -15 OFFCURVE",
"933 58 OFFCURVE",
"933 206 CURVE SMOOTH",
"933 344 OFFCURVE",
"817 425 OFFCURVE",
"661 425 CURVE SMOOTH",
"586 425 OFFCURVE",
"508 408 OFFCURVE",
"432 384 CURVE",
"433 435 OFFCURVE",
"433 484 OFFCURVE",
"434 529 CURVE",
"492 536 OFFCURVE",
"546 544 OFFCURVE",
"587 551 CURVE",
"584 575 OFFCURVE",
"582 635 OFFCURVE",
"582 661 CURVE",
"545 653 OFFCURVE",
"494 645 OFFCURVE",
"436 638 CURVE",
"438 722 OFFCURVE",
"441 782 OFFCURVE",
"444 806 CURVE",
"417 805 OFFCURVE",
"354 806 OFFCURVE",
"317 811 CURVE",
"320 785 OFFCURVE",
"322 727 OFFCURVE",
"322 677 CURVE SMOOTH",
"322 626 LINE",
"241 619 OFFCURVE",
"161 615 OFFCURVE",
"104 616 CURVE",
"111 588 OFFCURVE",
"117 530 OFFCURVE",
"119 499 CURVE",
"177 502 OFFCURVE",
"250 508 OFFCURVE",
"322 516 CURVE",
"323 343 LINE",
"269 320 OFFCURVE",
"218 295 OFFCURVE",
"172 272 CURVE SMOOTH",
"120 246 OFFCURVE",
"84 230 OFFCURVE",
"38 213 CURVE",
"59 185 OFFCURVE",
"92 127 OFFCURVE",
"105 96 CURVE",
"113 101 OFFCURVE",
"123 107 OFFCURVE",
"132 114 CURVE",
"201 94 OFFCURVE",
"291 36 OFFCURVE",
"323 -39 CURVE"
);
},
{
closed = 1;
nodes = (
"294 130 OFFCURVE",
"254 158 OFFCURVE",
"214 167 CURVE",
"247 189 OFFCURVE",
"284 211 OFFCURVE",
"323 231 CURVE",
"323 167 OFFCURVE",
"324 117 OFFCURVE",
"324 101 CURVE"
);
},
{
closed = 1;
nodes = (
"884 481 OFFCURVE",
"914 522 OFFCURVE",
"936 547 CURVE",
"865 599 OFFCURVE",
"761 650 OFFCURVE",
"676 676 CURVE",
"664 652 OFFCURVE",
"641 612 OFFCURVE",
"620 586 CURVE",
"701 559 OFFCURVE",
"807 502 OFFCURVE",
"872 456 CURVE"
);
}
);
width = 1000;
},
{
layerId = "192F6294-2DDB-4A85-B973-E64E677F808A";
paths = (
{
closed = 1;
nodes = (
"352 -28 OFFCURVE",
"422 -8 OFFCURVE",
"468 -3 CURVE",
"458 53 OFFCURVE",
"451 158 OFFCURVE",
"449 273 CURVE",
"512 294 OFFCURVE",
"581 307 OFFCURVE",
"653 307 CURVE SMOOTH",
"732 307 OFFCURVE",
"784 270 OFFCURVE",
"784 215 CURVE SMOOTH",
"784 159 OFFCURVE",
"747 128 OFFCURVE",
"701 128 CURVE SMOOTH",
"645 128 OFFCURVE",
"620 158 OFFCURVE",
"604 223 CURVE",
"568 196 OFFCURVE",
"518 166 OFFCURVE",
"486 150 CURVE",
"511 43 OFFCURVE",
"596 -21 OFFCURVE",
"700 -21 CURVE SMOOTH",
"842 -21 OFFCURVE",
"940 53 OFFCURVE",
"940 209 CURVE SMOOTH",
"940 357 OFFCURVE",
"815 438 OFFCURVE",
"657 438 CURVE SMOOTH",
"587 438 OFFCURVE",
"516 424 OFFCURVE",
"448 404 CURVE",
"448 442 OFFCURVE",
"449 480 OFFCURVE",
"449 516 CURVE",
"502 523 OFFCURVE",
"550 529 OFFCURVE",
"587 536 CURVE",
"583 567 OFFCURVE",
"581 635 OFFCURVE",
"581 670 CURVE",
"549 663 OFFCURVE",
"504 656 OFFCURVE",
"453 650 CURVE",
"456 723 OFFCURVE",
"460 781 OFFCURVE",
"464 809 CURVE",
"426 808 OFFCURVE",
"355 809 OFFCURVE",
"305 815 CURVE",
"309 784 OFFCURVE",
"311 713 OFFCURVE",
"311 682 CURVE SMOOTH",
"311 636 LINE",
"234 630 OFFCURVE",
"157 626 OFFCURVE",
"102 626 CURVE",
"111 589 OFFCURVE",
"119 525 OFFCURVE",
"121 484 CURVE",
"177 487 OFFCURVE",
"244 493 OFFCURVE",
"312 500 CURVE",
"312 453 OFFCURVE",
"313 403 OFFCURVE",
"313 355 CURVE",
"267 335 OFFCURVE",
"222 314 OFFCURVE",
"180 294 CURVE SMOOTH",
"121 265 OFFCURVE",
"83 248 OFFCURVE",
"29 229 CURVE",
"57 191 OFFCURVE",
"93 125 OFFCURVE",
"111 84 CURVE",
"117 88 OFFCURVE",
"127 94 OFFCURVE",
"136 101 CURVE",
"199 79 OFFCURVE",
"286 28 OFFCURVE",
"312 -44 CURVE"
);
},
{
closed = 1;
nodes = (
"293 138 OFFCURVE",
"252 151 OFFCURVE",
"224 157 CURVE",
"251 177 OFFCURVE",
"282 196 OFFCURVE",
"315 214 CURVE",
"315 172 OFFCURVE",
"316 139 OFFCURVE",
"316 122 CURVE"
);
},
{
closed = 1;
nodes = (
"882 482 OFFCURVE",
"915 527 OFFCURVE",
"944 559 CURVE",
"872 613 OFFCURVE",
"764 665 OFFCURVE",
"677 690 CURVE",
"661 659 OFFCURVE",
"635 615 OFFCURVE",
"608 581 CURVE",
"691 554 OFFCURVE",
"800 495 OFFCURVE",
"866 449 CURVE"
);
}
);
width = 1000;
}
);
unicode = 304A;
},
{
glyphname = "osmall-hira";
lastChange = "2021-05-14 05:28:09 +0000";
layers = (
{
background = {
paths = (
{
closed = 1;
nodes = (
"390 -53 OFFCURVE",
"427 -43 OFFCURVE",
"436 -40 CURVE",
"433 -29 OFFCURVE",
"432 67 OFFCURVE",
"431 180 CURVE",
"496 205 OFFCURVE",
"565 223 OFFCURVE",
"628 223 CURVE SMOOTH",
"713 223 OFFCURVE",
"765 183 OFFCURVE",
"765 119 CURVE SMOOTH",
"765 47 OFFCURVE",
"713 17 OFFCURVE",
"653 17 CURVE SMOOTH",
"601 17 OFFCURVE",
"556 53 OFFCURVE",
"544 114 CURVE",
"537 108 OFFCURVE",
"503 94 OFFCURVE",
"495 91 CURVE",
"516 9 OFFCURVE",
"580 -39 OFFCURVE",
"652 -39 CURVE SMOOTH",
"751 -39 OFFCURVE",
"822 15 OFFCURVE",
"822 117 CURVE SMOOTH",
"822 211 OFFCURVE",
"745 273 OFFCURVE",
"629 273 CURVE SMOOTH",
"566 273 OFFCURVE",
"497 255 OFFCURVE",
"431 231 CURVE",
"431 283 OFFCURVE",
"431 337 OFFCURVE",
"431 386 CURVE",
"484 392 OFFCURVE",
"533 400 OFFCURVE",
"569 407 CURVE",
"569 413 OFFCURVE",
"567 453 OFFCURVE",
"567 459 CURVE",
"533 451 OFFCURVE",
"484 443 OFFCURVE",
"431 437 CURVE",
"432 511 OFFCURVE",
"432 565 OFFCURVE",
"433 571 CURVE",
"426 571 OFFCURVE",
"387 571 OFFCURVE",
"378 572 CURVE",
"379 566 OFFCURVE",
"379 476 OFFCURVE",
"379 471 CURVE SMOOTH",
"379 431 LINE",
"315 425 OFFCURVE",
"252 421 OFFCURVE",
"207 422 CURVE",
"209 415 OFFCURVE",
"212 375 OFFCURVE",
"212 367 CURVE",
"259 369 OFFCURVE",
"319 374 OFFCURVE",
"379 380 CURVE",
"380 210 LINE",
"329 189 OFFCURVE",
"282 165 OFFCURVE",
"243 144 CURVE SMOOTH",
"215 130 OFFCURVE",
"185 117 OFFCURVE",
"164 107 CURVE",
"170 99 OFFCURVE",
"195 66 OFFCURVE",
"198 58 CURVE",
"205 63 OFFCURVE",
"212 67 OFFCURVE",
"220 72 CURVE",
"274 57 OFFCURVE",
"351 3 OFFCURVE",
"383 -56 CURVE"
);
},
{
closed = 1;
nodes = (
"350 52 OFFCURVE",
"307 81 OFFCURVE",
"261 97 CURVE",
"297 118 OFFCURVE",
"337 139 OFFCURVE",
"380 159 CURVE",
"380 83 OFFCURVE",
"380 22 OFFCURVE",
"380 17 CURVE"
);
},
{
closed = 1;
nodes = (
"792 330 OFFCURVE",
"814 359 OFFCURVE",
"819 365 CURVE",
"770 401 OFFCURVE",
"697 437 OFFCURVE",
"636 459 CURVE",
"633 454 OFFCURVE",
"615 423 OFFCURVE",
"610 417 CURVE",
"667 396 OFFCURVE",
"742 357 OFFCURVE",
"789 323 CURVE"
);
}
);
};
layerId = master01;
paths = (
{
closed = 1;
nodes = (
"390 -53 OFFCURVE",
"427 -43 OFFCURVE",
"436 -40 CURVE",
"433 -29 OFFCURVE",
"432 67 OFFCURVE",
"431 180 CURVE",
"496 205 OFFCURVE",
"565 223 OFFCURVE",
"628 223 CURVE SMOOTH",
"713 223 OFFCURVE",
"765 183 OFFCURVE",
"765 119 CURVE SMOOTH",
"765 47 OFFCURVE",
"713 17 OFFCURVE",
"653 17 CURVE SMOOTH",
"601 17 OFFCURVE",
"556 53 OFFCURVE",
"544 114 CURVE",
"537 108 OFFCURVE",
"503 94 OFFCURVE",
"495 91 CURVE",
"516 9 OFFCURVE",
"580 -39 OFFCURVE",
"652 -39 CURVE SMOOTH",
"751 -39 OFFCURVE",
"822 15 OFFCURVE",
"822 117 CURVE SMOOTH",
"822 211 OFFCURVE",
"745 273 OFFCURVE",
"629 273 CURVE SMOOTH",
"566 273 OFFCURVE",
"497 255 OFFCURVE",
"431 231 CURVE",
"431 283 OFFCURVE",
"431 337 OFFCURVE",
"431 386 CURVE",
"484 392 OFFCURVE",
"533 400 OFFCURVE",
"569 407 CURVE",
"569 413 OFFCURVE",
"567 453 OFFCURVE",
"567 459 CURVE",
"533 451 OFFCURVE",
"484 443 OFFCURVE",
"431 437 CURVE",
"432 511 OFFCURVE",
"432 565 OFFCURVE",
"433 571 CURVE",
"426 571 OFFCURVE",
"387 571 OFFCURVE",
"378 572 CURVE",
"379 566 OFFCURVE",
"379 476 OFFCURVE",
"379 471 CURVE SMOOTH",
"379 431 LINE",
"315 425 OFFCURVE",
"252 421 OFFCURVE",
"207 422 CURVE",
"209 415 OFFCURVE",
"212 375 OFFCURVE",
"212 367 CURVE",
"259 369 OFFCURVE",
"319 374 OFFCURVE",
"379 380 CURVE",
"380 210 LINE",
"329 189 OFFCURVE",
"282 165 OFFCURVE",
"243 144 CURVE SMOOTH",
"215 130 OFFCURVE",
"185 117 OFFCURVE",
"164 107 CURVE",
"170 99 OFFCURVE",
"195 66 OFFCURVE",
"198 58 CURVE",
"205 63 OFFCURVE",
"212 67 OFFCURVE",
"220 72 CURVE",
"274 57 OFFCURVE",
"351 3 OFFCURVE",
"383 -56 CURVE"
);
},
{
closed = 1;
nodes = (
"350 52 OFFCURVE",
"307 81 OFFCURVE",
"261 97 CURVE",
"297 118 OFFCURVE",
"337 139 OFFCURVE",
"380 159 CURVE",
"380 83 OFFCURVE",
"380 22 OFFCURVE",
"380 17 CURVE"
);
},
{
closed = 1;
nodes = (
"792 330 OFFCURVE",
"814 359 OFFCURVE",
"819 365 CURVE",
"770 401 OFFCURVE",
"697 437 OFFCURVE",
"636 459 CURVE",
"633 454 OFFCURVE",
"615 423 OFFCURVE",
"610 417 CURVE",
"667 396 OFFCURVE",
"742 357 OFFCURVE",
"789 323 CURVE"
);
}
);
width = 1000;
},
{
layerId = "E768F6A6-15EB-4D2C-841C-D9E78CD24AB1";
paths = (
{
closed = 1;
nodes = (
"790 330 LINE",
"745 363 OFFCURVE",
"672 401 OFFCURVE",
"616 422 CURVE",
"632 447 LINE",
"691 424 OFFCURVE",
"761 388 OFFCURVE",
"809 353 CURVE"
);
},
{
closed = 1;
nodes = (
"811 21 OFFCURVE",
"745 -32 OFFCURVE",
"649 -32 CURVE SMOOTH",
"581 -32 OFFCURVE",
"517 13 OFFCURVE",
"495 92 CURVE",
"525 103 LINE",
"539 38 OFFCURVE",
"593 -1 OFFCURVE",
"649 -1 CURVE SMOOTH",
"716 -1 OFFCURVE",
"780 32 OFFCURVE",
"780 116 CURVE SMOOTH",
"780 189 OFFCURVE",
"723 232 OFFCURVE",
"629 232 CURVE SMOOTH",
"563 232 OFFCURVE",
"488 211 OFFCURVE",
"416 183 CURVE",
"416 -41 LINE",
"388 -47 LINE",
"355 12 OFFCURVE",
"276 67 OFFCURVE",
"217 84 CURVE",
"193 70 LINE",
"173 96 LINE",
"188 103 OFFCURVE",
"213 115 OFFCURVE",
"236 127 CURVE SMOOTH",
"277 150 OFFCURVE",
"330 177 OFFCURVE",
"386 201 CURVE",
"386 392 LINE",
"323 385 OFFCURVE",
"259 380 OFFCURVE",
"210 378 CURVE",
"208 412 LINE",
"254 411 OFFCURVE",
"321 415 OFFCURVE",
"386 422 CURVE",
"386 469 LINE",
"386 568 LINE",
"416 568 LINE",
"416 425 LINE",
"472 432 OFFCURVE",
"526 441 OFFCURVE",
"563 450 CURVE",
"565 418 LINE",
"526 409 OFFCURVE",
"472 401 OFFCURVE",
"416 395 CURVE",
"416 213 LINE",
"487 241 OFFCURVE",
"563 262 OFFCURVE",
"629 262 CURVE SMOOTH",
"742 262 OFFCURVE",
"811 205 OFFCURVE",
"811 116 CURVE SMOOTH"
);
},
{
closed = 1;
nodes = (
"386 170 LINE",
"336 149 OFFCURVE",
"288 124 OFFCURVE",
"247 102 CURVE",
"300 83 OFFCURVE",
"351 46 OFFCURVE",
"386 3 CURVE"
);
}
);
width = 1000;
},
{
background = {
paths = (
{
closed = 1;
nodes = (
"518 66 OFFCURVE",
"564 80 OFFCURVE",
"581 85 CURVE",
"576 107 OFFCURVE",
"573 198 OFFCURVE",
"572 303 CURVE",
"630 324 OFFCURVE",
"692 338 OFFCURVE",
"752 338 CURVE SMOOTH",
"828 338 OFFCURVE",
"876 303 OFFCURVE",
"876 247 CURVE SMOOTH",
"876 187 OFFCURVE",
"834 159 OFFCURVE",
"783 159 CURVE SMOOTH",
"734 159 OFFCURVE",
"697 193 OFFCURVE",
"688 250 CURVE",
"675 239 OFFCURVE",
"635 222 OFFCURVE",
"620 215 CURVE",
"641 129 OFFCURVE",
"704 79 OFFCURVE",
"781 79 CURVE SMOOTH",
"882 79 OFFCURVE",
"957 133 OFFCURVE",
"957 243 CURVE SMOOTH",
"957 343 OFFCURVE",
"874 408 OFFCURVE",
"753 408 CURVE SMOOTH",
"695 408 OFFCURVE",
"632 394 OFFCURVE",
"571 373 CURVE",
"571 417 OFFCURVE",
"571 461 OFFCURVE",
"571 503 CURVE",
"620 508 OFFCURVE",
"665 515 OFFCURVE",
"699 521 CURVE",
"697 533 OFFCURVE",
"695 580 OFFCURVE",
"695 593 CURVE",
"665 586 OFFCURVE",
"621 579 OFFCURVE",
"572 573 CURVE",
"573 639 OFFCURVE",
"574 688 OFFCURVE",
"576 699 CURVE",
"562 699 OFFCURVE",
"514 699 OFFCURVE",
"495 701 CURVE",
"496 689 OFFCURVE",
"497 608 OFFCURVE",
"497 597 CURVE SMOOTH",
"497 565 LINE",
"435 560 OFFCURVE",
"374 557 OFFCURVE",
"331 557 CURVE",
"335 543 OFFCURVE",
"339 497 OFFCURVE",
"340 482 CURVE",
"384 484 OFFCURVE",
"440 489 OFFCURVE",
"498 494 CURVE",
"498 345 LINE",
"454 326 OFFCURVE",
"412 306 OFFCURVE",
"376 287 CURVE SMOOTH",
"343 270 OFFCURVE",
"308 255 OFFCURVE",
"280 244 CURVE",
"293 228 OFFCURVE",
"321 187 OFFCURVE",
"328 171 CURVE",
"334 176 OFFCURVE",
"340 179 OFFCURVE",
"347 184 CURVE",
"398 172 OFFCURVE",
"472 119 OFFCURVE",
"503 60 CURVE"
);
},
{
closed = 1;
nodes = (
"474 183 OFFCURVE",
"439 205 OFFCURVE",
"401 218 CURVE",
"430 237 OFFCURVE",
"464 255 OFFCURVE",
"499 272 CURVE",
"499 212 OFFCURVE",
"500 165 OFFCURVE",
"500 155 CURVE"
);
},
{
closed = 1;
nodes = (
"919 454 OFFCURVE",
"944 489 OFFCURVE",
"955 501 CURVE",
"903 539 OFFCURVE",
"828 576 OFFCURVE",
"766 597 CURVE",
"760 585 OFFCURVE",
"739 550 OFFCURVE",
"728 537 CURVE",
"788 517 OFFCURVE",
"865 475 OFFCURVE",
"913 442 CURVE"
);
}
);
};
layerId = "E5DBD9E3-8A55-410D-8C4B-D00EFB9ED751";
paths = (
{
closed = 1;
nodes = (
"393 -59 OFFCURVE",
"439 -45 OFFCURVE",
"456 -40 CURVE",
"451 -18 OFFCURVE",
"448 73 OFFCURVE",
"447 178 CURVE",
"505 199 OFFCURVE",
"567 213 OFFCURVE",
"627 213 CURVE SMOOTH",
"703 213 OFFCURVE",
"751 178 OFFCURVE",
"751 122 CURVE SMOOTH",
"751 62 OFFCURVE",
"709 34 OFFCURVE",
"658 34 CURVE SMOOTH",
"609 34 OFFCURVE",
"572 68 OFFCURVE",
"563 125 CURVE",
"550 114 OFFCURVE",
"510 97 OFFCURVE",
"495 90 CURVE",
"516 4 OFFCURVE",
"579 -46 OFFCURVE",
"656 -46 CURVE SMOOTH",
"757 -46 OFFCURVE",
"832 8 OFFCURVE",
"832 118 CURVE SMOOTH",
"832 218 OFFCURVE",
"749 283 OFFCURVE",
"628 283 CURVE SMOOTH",
"570 283 OFFCURVE",
"507 269 OFFCURVE",
"446 248 CURVE",
"446 292 OFFCURVE",
"446 336 OFFCURVE",
"446 378 CURVE",
"495 383 OFFCURVE",
"540 390 OFFCURVE",
"574 396 CURVE",
"572 408 OFFCURVE",
"570 455 OFFCURVE",
"570 468 CURVE",
"540 461 OFFCURVE",
"496 454 OFFCURVE",
"447 448 CURVE",
"448 514 OFFCURVE",
"449 563 OFFCURVE",
"451 574 CURVE",
"437 574 OFFCURVE",
"389 574 OFFCURVE",
"370 576 CURVE",
"371 564 OFFCURVE",
"372 483 OFFCURVE",
"372 472 CURVE SMOOTH",
"372 440 LINE",
"310 435 OFFCURVE",
"249 432 OFFCURVE",
"206 432 CURVE",
"210 418 OFFCURVE",
"214 372 OFFCURVE",
"215 357 CURVE",
"259 359 OFFCURVE",
"315 364 OFFCURVE",
"373 369 CURVE",
"373 220 LINE",
"329 201 OFFCURVE",
"287 181 OFFCURVE",
"251 162 CURVE SMOOTH",
"218 145 OFFCURVE",
"183 130 OFFCURVE",
"155 119 CURVE",
"168 103 OFFCURVE",
"196 62 OFFCURVE",
"203 46 CURVE",
"209 51 OFFCURVE",
"215 54 OFFCURVE",
"222 59 CURVE",
"273 47 OFFCURVE",
"347 -6 OFFCURVE",
"378 -65 CURVE"
);
},
{
closed = 1;
nodes = (
"349 58 OFFCURVE",
"314 80 OFFCURVE",
"276 93 CURVE",
"305 112 OFFCURVE",
"339 130 OFFCURVE",
"374 147 CURVE",
"374 87 OFFCURVE",
"375 40 OFFCURVE",
"375 30 CURVE"
);
},
{
closed = 1;
nodes = (
"794 329 OFFCURVE",
"818 364 OFFCURVE",
"830 376 CURVE",
"778 414 OFFCURVE",
"703 451 OFFCURVE",
"641 472 CURVE",
"635 460 OFFCURVE",
"614 425 OFFCURVE",
"603 412 CURVE",
"663 392 OFFCURVE",
"740 350 OFFCURVE",
"787 317 CURVE"
);
}
);
width = 1000;
},
{
layerId = "001C0F45-7B19-4771-B55F-26ADC6604229";
paths = (
{
closed = 1;
nodes = (
"396 -65 OFFCURVE",
"450 -47 OFFCURVE",
"476 -39 CURVE",
"469 -8 OFFCURVE",
"465 77 OFFCURVE",
"463 175 CURVE",
"515 192 OFFCURVE",
"570 203 OFFCURVE",
"626 203 CURVE SMOOTH",
"694 203 OFFCURVE",
"737 172 OFFCURVE",
"737 125 CURVE SMOOTH",
"737 77 OFFCURVE",
"706 52 OFFCURVE",
"663 52 CURVE SMOOTH",
"617 52 OFFCURVE",
"588 84 OFFCURVE",
"582 136 CURVE",
"562 120 OFFCURVE",
"518 99 OFFCURVE",
"495 90 CURVE",
"515 -1 OFFCURVE",
"578 -52 OFFCURVE",
"660 -52 CURVE SMOOTH",
"764 -52 OFFCURVE",
"843 1 OFFCURVE",
"843 119 CURVE SMOOTH",
"843 224 OFFCURVE",
"752 294 OFFCURVE",
"628 294 CURVE SMOOTH",
"574 294 OFFCURVE",
"517 282 OFFCURVE",
"462 265 CURVE",
"462 300 OFFCURVE",
"462 335 OFFCURVE",
"462 369 CURVE",
"506 374 OFFCURVE",
"547 380 OFFCURVE",
"578 386 CURVE",
"576 403 OFFCURVE",
"574 457 OFFCURVE",
"574 477 CURVE",
"547 471 OFFCURVE",
"507 465 OFFCURVE",
"463 459 CURVE",
"464 517 OFFCURVE",
"466 561 OFFCURVE",
"468 577 CURVE",
"447 576 OFFCURVE",
"390 577 OFFCURVE",
"362 580 CURVE",
"364 563 OFFCURVE",
"365 491 OFFCURVE",
"365 473 CURVE SMOOTH",
"365 450 LINE",
"305 445 OFFCURVE",
"247 442 OFFCURVE",
"206 443 CURVE",
"211 422 OFFCURVE",
"216 370 OFFCURVE",
"217 346 CURVE",
"259 349 OFFCURVE",
"312 353 OFFCURVE",
"366 358 CURVE",
"367 230 LINE",
"329 214 OFFCURVE",
"292 196 OFFCURVE",
"259 179 CURVE SMOOTH",
"220 160 OFFCURVE",
"180 143 OFFCURVE",
"146 130 CURVE",
"166 106 OFFCURVE",
"197 58 OFFCURVE",
"207 34 CURVE",
"213 38 OFFCURVE",
"218 41 OFFCURVE",
"225 46 CURVE",
"271 37 OFFCURVE",
"343 -15 OFFCURVE",
"374 -74 CURVE"
);
},
{
closed = 1;
nodes = (
"348 64 OFFCURVE",
"321 78 OFFCURVE",
"290 89 CURVE",
"314 105 OFFCURVE",
"340 120 OFFCURVE",
"368 135 CURVE",
"369 90 OFFCURVE",
"369 56 OFFCURVE",
"370 44 CURVE"
);
},
{
closed = 1;
nodes = (
"795 329 OFFCURVE",
"823 369 OFFCURVE",
"840 388 CURVE",
"787 427 OFFCURVE",
"709 465 OFFCURVE",
"645 485 CURVE",
"636 467 OFFCURVE",
"613 426 OFFCURVE",
"597 407 CURVE",
"658 387 OFFCURVE",
"738 344 OFFCURVE",
"786 310 CURVE"
);
}
);
width = 1000;
},
{
background = {
paths = (
{
closed = 1;
nodes = (
"524 54 OFFCURVE",
"587 75 OFFCURVE",
"621 86 CURVE",
"612 127 OFFCURVE",
"607 207 OFFCURVE",
"604 297 CURVE",
"649 310 OFFCURVE",
"698 319 OFFCURVE",
"750 319 CURVE SMOOTH",
"809 319 OFFCURVE",
"848 292 OFFCURVE",
"848 253 CURVE SMOOTH",
"848 217 OFFCURVE",
"827 194 OFFCURVE",
"792 194 CURVE SMOOTH",
"751 194 OFFCURVE",
"730 224 OFFCURVE",
"726 272 CURVE",
"700 252 OFFCURVE",
"651 227 OFFCURVE",
"621 214 CURVE",
"639 119 OFFCURVE",
"702 66 OFFCURVE",
"788 66 CURVE SMOOTH",
"895 66 OFFCURVE",
"978 119 OFFCURVE",
"978 245 CURVE SMOOTH",
"978 356 OFFCURVE",
"880 430 OFFCURVE",
"753 430 CURVE SMOOTH",
"703 430 OFFCURVE",
"652 421 OFFCURVE",
"602 407 CURVE",
"602 433 OFFCURVE",
"602 460 OFFCURVE",
"602 485 CURVE",
"643 490 OFFCURVE",
"679 496 OFFCURVE",
"707 500 CURVE",
"704 524 OFFCURVE",
"703 585 OFFCURVE",
"702 611 CURVE",
"679 605 OFFCURVE",
"644 600 OFFCURVE",
"604 596 CURVE",
"606 646 OFFCURVE",
"608 686 OFFCURVE",
"611 705 CURVE",
"583 704 OFFCURVE",
"516 705 OFFCURVE",
"479 710 CURVE",
"482 686 OFFCURVE",
"483 623 OFFCURVE",
"484 600 CURVE",
"484 585 LINE",
"425 580 OFFCURVE",
"369 578 OFFCURVE",
"330 578 CURVE",
"337 550 OFFCURVE",
"342 492 OFFCURVE",
"344 461 CURVE",
"384 463 OFFCURVE",
"434 467 OFFCURVE",
"485 472 CURVE",
"486 365 LINE",
"453 351 OFFCURVE",
"421 337 OFFCURVE",
"392 322 CURVE SMOOTH",
"348 301 OFFCURVE",
"302 281 OFFCURVE",
"262 267 CURVE",
"289 235 OFFCURVE",
"323 179 OFFCURVE",
"337 148 CURVE",
"341 151 OFFCURVE",
"345 154 OFFCURVE",
"352 159 CURVE",
"395 152 OFFCURVE",
"464 101 OFFCURVE",
"494 42 CURVE"
);
},
{
closed = 1;
nodes = (
"472 195 OFFCURVE",
"453 202 OFFCURVE",
"430 210 CURVE",
"448 223 OFFCURVE",
"467 235 OFFCURVE",
"488 247 CURVE",
"488 218 OFFCURVE",
"489 195 OFFCURVE",
"489 183 CURVE"
);
},
{
closed = 1;
nodes = (
"922 453 OFFCURVE",
"953 500 OFFCURVE",
"975 524 CURVE",
"921 565 OFFCURVE",
"839 604 OFFCURVE",
"774 622 CURVE",
"762 599 OFFCURVE",
"737 553 OFFCURVE",
"716 528 CURVE",
"778 507 OFFCURVE",
"860 463 OFFCURVE",
"910 428 CURVE"
);
}
);
};
layerId = "192F6294-2DDB-4A85-B973-E64E677F808A";
paths = (
{
closed = 1;
nodes = (
"399 -71 OFFCURVE",
"462 -50 OFFCURVE",
"496 -39 CURVE",
"487 2 OFFCURVE",
"482 82 OFFCURVE",
"479 172 CURVE",
"524 185 OFFCURVE",
"573 194 OFFCURVE",
"625 194 CURVE SMOOTH",
"684 194 OFFCURVE",
"723 167 OFFCURVE",
"723 128 CURVE SMOOTH",
"723 92 OFFCURVE",
"702 69 OFFCURVE",
"667 69 CURVE SMOOTH",
"626 69 OFFCURVE",
"605 99 OFFCURVE",
"601 147 CURVE",
"575 127 OFFCURVE",
"526 102 OFFCURVE",
"496 89 CURVE",
"514 -6 OFFCURVE",
"577 -59 OFFCURVE",
"663 -59 CURVE SMOOTH",
"770 -59 OFFCURVE",
"853 -6 OFFCURVE",
"853 120 CURVE SMOOTH",
"853 231 OFFCURVE",
"755 305 OFFCURVE",
"628 305 CURVE SMOOTH",
"578 305 OFFCURVE",
"527 296 OFFCURVE",
"477 282 CURVE",
"477 308 OFFCURVE",
"477 335 OFFCURVE",
"477 360 CURVE",
"518 365 OFFCURVE",
"554 371 OFFCURVE",
"582 375 CURVE",
"579 399 OFFCURVE",
"578 460 OFFCURVE",
"577 486 CURVE",
"554 480 OFFCURVE",
"519 475 OFFCURVE",
"479 471 CURVE",
"481 521 OFFCURVE",
"483 561 OFFCURVE",
"486 580 CURVE",
"458 579 OFFCURVE",
"391 580 OFFCURVE",
"354 585 CURVE",
"357 561 OFFCURVE",
"358 498 OFFCURVE",
"359 475 CURVE",
"359 460 LINE",
"300 455 OFFCURVE",
"244 453 OFFCURVE",
"205 453 CURVE",
"212 425 OFFCURVE",
"217 367 OFFCURVE",
"219 336 CURVE",
"259 338 OFFCURVE",
"309 342 OFFCURVE",
"360 347 CURVE",
"361 240 LINE",
"328 226 OFFCURVE",
"296 212 OFFCURVE",
"267 197 CURVE SMOOTH",
"223 176 OFFCURVE",
"177 156 OFFCURVE",
"137 142 CURVE",
"164 110 OFFCURVE",
"198 54 OFFCURVE",
"212 23 CURVE",
"216 26 OFFCURVE",
"220 29 OFFCURVE",
"227 34 CURVE",
"270 27 OFFCURVE",
"339 -24 OFFCURVE",
"369 -83 CURVE"
);
},
{
closed = 1;
nodes = (
"347 70 OFFCURVE",
"328 77 OFFCURVE",
"305 85 CURVE",
"323 98 OFFCURVE",
"342 110 OFFCURVE",
"363 122 CURVE",
"363 93 OFFCURVE",
"364 70 OFFCURVE",
"364 58 CURVE"
);
},
{
closed = 1;
nodes = (
"797 328 OFFCURVE",
"828 375 OFFCURVE",
"850 399 CURVE",
"796 440 OFFCURVE",
"714 479 OFFCURVE",
"649 497 CURVE",
"637 474 OFFCURVE",
"612 428 OFFCURVE",
"591 403 CURVE",
"653 382 OFFCURVE",
"735 338 OFFCURVE",
"785 303 CURVE"
);
}
);
width = 1000;
}
);
unicode = 3049;
},
{
glyphname = "ka-hira";
lastChange = "2021-05-14 05:13:03 +0000";
layers = (
{
layerId = master01;
paths = (
{
closed = 1;
nodes = (
"250 91 OFFCURVE",
"316 318 OFFCURVE",
"367 522 CURVE",
"397 524 OFFCURVE",
"423 525 OFFCURVE",
"442 525 CURVE SMOOTH",
"515 525 OFFCURVE",
"547 497 OFFCURVE",
"548 423 CURVE SMOOTH",
"549 347 OFFCURVE",
"538 241 OFFCURVE",
"526 167 CURVE SMOOTH",
"508 53 OFFCURVE",
"475 34 OFFCURVE",
"347 40 CURVE",
"354 30 OFFCURVE",
"365 -12 OFFCURVE",
"368 -23 CURVE",
"508 -21 OFFCURVE",
"563 9 OFFCURVE",
"585 147 CURVE SMOOTH",
"597 219 OFFCURVE",
"610 338 OFFCURVE",
"608 433 CURVE SMOOTH",
"606 540 OFFCURVE",
"551 584 OFFCURVE",
"443 584 CURVE SMOOTH",
"426 584 OFFCURVE",
"405 583 OFFCURVE",
"382 582 CURVE",
"401 662 OFFCURVE",
"417 735 OFFCURVE",
"430 798 CURVE",
"412 800 OFFCURVE",
"386 806 OFFCURVE",
"367 810 CURVE",
"356 744 OFFCURVE",
"340 664 OFFCURVE",
"320 579 CURVE",
"240 575 OFFCURVE",
"150 568 OFFCURVE",
"87 565 CURVE",
"88 554 OFFCURVE",
"91 508 OFFCURVE",
"92 500 CURVE",
"152 507 OFFCURVE",
"233 514 OFFCURVE",
"305 519 CURVE",
"257 323 OFFCURVE",
"191 108 OFFCURVE",
"131 -33 CURVE",
"140 -34 OFFCURVE",
"187 -49 OFFCURVE",
"194 -52 CURVE"
);
},
{
closed = 1;
nodes = (
"893 265 OFFCURVE",
"932 283 OFFCURVE",
"944 287 CURVE",
"906 390 OFFCURVE",
"842 500 OFFCURVE",
"764 591 CURVE",
"755 585 OFFCURVE",
"719 566 OFFCURVE",
"709 562 CURVE",
"779 481 OFFCURVE",
"847 364 OFFCURVE",
"883 259 CURVE"
);
}
);
width = 1000;
},
{
layerId = "E768F6A6-15EB-4D2C-841C-D9E78CD24AB1";
paths = (
{
closed = 1;
nodes = (
"895 265 LINE",
"861 367 OFFCURVE",
"791 488 OFFCURVE",
"720 566 CURVE",
"754 584 LINE",
"831 490 OFFCURVE",
"892 383 OFFCURVE",
"931 281 CURVE"
);
},
{
closed = 1;
nodes = (
"598 342 OFFCURVE",
"586 230 OFFCURVE",
"574 154 CURVE SMOOTH",
"551 12 OFFCURVE",
"499 -15 OFFCURVE",
"362 -14 CURVE",
"354 25 LINE",
"482 15 OFFCURVE",
"520 36 OFFCURVE",
"539 160 CURVE SMOOTH",
"551 233 OFFCURVE",
"563 345 OFFCURVE",
"561 429 CURVE SMOOTH",
"560 507 OFFCURVE",
"522 539 OFFCURVE",
"446 539 CURVE SMOOTH",
"424 539 OFFCURVE",
"394 538 OFFCURVE",
"359 536 CURVE",
"307 329 OFFCURVE",
"240 98 OFFCURVE",
"182 -48 CURVE",
"144 -37 LINE",
"204 103 OFFCURVE",
"272 330 OFFCURVE",
"322 534 CURVE",
"247 529 OFFCURVE",
"159 522 OFFCURVE",
"92 515 CURVE",
"88 553 LINE",
"156 556 OFFCURVE",
"251 564 OFFCURVE",
"331 569 CURVE",
"352 657 OFFCURVE",
"369 740 OFFCURVE",
"381 808 CURVE",
"418 801 LINE",
"405 735 OFFCURVE",
"388 655 OFFCURVE",
"367 571 CURVE",
"399 573 OFFCURVE",
"427 574 OFFCURVE",
"447 574 CURVE SMOOTH",
"542 574 OFFCURVE",
"595 530 OFFCURVE",
"597 430 CURVE SMOOTH"
);
}
);
width = 1000;
},
{
layerId = "E5DBD9E3-8A55-410D-8C4B-D00EFB9ED751";
paths = (
{
closed = 1;
nodes = (
"260 84 OFFCURVE",
"324 307 OFFCURVE",
"376 509 CURVE",
"401 511 OFFCURVE",
"422 511 OFFCURVE",
"438 511 CURVE SMOOTH",
"508 511 OFFCURVE",
"535 487 OFFCURVE",
"535 418 CURVE SMOOTH",
"535 349 OFFCURVE",
"524 249 OFFCURVE",
"513 175 CURVE SMOOTH",
"497 69 OFFCURVE",
"467 52 OFFCURVE",
"341 56 CURVE",
"355 35 OFFCURVE",
"368 -11 OFFCURVE",
"373 -32 CURVE",
"517 -26 OFFCURVE",
"574 5 OFFCURVE",
"596 139 CURVE SMOOTH",
"608 208 OFFCURVE",
"621 335 OFFCURVE",
"619 436 CURVE SMOOTH",
"617 550 OFFCURVE",
"561 595 OFFCURVE",
"438 594 CURVE",
"426 594 OFFCURVE",
"412 594 OFFCURVE",
"397 594 CURVE",
"415 668 OFFCURVE",
"431 738 OFFCURVE",
"443 796 CURVE",
"415 799 OFFCURVE",
"379 803 OFFCURVE",
"353 811 CURVE",
"343 748 OFFCURVE",
"328 672 OFFCURVE",
"309 590 CURVE",
"230 586 OFFCURVE",
"144 580 OFFCURVE",
"85 576 CURVE",
"87 556 OFFCURVE",
"91 502 OFFCURVE",
"92 485 CURVE",
"145 491 OFFCURVE",
"220 498 OFFCURVE",
"288 504 CURVE",
"241 316 OFFCURVE",
"179 113 OFFCURVE",
"118 -28 CURVE",
"135 -31 OFFCURVE",
"192 -50 OFFCURVE",
"206 -55 CURVE"
);
},
{
closed = 1;
nodes = (
"891 265 OFFCURVE",
"933 286 OFFCURVE",
"956 294 CURVE",
"920 397 OFFCURVE",
"853 509 OFFCURVE",
"775 599 CURVE",
"756 586 OFFCURVE",
"718 566 OFFCURVE",
"697 557 CURVE",
"767 475 OFFCURVE",
"833 361 OFFCURVE",
"870 252 CURVE"
);
}
);
width = 1000;
},
{
layerId = "001C0F45-7B19-4771-B55F-26ADC6604229";
paths = (
{
closed = 1;
nodes = (
"270 77 OFFCURVE",
"332 296 OFFCURVE",
"384 496 CURVE",
"404 497 OFFCURVE",
"421 498 OFFCURVE",
"434 498 CURVE SMOOTH",
"500 498 OFFCURVE",
"522 477 OFFCURVE",
"522 412 CURVE",
"521 352 OFFCURVE",
"510 257 OFFCURVE",
"500 182 CURVE SMOOTH",
"486 85 OFFCURVE",
"459 71 OFFCURVE",
"334 71 CURVE",
"355 41 OFFCURVE",
"371 -9 OFFCURVE",
"378 -41 CURVE",
"526 -31 OFFCURVE",
"585 2 OFFCURVE",
"607 132 CURVE",
"619 197 OFFCURVE",
"633 332 OFFCURVE",
"630 439 CURVE",
"628 559 OFFCURVE",
"570 605 OFFCURVE",
"433 605 CURVE SMOOTH",
"426 605 OFFCURVE",
"418 604 OFFCURVE",
"411 604 CURVE",
"428 675 OFFCURVE",
"443 740 OFFCURVE",
"454 795 CURVE",
"423 797 OFFCURVE",
"367 807 OFFCURVE",
"339 813 CURVE",
"330 752 OFFCURVE",
"316 679 OFFCURVE",
"298 600 CURVE",
"220 597 OFFCURVE",
"138 591 OFFCURVE",
"83 588 CURVE",
"87 557 OFFCURVE",
"91 496 OFFCURVE",
"92 471 CURVE",
"139 476 OFFCURVE",
"207 483 OFFCURVE",
"271 488 CURVE",
"226 309 OFFCURVE",
"166 118 OFFCURVE",
"105 -24 CURVE",
"131 -28 OFFCURVE",
"197 -51 OFFCURVE",
"219 -59 CURVE"
);
},
{
closed = 1;
nodes = (
"888 265 OFFCURVE",
"934 288 OFFCURVE",
"969 301 CURVE",
"933 404 OFFCURVE",
"863 518 OFFCURVE",
"785 606 CURVE",
"757 588 OFFCURVE",
"717 566 OFFCURVE",
"686 553 CURVE",
"754 468 OFFCURVE",
"819 358 OFFCURVE",
"857 246 CURVE"
);
}
);
width = 1000;
},
{
layerId = "192F6294-2DDB-4A85-B973-E64E677F808A";
paths = (
{
closed = 1;
nodes = (
"280 70 OFFCURVE",
"341 285 OFFCURVE",
"392 483 CURVE",
"407 484 OFFCURVE",
"420 484 OFFCURVE",
"430 484 CURVE SMOOTH",
"493 484 OFFCURVE",
"510 467 OFFCURVE",
"508 406 CURVE SMOOTH",
"507 354 OFFCURVE",
"497 265 OFFCURVE",
"487 190 CURVE SMOOTH",
"475 101 OFFCURVE",
"452 90 OFFCURVE",
"327 87 CURVE",
"355 46 OFFCURVE",
"374 -7 OFFCURVE",
"384 -50 CURVE",
"536 -37 OFFCURVE",
"596 -1 OFFCURVE",
"618 125 CURVE SMOOTH",
"629 186 OFFCURVE",
"644 328 OFFCURVE",
"642 442 CURVE SMOOTH",
"639 569 OFFCURVE",
"580 616 OFFCURVE",
"429 615 CURVE",
"426 615 LINE",
"442 681 OFFCURVE",
"456 742 OFFCURVE",
"467 794 CURVE",
"425 797 OFFCURVE",
"363 806 OFFCURVE",
"325 815 CURVE",
"317 756 OFFCURVE",
"304 686 OFFCURVE",
"288 611 CURVE",
"210 608 OFFCURVE",
"133 603 OFFCURVE",
"81 600 CURVE",
"86 559 OFFCURVE",
"91 490 OFFCURVE",
"92 456 CURVE",
"134 461 OFFCURVE",
"195 467 OFFCURVE",
"254 473 CURVE",
"211 303 OFFCURVE",
"153 122 OFFCURVE",
"93 -19 CURVE",
"127 -25 OFFCURVE",
"203 -51 OFFCURVE",
"231 -62 CURVE"
);
},
{
closed = 1;
nodes = (
"886 265 OFFCURVE",
"935 291 OFFCURVE",
"982 308 CURVE",
"947 412 OFFCURVE",
"875 528 OFFCURVE",
"796 614 CURVE",
"759 590 OFFCURVE",
"716 566 OFFCURVE",
"675 549 CURVE",
"742 462 OFFCURVE",
"805 356 OFFCURVE",
"845 240 CURVE"
);
}
);
width = 1000;
}
);
unicode = 304B;
},
{
glyphname = "ga-hira";
lastChange = "2021-05-14 05:13:03 +0000";
layers = (
{
layerId = master01;
paths = (
{
closed = 1;
nodes = (
"250 89 OFFCURVE",
"316 316 OFFCURVE",
"367 521 CURVE",
"397 522 OFFCURVE",
"423 523 OFFCURVE",
"442 523 CURVE SMOOTH",
"515 523 OFFCURVE",
"547 495 OFFCURVE",
"548 422 CURVE SMOOTH",
"549 345 OFFCURVE",
"538 239 OFFCURVE",
"526 165 CURVE SMOOTH",
"508 51 OFFCURVE",
"475 32 OFFCURVE",
"347 39 CURVE",
"354 28 OFFCURVE",
"365 -14 OFFCURVE",
"368 -24 CURVE",
"508 -22 OFFCURVE",
"563 7 OFFCURVE",
"585 145 CURVE SMOOTH",
"597 218 OFFCURVE",
"610 337 OFFCURVE",
"608 431 CURVE SMOOTH",
"606 538 OFFCURVE",
"551 583 OFFCURVE",
"443 583 CURVE SMOOTH",
"426 583 OFFCURVE",
"405 582 OFFCURVE",
"382 581 CURVE",
"401 660 OFFCURVE",
"417 734 OFFCURVE",
"430 796 CURVE",
"412 799 OFFCURVE",
"386 804 OFFCURVE",
"367 808 CURVE",
"356 742 OFFCURVE",
"340 663 OFFCURVE",
"320 578 CURVE",
"240 573 OFFCURVE",
"150 566 OFFCURVE",
"87 563 CURVE",
"88 553 OFFCURVE",
"91 507 OFFCURVE",
"92 498 CURVE",
"152 505 OFFCURVE",
"233 512 OFFCURVE",
"305 517 CURVE",
"257 321 OFFCURVE",
"191 107 OFFCURVE",
"131 -34 CURVE",
"140 -36 OFFCURVE",
"187 -51 OFFCURVE",
"194 -53 CURVE"
);
},
{
closed = 1;
nodes = (
"893 263 OFFCURVE",
"932 281 OFFCURVE",
"944 286 CURVE",
"906 388 OFFCURVE",
"842 498 OFFCURVE",
"764 589 CURVE",
"755 583 OFFCURVE",
"719 564 OFFCURVE",
"709 560 CURVE",
"779 480 OFFCURVE",
"847 362 OFFCURVE",
"883 257 CURVE"
);
},
{
closed = 1;
nodes = (
"910 626 LINE",
"888 647 OFFCURVE",
"819 722 OFFCURVE",
"799 745 CURVE",
"764 715 LINE",
"784 695 OFFCURVE",
"856 618 OFFCURVE",
"875 596 CURVE"
);
},
{
closed = 1;
nodes = (
"990 696 LINE",
"968 717 OFFCURVE",
"899 792 OFFCURVE",
"879 815 CURVE",
"844 785 LINE",
"864 765 OFFCURVE",
"936 688 OFFCURVE",
"955 665 CURVE"
);
}
);
width = 1000;
},
{
layerId = "E768F6A6-15EB-4D2C-841C-D9E78CD24AB1";
paths = (
{
closed = 1;
nodes = (
"954 666 LINE",
"928 696 OFFCURVE",
"870 757 OFFCURVE",
"843 784 CURVE",
"870 808 LINE",
"897 777 OFFCURVE",
"952 718 OFFCURVE",
"981 690 CURVE"
);
},
{
closed = 1;
nodes = (
"877 600 LINE",
"852 630 OFFCURVE",
"793 691 OFFCURVE",
"767 718 CURVE",
"794 742 LINE",
"821 711 OFFCURVE",
"876 652 OFFCURVE",
"905 624 CURVE"
);
},
{
closed = 1;
nodes = (
"895 265 LINE",
"861 367 OFFCURVE",
"791 488 OFFCURVE",
"720 566 CURVE",
"754 584 LINE",
"831 490 OFFCURVE",
"892 383 OFFCURVE",
"931 281 CURVE"
);
},
{
closed = 1;
nodes = (
"598 342 OFFCURVE",
"586 230 OFFCURVE",
"574 154 CURVE SMOOTH",
"551 12 OFFCURVE",
"499 -15 OFFCURVE",
"362 -14 CURVE",
"354 25 LINE",
"482 15 OFFCURVE",
"520 36 OFFCURVE",
"539 160 CURVE SMOOTH",
"551 233 OFFCURVE",
"563 345 OFFCURVE",
"561 429 CURVE SMOOTH",
"560 507 OFFCURVE",
"522 539 OFFCURVE",
"446 539 CURVE SMOOTH",
"424 539 OFFCURVE",
"394 538 OFFCURVE",
"359 536 CURVE",
"307 329 OFFCURVE",
"240 98 OFFCURVE",
"182 -48 CURVE",
"144 -37 LINE",
"204 103 OFFCURVE",
"272 330 OFFCURVE",
"322 534 CURVE",
"247 529 OFFCURVE",
"159 522 OFFCURVE",
"92 515 CURVE",
"88 553 LINE",
"156 556 OFFCURVE",
"251 564 OFFCURVE",
"331 569 CURVE",
"352 657 OFFCURVE",
"369 740 OFFCURVE",
"381 808 CURVE",
"418 801 LINE",
"405 735 OFFCURVE",
"388 655 OFFCURVE",
"367 571 CURVE",
"399 573 OFFCURVE",
"427 574 OFFCURVE",
"447 574 CURVE SMOOTH",
"542 574 OFFCURVE",
"595 530 OFFCURVE",
"597 430 CURVE SMOOTH"
);
}
);
width = 1000;
},
{
layerId = "E5DBD9E3-8A55-410D-8C4B-D00EFB9ED751";
paths = (
{
closed = 1;
nodes = (
"258 82 OFFCURVE",
"323 305 OFFCURVE",
"374 508 CURVE",
"399 509 OFFCURVE",
"421 510 OFFCURVE",
"436 510 CURVE SMOOTH",
"506 510 OFFCURVE",
"533 485 OFFCURVE",
"533 416 CURVE SMOOTH",
"533 348 OFFCURVE",
"522 247 OFFCURVE",
"511 173 CURVE SMOOTH",
"496 67 OFFCURVE",
"465 51 OFFCURVE",
"339 54 CURVE",
"353 34 OFFCURVE",
"367 -12 OFFCURVE",
"371 -33 CURVE",
"516 -28 OFFCURVE",
"572 4 OFFCURVE",
"595 138 CURVE SMOOTH",
"606 206 OFFCURVE",
"620 334 OFFCURVE",
"618 434 CURVE SMOOTH",
"615 548 OFFCURVE",
"559 593 OFFCURVE",
"437 593 CURVE SMOOTH",
"424 593 OFFCURVE",
"410 592 OFFCURVE",
"395 592 CURVE",
"413 667 OFFCURVE",
"429 736 OFFCURVE",
"441 795 CURVE",
"414 798 OFFCURVE",
"378 802 OFFCURVE",
"351 810 CURVE",
"342 746 OFFCURVE",
"327 670 OFFCURVE",
"308 588 CURVE",
"229 584 OFFCURVE",
"142 578 OFFCURVE",
"83 575 CURVE",
"86 554 OFFCURVE",
"90 501 OFFCURVE",
"90 484 CURVE",
"144 490 OFFCURVE",
"218 497 OFFCURVE",
"287 502 CURVE",
"240 315 OFFCURVE",
"177 112 OFFCURVE",
"117 -30 CURVE",
"134 -33 OFFCURVE",
"191 -51 OFFCURVE",
"205 -57 CURVE"
);
},
{
closed = 1;
nodes = (
"889 263 OFFCURVE",
"931 284 OFFCURVE",
"955 293 CURVE",
"918 395 OFFCURVE",
"851 507 OFFCURVE",
"773 597 CURVE",
"755 585 OFFCURVE",
"717 564 OFFCURVE",
"696 556 CURVE",
"765 473 OFFCURVE",
"831 360 OFFCURVE",
"869 251 CURVE"
);
},
{
closed = 1;
nodes = (
"915 629 LINE",
"901 643 OFFCURVE",
"817 734 OFFCURVE",
"804 749 CURVE",
"762 712 LINE",
"775 699 OFFCURVE",
"860 607 OFFCURVE",
"873 592 CURVE"
);
},
{
closed = 1;
nodes = (
"999 702 LINE",
"984 716 OFFCURVE",
"901 807 OFFCURVE",
"888 822 CURVE",
"846 785 LINE",
"859 772 OFFCURVE",
"944 680 OFFCURVE",
"957 665 CURVE"
);
}
);
width = 1000;
},
{
layerId = "001C0F45-7B19-4771-B55F-26ADC6604229";
paths = (
{
closed = 1;
nodes = (
"268 75 OFFCURVE",
"331 294 OFFCURVE",
"382 494 CURVE",
"402 495 OFFCURVE",
"419 496 OFFCURVE",
"432 496 CURVE SMOOTH",
"499 496 OFFCURVE",
"521 475 OFFCURVE",
"520 410 CURVE SMOOTH",
"519 350 OFFCURVE",
"509 255 OFFCURVE",
"498 181 CURVE SMOOTH",
"484 83 OFFCURVE",
"458 69 OFFCURVE",
"332 70 CURVE",
"353 39 OFFCURVE",
"369 -11 OFFCURVE",
"377 -42 CURVE",
"525 -33 OFFCURVE",
"583 0 OFFCURVE",
"606 130 CURVE SMOOTH",
"617 195 OFFCURVE",
"631 330 OFFCURVE",
"629 437 CURVE SMOOTH",
"626 558 OFFCURVE",
"569 604 OFFCURVE",
"432 603 CURVE",
"425 603 OFFCURVE",
"417 603 OFFCURVE",
"409 603 CURVE",
"426 673 OFFCURVE",
"441 738 OFFCURVE",
"453 793 CURVE",
"421 796 OFFCURVE",
"366 805 OFFCURVE",
"337 811 CURVE",
"329 750 OFFCURVE",
"315 677 OFFCURVE",
"297 599 CURVE",
"219 595 OFFCURVE",
"137 590 OFFCURVE",
"81 587 CURVE",
"85 556 OFFCURVE",
"90 495 OFFCURVE",
"90 469 CURVE",
"138 475 OFFCURVE",
"205 481 OFFCURVE",
"270 487 CURVE",
"224 308 OFFCURVE",
"164 116 OFFCURVE",
"104 -26 CURVE",
"130 -30 OFFCURVE",
"196 -52 OFFCURVE",
"217 -60 CURVE"
);
},
{
closed = 1;
nodes = (
"887 264 OFFCURVE",
"932 287 OFFCURVE",
"968 299 CURVE",
"932 403 OFFCURVE",
"862 517 OFFCURVE",
"784 605 CURVE",
"756 586 OFFCURVE",
"716 564 OFFCURVE",
"684 552 CURVE",
"753 466 OFFCURVE",
"817 357 OFFCURVE",
"856 244 CURVE"
);
},
{
closed = 1;
nodes = (
"920 631 LINE",
"913 638 OFFCURVE",
"816 745 OFFCURVE",
"809 753 CURVE",
"759 710 LINE",
"766 703 OFFCURVE",
"864 595 OFFCURVE",
"871 588 CURVE"
);
},
{
closed = 1;
nodes = (
"1007 708 LINE",
"1000 715 OFFCURVE",
"903 822 OFFCURVE",
"896 829 CURVE",
"847 786 LINE",
"854 780 OFFCURVE",
"952 672 OFFCURVE",
"958 664 CURVE"
);
}
);
width = 1000;
},
{
layerId = "192F6294-2DDB-4A85-B973-E64E677F808A";
paths = (
{
closed = 1;
nodes = (
"278 68 OFFCURVE",
"340 283 OFFCURVE",
"391 481 CURVE",
"406 482 OFFCURVE",
"419 483 OFFCURVE",
"428 483 CURVE SMOOTH",
"492 483 OFFCURVE",
"509 465 OFFCURVE",
"507 405 CURVE SMOOTH",
"506 353 OFFCURVE",
"495 264 OFFCURVE",
"485 189 CURVE SMOOTH",
"473 100 OFFCURVE",
"450 88 OFFCURVE",
"326 85 CURVE",
"354 45 OFFCURVE",
"373 -9 OFFCURVE",
"382 -51 CURVE",
"534 -38 OFFCURVE",
"594 -3 OFFCURVE",
"617 123 CURVE SMOOTH",
"628 184 OFFCURVE",
"643 327 OFFCURVE",
"640 440 CURVE SMOOTH",
"637 568 OFFCURVE",
"579 615 OFFCURVE",
"427 613 CURVE",
"424 613 LINE",
"440 679 OFFCURVE",
"454 741 OFFCURVE",
"466 792 CURVE",
"424 795 OFFCURVE",
"361 805 OFFCURVE",
"323 813 CURVE",
"316 754 OFFCURVE",
"303 685 OFFCURVE",
"286 610 CURVE",
"209 606 OFFCURVE",
"131 602 OFFCURVE",
"79 598 CURVE",
"85 558 OFFCURVE",
"90 489 OFFCURVE",
"90 455 CURVE",
"132 460 OFFCURVE",
"193 466 OFFCURVE",
"253 471 CURVE",
"209 301 OFFCURVE",
"151 120 OFFCURVE",
"91 -21 CURVE",
"125 -27 OFFCURVE",
"201 -53 OFFCURVE",
"230 -64 CURVE"
);
},
{
closed = 1;
nodes = (
"884 264 OFFCURVE",
"933 289 OFFCURVE",
"981 306 CURVE",
"946 410 OFFCURVE",
"873 526 OFFCURVE",
"794 612 CURVE",
"757 588 OFFCURVE",
"715 565 OFFCURVE",
"673 548 CURVE",
"741 460 OFFCURVE",
"804 354 OFFCURVE",
"843 238 CURVE"
);
},
{
closed = 1;
nodes = (
"925 643 LINE",
"814 766 LINE",
"757 716 LINE",
"868 593 LINE"
);
},
{
closed = 1;
nodes = (
"1017 723 LINE",
"905 846 LINE",
"848 796 LINE",
"960 673 LINE"
);
}
);
width = 1000;
}
);
unicode = 304C;
},
{
glyphname = "ki-hira";
lastChange = "2021-05-14 05:13:03 +0000";
layers = (
{
layerId = master01;
paths = (
{
closed = 1;
nodes = (
"617 -51 OFFCURVE",
"628 -4 OFFCURVE",
"633 6 CURVE",
"392 -6 OFFCURVE",
"267 63 OFFCURVE",
"284 183 CURVE SMOOTH",
"300 294 OFFCURVE",
"498 320 OFFCURVE",
"696 220 CURVE",
"700 227 OFFCURVE",
"725 263 OFFCURVE",
"731 268 CURVE",
"668 306 OFFCURVE",
"621 378 OFFCURVE",
"589 463 CURVE",
"696 475 OFFCURVE",
"797 490 OFFCURVE",
"868 502 CURVE",
"866 509 OFFCURVE",
"856 552 OFFCURVE",
"856 561 CURVE",
"788 547 OFFCURVE",
"683 531 OFFCURVE",
"570 518 CURVE",
"558 560 OFFCURVE",
"548 603 OFFCURVE",
"542 646 CURVE",
"627 655 OFFCURVE",
"708 667 OFFCURVE",
"770 678 CURVE",
"768 687 OFFCURVE",
"759 728 OFFCURVE",
"758 737 CURVE",
"699 723 OFFCURVE",
"619 711 OFFCURVE",
"534 702 CURVE",
"529 746 OFFCURVE",
"527 788 OFFCURVE",
"528 825 CURVE",
"517 824 OFFCURVE",
"474 823 OFFCURVE",
"461 823 CURVE",
"463 782 OFFCURVE",
"467 739 OFFCURVE",
"472 696 CURVE",
"384 689 OFFCURVE",
"296 686 OFFCURVE",
"228 690 CURVE",
"231 681 OFFCURVE",
"240 637 OFFCURVE",
"240 627 CURVE",
"310 627 OFFCURVE",
"395 632 OFFCURVE",
"480 640 CURVE",
"488 596 OFFCURVE",
"497 553 OFFCURVE",
"509 512 CURVE",
"392 500 OFFCURVE",
"274 493 OFFCURVE",
"190 495 CURVE",
"194 485 OFFCURVE",
"202 439 OFFCURVE",
"204 431 CURVE",
"292 433 OFFCURVE",
"410 443 OFFCURVE",
"527 456 CURVE",
"548 400 OFFCURVE",
"573 350 OFFCURVE",
"604 311 CURVE",
"432 367 OFFCURVE",
"243 330 OFFCURVE",
"221 195 CURVE SMOOTH",
"196 41 OFFCURVE",
"327 -66 OFFCURVE",
"616 -57 CURVE"
);
}
);
width = 1000;
},
{
layerId = "E768F6A6-15EB-4D2C-841C-D9E78CD24AB1";
paths = (
{
closed = 1;
nodes = (
"791 502 OFFCURVE",
"685 486 OFFCURVE",
"573 473 CURVE",
"605 381 OFFCURVE",
"652 301 OFFCURVE",
"719 262 CURVE",
"699 233 LINE",
"486 339 OFFCURVE",
"283 304 OFFCURVE",
"267 184 CURVE SMOOTH",
"248 48 OFFCURVE",
"389 -24 OFFCURVE",
"624 -10 CURVE",
"615 -48 LINE",
"338 -56 OFFCURVE",
"212 43 OFFCURVE",
"232 189 CURVE SMOOTH",
"251 331 OFFCURVE",
"462 363 OFFCURVE",
"638 291 CURVE",
"597 333 OFFCURVE",
"564 395 OFFCURVE",
"539 468 CURVE",
"420 455 OFFCURVE",
"298 444 OFFCURVE",
"204 442 CURVE",
"197 481 LINE",
"287 479 OFFCURVE",
"409 487 OFFCURVE",
"528 500 CURVE",
"514 548 OFFCURVE",
"503 598 OFFCURVE",
"494 651 CURVE",
"407 642 OFFCURVE",
"318 636 OFFCURVE",
"241 636 CURVE",
"233 675 LINE",
"305 671 OFFCURVE",
"397 675 OFFCURVE",
"489 684 CURVE",
"483 729 OFFCURVE",
"480 774 OFFCURVE",
"478 819 CURVE",
"515 820 LINE",
"515 781 OFFCURVE",
"518 736 OFFCURVE",
"524 688 CURVE",
"611 697 OFFCURVE",
"695 710 OFFCURVE",
"756 723 CURVE",
"763 687 LINE",
"698 676 OFFCURVE",
"615 664 OFFCURVE",
"529 654 CURVE",
"536 605 OFFCURVE",
"548 553 OFFCURVE",
"563 504 CURVE",
"678 518 OFFCURVE",
"788 535 OFFCURVE",
"857 549 CURVE",
"865 515 LINE"
);
}
);
width = 1000;
},
{
layerId = "E5DBD9E3-8A55-410D-8C4B-D00EFB9ED751";
paths = (
{
closed = 1;
nodes = (
"619 -53 OFFCURVE",
"633 3 OFFCURVE",
"642 23 CURVE",
"395 13 OFFCURVE",
"286 78 OFFCURVE",
"301 182 CURVE SMOOTH",
"316 284 OFFCURVE",
"511 302 OFFCURVE",
"693 206 CURVE",
"702 222 OFFCURVE",
"732 264 OFFCURVE",
"744 275 CURVE",
"683 311 OFFCURVE",
"638 376 OFFCURVE",
"606 453 CURVE",
"708 465 OFFCURVE",
"804 478 OFFCURVE",
"872 490 CURVE",
"867 504 OFFCURVE",
"856 554 OFFCURVE",
"854 573 CURVE",
"789 559 OFFCURVE",
"687 544 OFFCURVE",
"578 532 CURVE",
"568 567 OFFCURVE",
"560 602 OFFCURVE",
"554 637 CURVE",
"638 647 OFFCURVE",
"718 658 OFFCURVE",
"777 670 CURVE",
"772 687 OFFCURVE",
"763 734 OFFCURVE",
"760 750 CURVE",
"704 736 OFFCURVE",
"626 725 OFFCURVE",
"544 716 CURVE",
"540 757 OFFCURVE",
"539 796 OFFCURVE",
"540 831 CURVE",
"519 828 OFFCURVE",
"470 827 OFFCURVE",
"444 828 CURVE",
"446 789 OFFCURVE",
"450 749 OFFCURVE",
"455 709 CURVE",
"370 703 OFFCURVE",
"287 701 OFFCURVE",
"223 705 CURVE",
"229 688 OFFCURVE",
"238 638 OFFCURVE",
"240 618 CURVE",
"302 617 OFFCURVE",
"383 622 OFFCURVE",
"467 629 CURVE",
"473 593 OFFCURVE",
"481 558 OFFCURVE",
"490 523 CURVE",
"376 513 OFFCURVE",
"263 507 OFFCURVE",
"183 510 CURVE",
"190 489 OFFCURVE",
"201 437 OFFCURVE",
"203 420 CURVE",
"286 422 OFFCURVE",
"400 431 OFFCURVE",
"516 443 CURVE",
"533 400 OFFCURVE",
"552 361 OFFCURVE",
"576 327 CURVE",
"408 371 OFFCURVE",
"234 331 OFFCURVE",
"210 201 CURVE SMOOTH",
"179 40 OFFCURVE",
"316 -76 OFFCURVE",
"618 -66 CURVE"
);
}
);
width = 1000;
},
{
layerId = "001C0F45-7B19-4771-B55F-26ADC6604229";
paths = (
{
closed = 1;
nodes = (
"621 -55 OFFCURVE",
"638 10 OFFCURVE",
"651 40 CURVE",
"397 31 OFFCURVE",
"305 94 OFFCURVE",
"318 182 CURVE SMOOTH",
"332 275 OFFCURVE",
"523 284 OFFCURVE",
"690 193 CURVE",
"704 216 OFFCURVE",
"739 265 OFFCURVE",
"757 281 CURVE",
"699 315 OFFCURVE",
"655 374 OFFCURVE",
"623 443 CURVE",
"720 454 OFFCURVE",
"810 467 OFFCURVE",
"875 478 CURVE",
"868 498 OFFCURVE",
"855 557 OFFCURVE",
"853 585 CURVE",
"790 571 OFFCURVE",
"692 557 OFFCURVE",
"586 546 CURVE",
"578 573 OFFCURVE",
"572 601 OFFCURVE",
"567 629 CURVE",
"650 638 OFFCURVE",
"728 649 OFFCURVE",
"783 661 CURVE",
"776 687 OFFCURVE",
"766 739 OFFCURVE",
"763 764 CURVE",
"709 750 OFFCURVE",
"634 739 OFFCURVE",
"554 731 CURVE",
"552 768 OFFCURVE",
"551 804 OFFCURVE",
"552 837 CURVE",
"521 832 OFFCURVE",
"466 830 OFFCURVE",
"427 832 CURVE",
"430 797 OFFCURVE",
"433 760 OFFCURVE",
"437 722 CURVE",
"356 717 OFFCURVE",
"278 717 OFFCURVE",
"218 721 CURVE",
"226 694 OFFCURVE",
"236 638 OFFCURVE",
"239 609 CURVE",
"295 608 OFFCURVE",
"372 612 OFFCURVE",
"453 618 CURVE",
"458 590 OFFCURVE",
"464 563 OFFCURVE",
"471 535 CURVE",
"360 526 OFFCURVE",
"251 521 OFFCURVE",
"177 524 CURVE",
"187 493 OFFCURVE",
"199 434 OFFCURVE",
"203 409 CURVE",
"280 411 OFFCURVE",
"391 420 OFFCURVE",
"505 431 CURVE",
"518 399 OFFCURVE",
"533 368 OFFCURVE",
"551 340 CURVE",
"387 375 OFFCURVE",
"225 332 OFFCURVE",
"198 207 CURVE",
"163 38 OFFCURVE",
"305 -86 OFFCURVE",
"619 -75 CURVE"
);
}
);
width = 1000;
},
{
layerId = "192F6294-2DDB-4A85-B973-E64E677F808A";
paths = (
{
closed = 1;
nodes = (
"622 -58 OFFCURVE",
"642 17 OFFCURVE",
"660 57 CURVE",
"400 49 OFFCURVE",
"324 109 OFFCURVE",
"335 181 CURVE SMOOTH",
"349 265 OFFCURVE",
"536 265 OFFCURVE",
"687 180 CURVE",
"706 211 OFFCURVE",
"746 266 OFFCURVE",
"770 288 CURVE",
"715 320 OFFCURVE",
"673 372 OFFCURVE",
"641 434 CURVE",
"732 444 OFFCURVE",
"817 455 OFFCURVE",
"878 466 CURVE",
"870 493 OFFCURVE",
"855 560 OFFCURVE",
"852 597 CURVE",
"791 584 OFFCURVE",
"696 570 OFFCURVE",
"594 560 CURVE",
"589 580 OFFCURVE",
"584 600 OFFCURVE",
"580 621 CURVE",
"662 630 OFFCURVE",
"738 641 OFFCURVE",
"790 653 CURVE",
"780 687 OFFCURVE",
"769 744 OFFCURVE",
"765 778 CURVE",
"714 764 OFFCURVE",
"642 753 OFFCURVE",
"565 745 CURVE",
"563 779 OFFCURVE",
"563 812 OFFCURVE",
"565 843 CURVE",
"523 837 OFFCURVE",
"462 834 OFFCURVE",
"410 837 CURVE",
"413 805 OFFCURVE",
"416 771 OFFCURVE",
"420 735 CURVE",
"343 732 OFFCURVE",
"270 732 OFFCURVE",
"214 736 CURVE",
"224 701 OFFCURVE",
"234 639 OFFCURVE",
"238 600 CURVE",
"288 599 OFFCURVE",
"361 602 OFFCURVE",
"439 608 CURVE",
"443 588 OFFCURVE",
"447 568 OFFCURVE",
"452 548 CURVE",
"344 540 OFFCURVE",
"240 536 OFFCURVE",
"170 539 CURVE",
"184 498 OFFCURVE",
"198 432 OFFCURVE",
"203 399 CURVE",
"275 401 OFFCURVE",
"382 408 OFFCURVE",
"494 419 CURVE",
"504 396 OFFCURVE",
"515 373 OFFCURVE",
"527 352 CURVE",
"368 380 OFFCURVE",
"216 335 OFFCURVE",
"187 213 CURVE SMOOTH",
"146 37 OFFCURVE",
"295 -96 OFFCURVE",
"620 -84 CURVE"
);
}
);
width = 1000;
}
);
unicode = 304D;
},
{
glyphname = "gi-hira";
lastChange = "2021-05-14 05:13:03 +0000";
layers = (
{
layerId = master01;
paths = (
{
closed = 1;
nodes = (
"613 -49 OFFCURVE",
"624 -3 OFFCURVE",
"629 7 CURVE",
"388 -4 OFFCURVE",
"263 64 OFFCURVE",
"280 184 CURVE SMOOTH",
"295 295 OFFCURVE",
"494 322 OFFCURVE",
"691 221 CURVE",
"696 229 OFFCURVE",
"721 264 OFFCURVE",
"727 270 CURVE",
"663 307 OFFCURVE",
"617 380 OFFCURVE",
"585 464 CURVE",
"692 477 OFFCURVE",
"793 491 OFFCURVE",
"864 504 CURVE",
"862 510 OFFCURVE",
"852 553 OFFCURVE",
"851 563 CURVE",
"784 548 OFFCURVE",
"678 532 OFFCURVE",
"566 519 CURVE",
"554 561 OFFCURVE",
"544 605 OFFCURVE",
"537 647 CURVE",
"620 656 OFFCURVE",
"699 668 OFFCURVE",
"761 679 CURVE",
"758 688 OFFCURVE",
"750 729 OFFCURVE",
"749 738 CURVE",
"690 724 OFFCURVE",
"612 712 OFFCURVE",
"530 703 CURVE",
"525 748 OFFCURVE",
"523 790 OFFCURVE",
"523 827 CURVE",
"513 825 OFFCURVE",
"470 824 OFFCURVE",
"457 825 CURVE",
"459 783 OFFCURVE",
"462 740 OFFCURVE",
"468 697 CURVE",
"380 690 OFFCURVE",
"292 687 OFFCURVE",
"224 691 CURVE",
"226 683 OFFCURVE",
"235 638 OFFCURVE",
"236 628 CURVE",
"306 628 OFFCURVE",
"391 633 OFFCURVE",
"476 641 CURVE",
"483 597 OFFCURVE",
"493 554 OFFCURVE",
"505 513 CURVE",
"388 501 OFFCURVE",
"270 494 OFFCURVE",
"186 496 CURVE",
"189 486 OFFCURVE",
"198 441 OFFCURVE",
"199 432 CURVE",
"287 434 OFFCURVE",
"406 444 OFFCURVE",
"523 457 CURVE",
"543 401 OFFCURVE",
"569 351 OFFCURVE",
"599 312 CURVE",
"427 368 OFFCURVE",
"239 331 OFFCURVE",
"216 196 CURVE SMOOTH",
"191 42 OFFCURVE",
"323 -65 OFFCURVE",
"612 -56 CURVE"
);
},
{
closed = 1;
nodes = (
"912 660 LINE",
"891 681 OFFCURVE",
"822 756 OFFCURVE",
"801 779 CURVE",
"767 749 LINE",
"787 729 OFFCURVE",
"858 652 OFFCURVE",
"878 629 CURVE"
);
},
{
closed = 1;
nodes = (
"992 729 LINE",
"971 750 OFFCURVE",
"902 825 OFFCURVE",
"881 849 CURVE",
"847 818 LINE",
"867 798 OFFCURVE",
"938 722 OFFCURVE",
"958 699 CURVE"
);
}
);
width = 1000;
},
{
layerId = "E768F6A6-15EB-4D2C-841C-D9E78CD24AB1";
paths = (
{
closed = 1;
nodes = (
"957 701 LINE",
"931 732 OFFCURVE",
"873 793 OFFCURVE",
"846 819 CURVE",
"874 844 LINE",
"901 812 OFFCURVE",
"956 753 OFFCURVE",
"984 725 CURVE"
);
},
{
closed = 1;
nodes = (
"881 635 LINE",
"855 666 OFFCURVE",
"797 727 OFFCURVE",
"770 753 CURVE",
"797 777 LINE",
"825 746 OFFCURVE",
"880 687 OFFCURVE",
"908 659 CURVE"
);
},
{
closed = 1;
nodes = (
"788 503 OFFCURVE",
"681 488 OFFCURVE",
"570 474 CURVE",
"602 382 OFFCURVE",
"649 303 OFFCURVE",
"715 264 CURVE",
"695 235 LINE",
"483 340 OFFCURVE",
"280 305 OFFCURVE",
"264 185 CURVE SMOOTH",
"245 49 OFFCURVE",
"386 -22 OFFCURVE",
"621 -9 CURVE",
"612 -47 LINE",
"335 -55 OFFCURVE",
"209 44 OFFCURVE",
"229 190 CURVE SMOOTH",
"248 332 OFFCURVE",
"459 365 OFFCURVE",
"635 292 CURVE",
"594 334 OFFCURVE",
"561 397 OFFCURVE",
"535 470 CURVE",
"417 456 OFFCURVE",
"295 445 OFFCURVE",
"201 443 CURVE",
"194 482 LINE",
"283 480 OFFCURVE",
"406 489 OFFCURVE",
"525 502 CURVE",
"511 549 OFFCURVE",
"499 600 OFFCURVE",
"491 652 CURVE",
"404 643 OFFCURVE",
"315 638 OFFCURVE",
"238 638 CURVE",
"230 676 LINE",
"302 673 OFFCURVE",
"394 677 OFFCURVE",
"486 686 CURVE",
"480 730 OFFCURVE",
"477 776 OFFCURVE",
"475 821 CURVE",
"512 821 LINE",
"512 783 OFFCURVE",
"515 737 OFFCURVE",
"521 689 CURVE",
"608 698 OFFCURVE",
"691 711 OFFCURVE",
"753 725 CURVE",
"760 688 LINE",
"695 677 OFFCURVE",
"612 665 OFFCURVE",
"526 656 CURVE",
"533 606 OFFCURVE",
"544 555 OFFCURVE",
"559 506 CURVE",
"675 519 OFFCURVE",
"785 536 OFFCURVE",
"854 551 CURVE",
"862 516 LINE"
);
}
);
width = 1000;
},
{
layerId = "E5DBD9E3-8A55-410D-8C4B-D00EFB9ED751";
paths = (
{
closed = 1;
nodes = (
"613 -52 OFFCURVE",
"628 4 OFFCURVE",
"636 24 CURVE",
"389 14 OFFCURVE",
"280 79 OFFCURVE",
"296 183 CURVE",
"310 285 OFFCURVE",
"505 303 OFFCURVE",
"687 207 CURVE",
"697 223 OFFCURVE",
"727 265 OFFCURVE",
"739 276 CURVE",
"678 312 OFFCURVE",
"633 377 OFFCURVE",
"600 454 CURVE",
"702 466 OFFCURVE",
"798 479 OFFCURVE",
"866 491 CURVE",
"862 504 OFFCURVE",
"850 555 OFFCURVE",
"849 574 CURVE",
"784 560 OFFCURVE",
"682 545 OFFCURVE",
"573 533 CURVE",
"563 568 OFFCURVE",
"555 603 OFFCURVE",
"549 639 CURVE",
"628 647 OFFCURVE",
"703 658 OFFCURVE",
"761 670 CURVE",
"756 687 OFFCURVE",
"747 734 OFFCURVE",
"745 750 CURVE",
"690 737 OFFCURVE",
"616 725 OFFCURVE",
"539 717 CURVE",
"535 758 OFFCURVE",
"534 797 OFFCURVE",
"534 832 CURVE",
"514 829 OFFCURVE",
"464 828 OFFCURVE",
"439 829 CURVE",
"441 790 OFFCURVE",
"444 750 OFFCURVE",
"449 710 CURVE",
"365 704 OFFCURVE",
"282 702 OFFCURVE",
"218 706 CURVE",
"223 689 OFFCURVE",
"232 638 OFFCURVE",
"234 619 CURVE",
"298 618 OFFCURVE",
"379 623 OFFCURVE",
"461 630 CURVE",
"467 594 OFFCURVE",
"475 559 OFFCURVE",
"485 524 CURVE",
"370 514 OFFCURVE",
"257 508 OFFCURVE",
"178 511 CURVE",
"185 490 OFFCURVE",
"195 438 OFFCURVE",
"198 421 CURVE",
"280 423 OFFCURVE",
"395 432 OFFCURVE",
"511 444 CURVE",
"527 401 OFFCURVE",
"547 362 OFFCURVE",
"570 328 CURVE",
"402 372 OFFCURVE",
"229 332 OFFCURVE",
"204 202 CURVE SMOOTH",
"174 40 OFFCURVE",
"311 -75 OFFCURVE",
"612 -65 CURVE"
);
},
{
closed = 1;
nodes = (
"919 661 LINE",
"905 675 OFFCURVE",
"821 766 OFFCURVE",
"808 782 CURVE",
"766 745 LINE",
"779 732 OFFCURVE",
"864 639 OFFCURVE",
"877 624 CURVE"
);
},
{
closed = 1;
nodes = (
"1003 734 LINE",
"988 748 OFFCURVE",
"905 839 OFFCURVE",
"892 855 CURVE",
"849 818 LINE",
"863 805 OFFCURVE",
"948 713 OFFCURVE",
"960 697 CURVE"
);
}
);
width = 1000;
},
{
layerId = "001C0F45-7B19-4771-B55F-26ADC6604229";
paths = (
{
closed = 1;
nodes = (
"614 -55 OFFCURVE",
"631 10 OFFCURVE",
"644 40 CURVE",
"391 31 OFFCURVE",
"298 94 OFFCURVE",
"312 182 CURVE SMOOTH",
"326 275 OFFCURVE",
"517 284 OFFCURVE",
"683 193 CURVE",
"698 217 OFFCURVE",
"733 265 OFFCURVE",
"750 282 CURVE",
"692 316 OFFCURVE",
"649 374 OFFCURVE",
"616 444 CURVE",
"713 455 OFFCURVE",
"804 467 OFFCURVE",
"868 479 CURVE",
"862 499 OFFCURVE",
"849 557 OFFCURVE",
"847 586 CURVE",
"783 572 OFFCURVE",
"685 558 OFFCURVE",
"579 547 CURVE",
"572 574 OFFCURVE",
"566 602 OFFCURVE",
"561 630 CURVE",
"636 638 OFFCURVE",
"707 649 OFFCURVE",
"761 660 CURVE",
"754 686 OFFCURVE",
"744 738 OFFCURVE",
"740 763 CURVE",
"689 750 OFFCURVE",
"621 739 OFFCURVE",
"548 731 CURVE",
"545 768 OFFCURVE",
"544 804 OFFCURVE",
"546 838 CURVE",
"515 833 OFFCURVE",
"459 831 OFFCURVE",
"421 833 CURVE",
"423 798 OFFCURVE",
"426 760 OFFCURVE",
"431 722 CURVE",
"351 718 OFFCURVE",
"273 717 OFFCURVE",
"212 721 CURVE",
"220 695 OFFCURVE",
"229 639 OFFCURVE",
"232 609 CURVE",
"290 609 OFFCURVE",
"367 612 OFFCURVE",
"446 619 CURVE",
"451 591 OFFCURVE",
"457 563 OFFCURVE",
"464 536 CURVE",
"353 527 OFFCURVE",
"244 522 OFFCURVE",
"170 525 CURVE",
"181 494 OFFCURVE",
"193 435 OFFCURVE",
"197 410 CURVE",
"274 412 OFFCURVE",
"385 420 OFFCURVE",
"498 431 CURVE",
"511 399 OFFCURVE",
"527 368 OFFCURVE",
"544 341 CURVE",
"380 376 OFFCURVE",
"218 333 OFFCURVE",
"192 207 CURVE SMOOTH",
"156 39 OFFCURVE",
"299 -85 OFFCURVE",
"612 -74 CURVE"
);
},
{
closed = 1;
nodes = (
"921 661 LINE",
"914 668 OFFCURVE",
"816 775 OFFCURVE",
"810 783 CURVE",
"760 739 LINE",
"767 733 OFFCURVE",
"865 625 OFFCURVE",
"871 618 CURVE"
);
},
{
closed = 1;
nodes = (
"1008 737 LINE",
"1001 744 OFFCURVE",
"904 851 OFFCURVE",
"897 859 CURVE",
"847 816 LINE",
"854 809 OFFCURVE",
"952 702 OFFCURVE",
"959 694 CURVE"
);
}
);
width = 1000;
},
{
layerId = "192F6294-2DDB-4A85-B973-E64E677F808A";
paths = (
{
closed = 1;
nodes = (
"615 -58 OFFCURVE",
"635 17 OFFCURVE",
"652 57 CURVE",
"392 49 OFFCURVE",
"316 109 OFFCURVE",
"328 181 CURVE SMOOTH",
"341 265 OFFCURVE",
"528 265 OFFCURVE",
"679 180 CURVE",
"699 211 OFFCURVE",
"738 266 OFFCURVE",
"762 288 CURVE",
"707 320 OFFCURVE",
"665 372 OFFCURVE",
"634 434 CURVE",
"725 444 OFFCURVE",
"810 455 OFFCURVE",
"870 466 CURVE",
"862 493 OFFCURVE",
"847 560 OFFCURVE",
"844 597 CURVE",
"783 584 OFFCURVE",
"688 570 OFFCURVE",
"586 560 CURVE",
"581 580 OFFCURVE",
"576 601 OFFCURVE",
"572 621 CURVE",
"644 630 OFFCURVE",
"711 640 OFFCURVE",
"761 651 CURVE",
"752 685 OFFCURVE",
"741 743 OFFCURVE",
"736 776 CURVE",
"688 763 OFFCURVE",
"625 753 OFFCURVE",
"557 745 CURVE",
"555 779 OFFCURVE",
"555 812 OFFCURVE",
"557 843 CURVE",
"515 837 OFFCURVE",
"454 834 OFFCURVE",
"403 837 CURVE",
"405 805 OFFCURVE",
"408 771 OFFCURVE",
"412 735 CURVE",
"337 732 OFFCURVE",
"263 732 OFFCURVE",
"206 736 CURVE",
"217 701 OFFCURVE",
"226 639 OFFCURVE",
"230 600 CURVE",
"282 599 OFFCURVE",
"354 602 OFFCURVE",
"431 608 CURVE",
"435 588 OFFCURVE",
"439 568 OFFCURVE",
"444 548 CURVE",
"336 540 OFFCURVE",
"232 536 OFFCURVE",
"162 539 CURVE",
"176 498 OFFCURVE",
"190 432 OFFCURVE",
"195 399 CURVE",
"267 401 OFFCURVE",
"374 408 OFFCURVE",
"486 419 CURVE",
"496 396 OFFCURVE",
"507 373 OFFCURVE",
"520 352 CURVE",
"360 380 OFFCURVE",
"208 335 OFFCURVE",
"180 213 CURVE SMOOTH",
"139 37 OFFCURVE",
"287 -96 OFFCURVE",
"612 -84 CURVE"
);
},
{
closed = 1;
nodes = (
"925 661 LINE",
"814 785 LINE",
"757 735 LINE",
"868 612 LINE"
);
},
{
closed = 1;
nodes = (
"1016 741 LINE",
"905 865 LINE",
"848 815 LINE",
"959 692 LINE"
);
}
);
width = 1000;
}
);
unicode = 304E;
},
{
glyphname = "ku-hira";
lastChange = "2021-05-14 05:13:03 +0000";
layers = (
{
layerId = master01;
paths = (
{
closed = 1;
nodes = (
"658 -56 OFFCURVE",
"695 -30 OFFCURVE",
"707 -24 CURVE",
"602 109 OFFCURVE",
"449 271 OFFCURVE",
"349 367 CURVE SMOOTH",
"322 393 OFFCURVE",
"321 405 OFFCURVE",
"348 431 CURVE SMOOTH",
"408 490 OFFCURVE",
"607 692 OFFCURVE",
"688 777 CURVE",
"678 783 OFFCURVE",
"640 815 OFFCURVE",
"632 823 CURVE",
"552 724 OFFCURVE",
"361 529 OFFCURVE",
"295 465 CURVE SMOOTH",
"239 412 OFFCURVE",
"242 383 OFFCURVE",
"295 332 CURVE SMOOTH",
"394 238 OFFCURVE",
"551 64 OFFCURVE",
"648 -64 CURVE"
);
}
);
width = 1000;
},
{
layerId = "E768F6A6-15EB-4D2C-841C-D9E78CD24AB1";
paths = (
{
closed = 1;
nodes = (
"665 -59 LINE",
"567 71 OFFCURVE",
"408 246 OFFCURVE",
"312 338 CURVE SMOOTH",
"262 386 OFFCURVE",
"261 413 OFFCURVE",
"312 462 CURVE SMOOTH",
"375 524 OFFCURVE",
"565 714 OFFCURVE",
"648 818 CURVE",
"679 792 LINE",
"602 704 OFFCURVE",
"400 499 OFFCURVE",
"336 436 CURVE",
"306 408 OFFCURVE",
"306 393 OFFCURVE",
"337 364 CURVE SMOOTH",
"439 265 OFFCURVE",
"592 96 OFFCURVE",
"696 -36 CURVE"
);
}
);
width = 1000;
},
{
layerId = "E5DBD9E3-8A55-410D-8C4B-D00EFB9ED751";
paths = (
{
closed = 1;
nodes = (
"651 -52 OFFCURVE",
"693 -23 OFFCURVE",
"718 -11 CURVE",
"612 122 OFFCURVE",
"459 279 OFFCURVE",
"361 371 CURVE SMOOTH",
"337 393 OFFCURVE",
"337 402 OFFCURVE",
"360 425 CURVE SMOOTH",
"416 481 OFFCURVE",
"612 679 OFFCURVE",
"696 762 CURVE",
"677 774 OFFCURVE",
"632 812 OFFCURVE",
"615 829 CURVE",
"540 734 OFFCURVE",
"347 535 OFFCURVE",
"278 469 CURVE SMOOTH",
"218 413 OFFCURVE",
"222 380 OFFCURVE",
"278 327 CURVE SMOOTH",
"380 230 OFFCURVE",
"534 57 OFFCURVE",
"632 -70 CURVE"
);
}
);
width = 1000;
},
{
layerId = "001C0F45-7B19-4771-B55F-26ADC6604229";
paths = (
{
closed = 1;
nodes = (
"644 -49 OFFCURVE",
"691 -17 OFFCURVE",
"728 1 CURVE",
"622 135 OFFCURVE",
"469 286 OFFCURVE",
"373 374 CURVE SMOOTH",
"353 393 OFFCURVE",
"352 400 OFFCURVE",
"371 420 CURVE SMOOTH",
"424 472 OFFCURVE",
"618 667 OFFCURVE",
"705 747 CURVE",
"676 765 OFFCURVE",
"623 809 OFFCURVE",
"598 834 CURVE",
"527 745 OFFCURVE",
"333 541 OFFCURVE",
"261 473 CURVE SMOOTH",
"197 413 OFFCURVE",
"202 378 OFFCURVE",
"261 322 CURVE SMOOTH",
"366 223 OFFCURVE",
"518 50 OFFCURVE",
"615 -75 CURVE"
);
}
);
width = 1000;
},
{
layerId = "192F6294-2DDB-4A85-B973-E64E677F808A";
paths = (
{
closed = 1;
nodes = (
"638 -45 OFFCURVE",
"689 -10 OFFCURVE",
"739 14 CURVE",
"632 149 OFFCURVE",
"479 293 OFFCURVE",
"385 378 CURVE SMOOTH",
"368 393 OFFCURVE",
"367 398 OFFCURVE",
"384 415 CURVE SMOOTH",
"432 463 OFFCURVE",
"623 655 OFFCURVE",
"714 732 CURVE",
"675 757 OFFCURVE",
"615 806 OFFCURVE",
"581 840 CURVE",
"514 755 OFFCURVE",
"318 546 OFFCURVE",
"244 477 CURVE SMOOTH",
"175 413 OFFCURVE",
"182 375 OFFCURVE",
"244 317 CURVE SMOOTH",
"352 215 OFFCURVE",
"502 43 OFFCURVE",
"599 -81 CURVE"
);
}
);
width = 1000;
}
);
unicode = 304F;
},
{
glyphname = "gu-hira";
lastChange = "2021-05-14 05:13:03 +0000";
layers = (
{
layerId = master01;
paths = (
{
closed = 1;
nodes = (
"658 -56 OFFCURVE",
"695 -30 OFFCURVE",
"707 -24 CURVE",
"602 109 OFFCURVE",
"449 272 OFFCURVE",
"349 367 CURVE SMOOTH",
"322 393 OFFCURVE",
"321 405 OFFCURVE",
"348 431 CURVE SMOOTH",
"408 490 OFFCURVE",
"607 692 OFFCURVE",
"687 777 CURVE",
"678 783 OFFCURVE",
"640 815 OFFCURVE",
"632 823 CURVE",
"552 724 OFFCURVE",
"361 529 OFFCURVE",
"295 466 CURVE SMOOTH",
"239 413 OFFCURVE",
"242 383 OFFCURVE",
"295 333 CURVE SMOOTH",
"394 238 OFFCURVE",
"551 64 OFFCURVE",
"648 -64 CURVE"
);
},
{
closed = 1;
nodes = (
"846 512 LINE",
"826 535 OFFCURVE",
"764 616 OFFCURVE",
"745 640 CURVE",
"708 613 LINE",
"726 592 OFFCURVE",
"791 509 OFFCURVE",
"809 485 CURVE"
);
},
{
closed = 1;
nodes = (
"931 575 LINE",
"912 598 OFFCURVE",
"849 678 OFFCURVE",
"831 703 CURVE",
"794 676 LINE",
"812 654 OFFCURVE",
"877 572 OFFCURVE",
"894 548 CURVE"
);
}
);
width = 1000;
},
{
layerId = "E768F6A6-15EB-4D2C-841C-D9E78CD24AB1";
paths = (
{
closed = 1;
nodes = (
"895 548 LINE",
"872 580 OFFCURVE",
"819 646 OFFCURVE",
"794 674 CURVE",
"823 696 LINE",
"848 663 OFFCURVE",
"898 600 OFFCURVE",
"924 570 CURVE"
);
},
{
closed = 1;
nodes = (
"814 488 LINE",
"791 520 OFFCURVE",
"737 586 OFFCURVE",
"713 614 CURVE",
"742 636 LINE",
"767 603 OFFCURVE",
"817 540 OFFCURVE",
"843 510 CURVE"
);
},
{
closed = 1;
nodes = (
"665 -59 LINE",
"567 71 OFFCURVE",
"408 246 OFFCURVE",
"312 338 CURVE SMOOTH",
"262 386 OFFCURVE",
"261 413 OFFCURVE",
"312 462 CURVE SMOOTH",
"375 524 OFFCURVE",
"565 714 OFFCURVE",
"648 818 CURVE",
"679 792 LINE",
"602 704 OFFCURVE",
"400 499 OFFCURVE",
"336 436 CURVE",
"306 408 OFFCURVE",
"306 393 OFFCURVE",
"337 364 CURVE SMOOTH",
"439 265 OFFCURVE",
"592 96 OFFCURVE",
"696 -36 CURVE"
);
}
);
width = 1000;
},
{
layerId = "E5DBD9E3-8A55-410D-8C4B-D00EFB9ED751";
paths = (
{
closed = 1;
nodes = (
"651 -52 OFFCURVE",
"693 -23 OFFCURVE",
"718 -11 CURVE",
"612 122 OFFCURVE",
"459 279 OFFCURVE",
"361 371 CURVE SMOOTH",
"337 393 OFFCURVE",
"337 403 OFFCURVE",
"360 425 CURVE SMOOTH",
"416 481 OFFCURVE",
"612 680 OFFCURVE",
"696 762 CURVE",
"677 774 OFFCURVE",
"632 812 OFFCURVE",
"615 829 CURVE",
"540 735 OFFCURVE",
"347 535 OFFCURVE",
"278 469 CURVE SMOOTH",
"218 413 OFFCURVE",
"222 380 OFFCURVE",
"278 327 CURVE SMOOTH",
"380 231 OFFCURVE",
"534 57 OFFCURVE",
"632 -70 CURVE"
);
},
{
closed = 1;
nodes = (
"849 515 LINE",
"836 530 OFFCURVE",
"761 628 OFFCURVE",
"749 645 CURVE",
"703 612 LINE",
"716 597 OFFCURVE",
"792 498 OFFCURVE",
"804 482 CURVE"
);
},
{
closed = 1;
nodes = (
"938 581 LINE",
"925 596 OFFCURVE",
"851 694 OFFCURVE",
"838 710 CURVE",
"793 677 LINE",
"805 663 OFFCURVE",
"882 564 OFFCURVE",
"893 548 CURVE"
);
}
);
width = 1000;
},
{
layerId = "001C0F45-7B19-4771-B55F-26ADC6604229";
paths = (
{
closed = 1;
nodes = (
"644 -49 OFFCURVE",
"691 -17 OFFCURVE",
"728 1 CURVE",
"622 136 OFFCURVE",
"468 286 OFFCURVE",
"373 374 CURVE SMOOTH",
"353 393 OFFCURVE",
"352 400 OFFCURVE",
"371 420 CURVE SMOOTH",
"424 472 OFFCURVE",
"618 667 OFFCURVE",
"705 747 CURVE",
"676 765 OFFCURVE",
"623 809 OFFCURVE",
"598 834 CURVE",
"527 745 OFFCURVE",
"333 541 OFFCURVE",
"261 473 CURVE SMOOTH",
"197 413 OFFCURVE",
"202 378 OFFCURVE",
"261 322 CURVE SMOOTH",
"366 223 OFFCURVE",
"518 50 OFFCURVE",
"615 -75 CURVE"
);
},
{
closed = 1;
nodes = (
"852 518 LINE",
"845 525 OFFCURVE",
"758 641 OFFCURVE",
"752 649 CURVE",
"699 610 LINE",
"705 603 OFFCURVE",
"793 487 OFFCURVE",
"798 479 CURVE"
);
},
{
closed = 1;
nodes = (
"946 586 LINE",
"939 594 OFFCURVE",
"852 709 OFFCURVE",
"846 717 CURVE",
"793 679 LINE",
"799 672 OFFCURVE",
"887 556 OFFCURVE",
"892 547 CURVE"
);
}
);
width = 1000;
},
{
layerId = "192F6294-2DDB-4A85-B973-E64E677F808A";
paths = (
{
closed = 1;
nodes = (
"638 -45 OFFCURVE",
"689 -10 OFFCURVE",
"739 14 CURVE",
"632 149 OFFCURVE",
"479 293 OFFCURVE",
"385 378 CURVE SMOOTH",
"368 393 OFFCURVE",
"367 398 OFFCURVE",
"384 415 CURVE SMOOTH",
"432 463 OFFCURVE",
"623 655 OFFCURVE",
"714 732 CURVE",
"675 757 OFFCURVE",
"615 806 OFFCURVE",
"581 840 CURVE",
"514 755 OFFCURVE",
"318 546 OFFCURVE",
"244 477 CURVE SMOOTH",
"175 413 OFFCURVE",
"182 375 OFFCURVE",
"244 317 CURVE SMOOTH",
"352 215 OFFCURVE",
"502 43 OFFCURVE",
"599 -81 CURVE"
);
},
{
closed = 1;
nodes = (
"855 520 LINE",
"755 653 LINE",
"694 609 LINE",
"793 476 LINE"
);
},
{
closed = 1;
nodes = (
"953 592 LINE",
"853 724 LINE",
"792 680 LINE",
"892 547 LINE"
);
}
);
width = 1000;
}
);
unicode = 3050;
},
{
glyphname = "ke-hira";
lastChange = "2021-05-14 05:13:03 +0000";
layers = (
{
layerId = master01;
paths = (
{
closed = 1;
nodes = (
"642 29 OFFCURVE",
"720 158 OFFCURVE",
"720 442 CURVE SMOOTH",
"720 460 OFFCURVE",
"720 478 OFFCURVE",
"719 498 CURVE",
"803 501 OFFCURVE",
"881 505 OFFCURVE",
"929 507 CURVE",
"928 515 OFFCURVE",
"926 561 OFFCURVE",
"927 570 CURVE",
"886 565 OFFCURVE",
"806 560 OFFCURVE",
"717 556 CURVE",
"714 648 OFFCURVE",
"707 746 OFFCURVE",
"700 803 CURVE",
"690 802 OFFCURVE",
"643 799 OFFCURVE",
"633 799 CURVE",
"642 744 OFFCURVE",
"651 647 OFFCURVE",
"655 554 CURVE",
"538 549 OFFCURVE",
"419 547 OFFCURVE",
"363 547 CURVE",
"365 538 OFFCURVE",
"370 494 OFFCURVE",
"370 483 CURVE",
"434 487 OFFCURVE",
"546 491 OFFCURVE",
"657 496 CURVE",
"658 477 OFFCURVE",
"658 459 OFFCURVE",
"658 442 CURVE SMOOTH",
"658 172 OFFCURVE",
"582 60 OFFCURVE",
"460 -29 CURVE",
"471 -33 OFFCURVE",
"505 -64 OFFCURVE",
"512 -71 CURVE"
);
},
{
closed = 1;
nodes = (
"181 -36 OFFCURVE",
"226 -21 OFFCURVE",
"235 -19 CURVE",
"200 79 OFFCURVE",
"176 223 OFFCURVE",
"176 389 CURVE SMOOTH",
"176 507 OFFCURVE",
"201 684 OFFCURVE",
"227 784 CURVE",
"217 785 OFFCURVE",
"173 794 OFFCURVE",
"162 798 CURVE",
"140 702 OFFCURVE",
"115 513 OFFCURVE",
"115 389 CURVE SMOOTH",
"115 217 OFFCURVE",
"137 72 OFFCURVE",
"174 -39 CURVE"
);
}
);
width = 1000;
},
{
layerId = "E768F6A6-15EB-4D2C-841C-D9E78CD24AB1";
paths = (
{
closed = 1;
nodes = (
"876 518 OFFCURVE",
"795 515 OFFCURVE",
"708 511 CURVE",
"708 487 OFFCURVE",
"709 464 OFFCURVE",
"709 443 CURVE",
"708 155 OFFCURVE",
"629 32 OFFCURVE",
"502 -67 CURVE",
"474 -40 LINE",
"596 48 OFFCURVE",
"673 169 OFFCURVE",
"673 443 CURVE SMOOTH",
"673 464 OFFCURVE",
"673 486 OFFCURVE",
"672 510 CURVE",
"559 505 OFFCURVE",
"441 501 OFFCURVE",
"373 498 CURVE",
"369 537 LINE",
"426 536 OFFCURVE",
"551 539 OFFCURVE",
"671 544 CURVE",
"667 640 OFFCURVE",
"659 742 OFFCURVE",
"650 798 CURVE",
"688 801 LINE",
"696 739 OFFCURVE",
"703 638 OFFCURVE",
"707 545 CURVE",
"796 549 OFFCURVE",
"878 555 OFFCURVE",
"924 560 CURVE",
"925 522 LINE"
);
},
{
closed = 1;
nodes = (
"185 -35 LINE",
"150 72 OFFCURVE",
"126 219 OFFCURVE",
"126 389 CURVE SMOOTH",
"126 511 OFFCURVE",
"153 699 OFFCURVE",
"174 795 CURVE",
"212 787 LINE",
"188 693 OFFCURVE",
"161 509 OFFCURVE",
"161 389 CURVE SMOOTH",
"161 223 OFFCURVE",
"186 78 OFFCURVE",
"222 -23 CURVE"
);
}
);
width = 1000;
},
{
layerId = "E5DBD9E3-8A55-410D-8C4B-D00EFB9ED751";
paths = (
{
closed = 1;
nodes = (
"655 25 OFFCURVE",
"731 161 OFFCURVE",
"731 442 CURVE SMOOTH",
"731 456 OFFCURVE",
"731 470 OFFCURVE",
"731 485 CURVE",
"812 489 OFFCURVE",
"886 491 OFFCURVE",
"933 493 CURVE",
"932 509 OFFCURVE",
"929 563 OFFCURVE",
"930 580 CURVE",
"893 576 OFFCURVE",
"815 571 OFFCURVE",
"728 568 CURVE",
"725 658 OFFCURVE",
"718 754 OFFCURVE",
"712 804 CURVE",
"692 802 OFFCURVE",
"637 800 OFFCURVE",
"616 801 CURVE",
"625 746 OFFCURVE",
"634 655 OFFCURVE",
"639 564 CURVE",
"525 560 OFFCURVE",
"411 557 OFFCURVE",
"358 558 CURVE",
"361 539 OFFCURVE",
"367 489 OFFCURVE",
"368 469 CURVE",
"427 473 OFFCURVE",
"534 478 OFFCURVE",
"642 482 CURVE",
"642 468 OFFCURVE",
"642 455 OFFCURVE",
"642 442 CURVE SMOOTH",
"642 174 OFFCURVE",
"568 72 OFFCURVE",
"447 -18 CURVE",
"467 -27 OFFCURVE",
"508 -60 OFFCURVE",
"522 -75 CURVE"
);
},
{
closed = 1;
nodes = (
"177 -37 OFFCURVE",
"230 -19 OFFCURVE",
"248 -15 CURVE",
"215 81 OFFCURVE",
"190 223 OFFCURVE",
"190 388 CURVE SMOOTH",
"190 505 OFFCURVE",
"214 676 OFFCURVE",
"242 781 CURVE",
"222 783 OFFCURVE",
"171 794 OFFCURVE",
"149 801 CURVE",
"127 705 OFFCURVE",
"104 515 OFFCURVE",
"104 390 CURVE SMOOTH",
"104 215 OFFCURVE",
"123 72 OFFCURVE",
"163 -43 CURVE"
);
}
);
width = 1000;
},
{
layerId = "001C0F45-7B19-4771-B55F-26ADC6604229";
paths = (
{
closed = 1;
nodes = (
"668 22 OFFCURVE",
"742 164 OFFCURVE",
"742 442 CURVE SMOOTH",
"742 452 OFFCURVE",
"742 462 OFFCURVE",
"742 473 CURVE",
"820 475 OFFCURVE",
"891 478 OFFCURVE",
"936 479 CURVE",
"935 502 OFFCURVE",
"932 565 OFFCURVE",
"933 590 CURVE",
"900 587 OFFCURVE",
"825 583 OFFCURVE",
"739 579 CURVE",
"735 668 OFFCURVE",
"729 761 OFFCURVE",
"725 806 CURVE",
"694 803 OFFCURVE",
"630 801 OFFCURVE",
"598 803 CURVE",
"608 749 OFFCURVE",
"617 662 OFFCURVE",
"623 574 CURVE",
"512 571 OFFCURVE",
"403 568 OFFCURVE",
"352 568 CURVE",
"357 541 OFFCURVE",
"364 485 OFFCURVE",
"365 454 CURVE",
"420 459 OFFCURVE",
"521 464 OFFCURVE",
"627 468 CURVE",
"627 460 OFFCURVE",
"627 451 OFFCURVE",
"627 442 CURVE SMOOTH",
"627 177 OFFCURVE",
"555 84 OFFCURVE",
"433 -6 CURVE",
"464 -20 OFFCURVE",
"512 -57 OFFCURVE",
"533 -80 CURVE"
);
},
{
closed = 1;
nodes = (
"173 -37 OFFCURVE",
"233 -17 OFFCURVE",
"261 -11 CURVE",
"229 83 OFFCURVE",
"205 223 OFFCURVE",
"205 388 CURVE SMOOTH",
"205 503 OFFCURVE",
"227 668 OFFCURVE",
"257 778 CURVE",
"227 781 OFFCURVE",
"169 793 OFFCURVE",
"136 804 CURVE",
"114 708 OFFCURVE",
"92 517 OFFCURVE",
"92 390 CURVE SMOOTH",
"92 213 OFFCURVE",
"110 72 OFFCURVE",
"153 -47 CURVE"
);
}
);
width = 1000;
},
{
layerId = "192F6294-2DDB-4A85-B973-E64E677F808A";
paths = (
{
closed = 1;
nodes = (
"681 19 OFFCURVE",
"754 167 OFFCURVE",
"754 443 CURVE SMOOTH",
"754 460 LINE",
"828 463 OFFCURVE",
"896 464 OFFCURVE",
"940 465 CURVE",
"938 496 OFFCURVE",
"935 567 OFFCURVE",
"936 600 CURVE",
"906 597 OFFCURVE",
"835 594 OFFCURVE",
"750 590 CURVE",
"746 678 OFFCURVE",
"740 767 OFFCURVE",
"737 808 CURVE",
"696 804 OFFCURVE",
"623 802 OFFCURVE",
"581 806 CURVE",
"592 752 OFFCURVE",
"601 669 OFFCURVE",
"606 585 CURVE",
"499 581 OFFCURVE",
"395 579 OFFCURVE",
"346 579 CURVE",
"353 542 OFFCURVE",
"361 480 OFFCURVE",
"363 440 CURVE",
"413 445 OFFCURVE",
"509 451 OFFCURVE",
"611 455 CURVE",
"611 443 LINE",
"613 180 OFFCURVE",
"541 96 OFFCURVE",
"420 5 CURVE",
"461 -13 OFFCURVE",
"515 -53 OFFCURVE",
"543 -84 CURVE"
);
},
{
closed = 1;
nodes = (
"169 -38 OFFCURVE",
"237 -15 OFFCURVE",
"274 -6 CURVE",
"244 85 OFFCURVE",
"219 224 OFFCURVE",
"219 388 CURVE SMOOTH",
"219 502 OFFCURVE",
"240 660 OFFCURVE",
"272 775 CURVE",
"233 779 OFFCURVE",
"168 792 OFFCURVE",
"123 807 CURVE",
"101 712 OFFCURVE",
"81 519 OFFCURVE",
"81 391 CURVE SMOOTH",
"81 212 OFFCURVE",
"96 72 OFFCURVE",
"142 -51 CURVE"
);
}
);
width = 1000;
}
);
unicode = 3051;
},
{
glyphname = "ge-hira";
lastChange = "2021-05-14 05:13:03 +0000";
layers = (
{
layerId = master01;
paths = (
{
closed = 1;
nodes = (
"642 29 OFFCURVE",
"720 158 OFFCURVE",
"720 442 CURVE SMOOTH",
"720 460 OFFCURVE",
"720 479 OFFCURVE",
"719 498 CURVE",
"803 502 OFFCURVE",
"881 505 OFFCURVE",
"929 507 CURVE",
"928 515 OFFCURVE",
"926 562 OFFCURVE",
"927 570 CURVE",
"886 565 OFFCURVE",
"806 560 OFFCURVE",
"717 557 CURVE",
"714 648 OFFCURVE",
"707 747 OFFCURVE",
"700 803 CURVE",
"690 802 OFFCURVE",
"643 799 OFFCURVE",
"633 800 CURVE",
"642 744 OFFCURVE",
"651 648 OFFCURVE",
"655 554 CURVE",
"538 550 OFFCURVE",
"418 547 OFFCURVE",
"363 547 CURVE",
"365 538 OFFCURVE",
"370 494 OFFCURVE",
"370 484 CURVE",
"434 487 OFFCURVE",
"546 491 OFFCURVE",
"657 496 CURVE",
"658 477 OFFCURVE",
"658 459 OFFCURVE",
"658 443 CURVE SMOOTH",
"658 172 OFFCURVE",
"582 60 OFFCURVE",
"460 -29 CURVE",
"470 -33 OFFCURVE",
"505 -63 OFFCURVE",
"512 -71 CURVE"
);
},
{
closed = 1;
nodes = (
"181 -36 OFFCURVE",
"226 -21 OFFCURVE",
"235 -19 CURVE",
"200 79 OFFCURVE",
"176 223 OFFCURVE",
"176 389 CURVE SMOOTH",
"176 507 OFFCURVE",
"201 684 OFFCURVE",
"227 784 CURVE",
"217 785 OFFCURVE",
"173 794 OFFCURVE",
"161 798 CURVE",
"140 702 OFFCURVE",
"115 513 OFFCURVE",
"115 390 CURVE SMOOTH",
"115 217 OFFCURVE",
"137 72 OFFCURVE",
"174 -39 CURVE"
);
},
{
closed = 1;
nodes = (
"914 654 LINE",
"894 676 OFFCURVE",
"830 755 OFFCURVE",
"811 780 CURVE",
"774 752 LINE",
"793 731 OFFCURVE",
"859 650 OFFCURVE",
"877 626 CURVE"
);
},
{
closed = 1;
nodes = (
"998 719 LINE",
"978 741 OFFCURVE",
"914 820 OFFCURVE",
"895 844 CURVE",
"858 816 LINE",
"877 795 OFFCURVE",
"944 714 OFFCURVE",
"962 690 CURVE"
);
}
);
width = 1000;
},
{
layerId = "E768F6A6-15EB-4D2C-841C-D9E78CD24AB1";
paths = (
{
closed = 1;
nodes = (
"962 691 LINE",
"938 723 OFFCURVE",
"884 787 OFFCURVE",
"858 815 CURVE",
"887 837 LINE",
"912 805 OFFCURVE",
"964 743 OFFCURVE",
"991 713 CURVE"
);
},
{
closed = 1;
nodes = (
"882 629 LINE",
"859 661 OFFCURVE",
"804 725 OFFCURVE",
"779 753 CURVE",
"807 776 LINE",
"833 743 OFFCURVE",
"884 681 OFFCURVE",
"911 652 CURVE"
);
},
{
closed = 1;
nodes = (
"876 518 OFFCURVE",
"795 515 OFFCURVE",
"708 511 CURVE",
"708 487 OFFCURVE",
"709 464 OFFCURVE",
"709 443 CURVE",
"708 155 OFFCURVE",
"629 32 OFFCURVE",
"502 -67 CURVE",
"474 -40 LINE",
"596 48 OFFCURVE",
"673 169 OFFCURVE",
"673 443 CURVE SMOOTH",
"673 464 OFFCURVE",
"673 486 OFFCURVE",
"672 510 CURVE",
"559 505 OFFCURVE",
"441 501 OFFCURVE",
"373 498 CURVE",
"369 537 LINE",
"426 536 OFFCURVE",
"551 539 OFFCURVE",
"671 544 CURVE",
"667 640 OFFCURVE",
"659 742 OFFCURVE",
"650 798 CURVE",
"688 801 LINE",
"696 739 OFFCURVE",
"703 638 OFFCURVE",
"707 545 CURVE",
"796 549 OFFCURVE",
"878 555 OFFCURVE",
"924 560 CURVE",
"925 522 LINE"
);
},
{
closed = 1;
nodes = (
"185 -35 LINE",
"150 72 OFFCURVE",
"126 219 OFFCURVE",
"126 389 CURVE SMOOTH",
"126 511 OFFCURVE",
"153 699 OFFCURVE",
"174 795 CURVE",
"212 787 LINE",
"188 693 OFFCURVE",
"161 509 OFFCURVE",
"161 389 CURVE SMOOTH",
"161 223 OFFCURVE",
"186 78 OFFCURVE",
"222 -23 CURVE"
);
}
);
width = 1000;
},
{
layerId = "E5DBD9E3-8A55-410D-8C4B-D00EFB9ED751";
paths = (
{
closed = 1;
nodes = (
"655 26 OFFCURVE",
"731 161 OFFCURVE",
"731 442 CURVE SMOOTH",
"731 456 OFFCURVE",
"731 470 OFFCURVE",
"731 486 CURVE",
"812 489 OFFCURVE",
"886 491 OFFCURVE",
"932 493 CURVE",
"932 509 OFFCURVE",
"929 563 OFFCURVE",
"930 580 CURVE",
"893 576 OFFCURVE",
"815 571 OFFCURVE",
"728 568 CURVE",
"724 658 OFFCURVE",
"718 754 OFFCURVE",
"712 804 CURVE",
"692 802 OFFCURVE",
"637 800 OFFCURVE",
"616 801 CURVE",
"625 747 OFFCURVE",
"634 655 OFFCURVE",
"639 564 CURVE",
"525 560 OFFCURVE",
"411 557 OFFCURVE",
"358 558 CURVE",
"361 539 OFFCURVE",
"367 489 OFFCURVE",
"368 469 CURVE",
"427 473 OFFCURVE",
"534 478 OFFCURVE",
"642 482 CURVE",
"642 469 OFFCURVE",
"642 455 OFFCURVE",
"642 442 CURVE SMOOTH",
"642 174 OFFCURVE",
"568 72 OFFCURVE",
"447 -17 CURVE",
"467 -26 OFFCURVE",
"508 -60 OFFCURVE",
"522 -75 CURVE"
);
},
{
closed = 1;
nodes = (
"177 -36 OFFCURVE",
"230 -19 OFFCURVE",
"248 -15 CURVE",
"215 81 OFFCURVE",
"190 223 OFFCURVE",
"190 388 CURVE SMOOTH",
"190 505 OFFCURVE",
"214 676 OFFCURVE",
"242 781 CURVE",
"222 783 OFFCURVE",
"171 794 OFFCURVE",
"149 801 CURVE",
"127 705 OFFCURVE",
"104 515 OFFCURVE",
"104 390 CURVE SMOOTH",
"104 215 OFFCURVE",
"123 72 OFFCURVE",
"163 -43 CURVE"
);
},
{
closed = 1;
nodes = (
"917 657 LINE",
"903 671 OFFCURVE",
"827 768 OFFCURVE",
"814 784 CURVE",
"769 750 LINE",
"782 736 OFFCURVE",
"860 639 OFFCURVE",
"872 623 CURVE"
);
},
{
closed = 1;
nodes = (
"1005 724 LINE",
"992 738 OFFCURVE",
"915 835 OFFCURVE",
"902 851 CURVE",
"858 818 LINE",
"870 804 OFFCURVE",
"949 706 OFFCURVE",
"961 690 CURVE"
);
}
);
width = 1000;
},
{
layerId = "001C0F45-7B19-4771-B55F-26ADC6604229";
paths = (
{
closed = 1;
nodes = (
"668 22 OFFCURVE",
"742 164 OFFCURVE",
"742 442 CURVE SMOOTH",
"742 452 OFFCURVE",
"742 462 OFFCURVE",
"742 473 CURVE",
"820 476 OFFCURVE",
"891 478 OFFCURVE",
"936 479 CURVE",
"935 502 OFFCURVE",
"932 565 OFFCURVE",
"933 590 CURVE",
"899 587 OFFCURVE",
"825 583 OFFCURVE",
"739 579 CURVE",
"735 668 OFFCURVE",
"729 761 OFFCURVE",
"724 806 CURVE",
"694 803 OFFCURVE",
"630 801 OFFCURVE",
"598 804 CURVE",
"608 749 OFFCURVE",
"617 662 OFFCURVE",
"623 575 CURVE",
"512 571 OFFCURVE",
"403 568 OFFCURVE",
"352 569 CURVE",
"357 541 OFFCURVE",
"364 485 OFFCURVE",
"365 454 CURVE",
"420 459 OFFCURVE",
"521 464 OFFCURVE",
"627 469 CURVE",
"627 460 OFFCURVE",
"627 451 OFFCURVE",
"627 443 CURVE SMOOTH",
"627 177 OFFCURVE",
"555 84 OFFCURVE",
"433 -6 CURVE",
"464 -20 OFFCURVE",
"512 -56 OFFCURVE",
"533 -79 CURVE"
);
},
{
closed = 1;
nodes = (
"173 -37 OFFCURVE",
"233 -17 OFFCURVE",
"261 -11 CURVE",
"229 83 OFFCURVE",
"205 223 OFFCURVE",
"205 388 CURVE SMOOTH",
"205 504 OFFCURVE",
"227 668 OFFCURVE",
"257 778 CURVE",
"227 781 OFFCURVE",
"169 793 OFFCURVE",
"136 804 CURVE",
"114 708 OFFCURVE",
"92 517 OFFCURVE",
"92 390 CURVE SMOOTH",
"92 213 OFFCURVE",
"110 72 OFFCURVE",
"152 -47 CURVE"
);
},
{
closed = 1;
nodes = (
"920 659 LINE",
"913 666 OFFCURVE",
"824 780 OFFCURVE",
"818 789 CURVE",
"765 749 LINE",
"771 742 OFFCURVE",
"861 628 OFFCURVE",
"867 620 CURVE"
);
},
{
closed = 1;
nodes = (
"1012 729 LINE",
"1006 737 OFFCURVE",
"917 851 OFFCURVE",
"910 859 CURVE",
"858 819 LINE",
"864 812 OFFCURVE",
"954 698 OFFCURVE",
"960 690 CURVE"
);
}
);
width = 1000;
},
{
layerId = "192F6294-2DDB-4A85-B973-E64E677F808A";
paths = (
{
closed = 1;
nodes = (
"681 19 OFFCURVE",
"754 167 OFFCURVE",
"754 443 CURVE SMOOTH",
"754 460 LINE",
"828 463 OFFCURVE",
"896 464 OFFCURVE",
"940 465 CURVE",
"938 496 OFFCURVE",
"935 567 OFFCURVE",
"936 600 CURVE",
"906 597 OFFCURVE",
"835 594 OFFCURVE",
"750 590 CURVE",
"746 678 OFFCURVE",
"740 767 OFFCURVE",
"737 808 CURVE",
"696 804 OFFCURVE",
"623 802 OFFCURVE",
"581 806 CURVE",
"592 752 OFFCURVE",
"601 669 OFFCURVE",
"606 585 CURVE",
"499 581 OFFCURVE",
"395 579 OFFCURVE",
"346 579 CURVE",
"353 542 OFFCURVE",
"361 480 OFFCURVE",
"363 440 CURVE",
"413 445 OFFCURVE",
"509 451 OFFCURVE",
"611 455 CURVE",
"611 443 LINE",
"613 180 OFFCURVE",
"541 96 OFFCURVE",
"420 5 CURVE",
"461 -13 OFFCURVE",
"515 -53 OFFCURVE",
"543 -84 CURVE"
);
},
{
closed = 1;
nodes = (
"169 -38 OFFCURVE",
"237 -15 OFFCURVE",
"274 -6 CURVE",
"244 85 OFFCURVE",
"219 224 OFFCURVE",
"219 388 CURVE SMOOTH",
"219 502 OFFCURVE",
"240 660 OFFCURVE",
"272 775 CURVE",
"233 779 OFFCURVE",
"168 792 OFFCURVE",
"123 807 CURVE",
"101 712 OFFCURVE",
"81 519 OFFCURVE",
"81 391 CURVE SMOOTH",
"81 212 OFFCURVE",
"96 72 OFFCURVE",
"142 -51 CURVE"
);
},
{
closed = 1;
nodes = (
"923 662 LINE",
"821 793 LINE",
"761 748 LINE",
"862 617 LINE"
);
},
{
closed = 1;
nodes = (
"1020 735 LINE",
"918 866 LINE",
"858 821 LINE",
"959 690 LINE"
);
}
);
width = 1000;
}
);
unicode = 3052;
},
{
glyphname = "ko-hira";
lastChange = "2021-05-14 05:13:03 +0000";
layers = (
{
layerId = master01;
paths = (
{
closed = 1;
nodes = (
"581 11 OFFCURVE",
"737 32 OFFCURVE",
"840 52 CURVE",
"839 62 OFFCURVE",
"842 110 OFFCURVE",
"845 123 CURVE",
"749 99 OFFCURVE",
"576 75 OFFCURVE",
"420 80 CURVE",
"293 83 OFFCURVE",
"243 132 OFFCURVE",
"219 231 CURVE",
"210 223 OFFCURVE",
"173 205 OFFCURVE",
"162 201 CURVE",
"196 76 OFFCURVE",
"267 20 OFFCURVE",
"419 15 CURVE"
);
},
{
closed = 1;
nodes = (
"766 666 OFFCURVE",
"770 713 OFFCURVE",
"772 723 CURVE",
"640 704 OFFCURVE",
"381 709 OFFCURVE",
"245 735 CURVE",
"246 722 OFFCURVE",
"243 681 OFFCURVE",
"241 668 CURVE",
"383 644 OFFCURVE",
"621 640 OFFCURVE",
"766 656 CURVE"
);
}
);
width = 1000;
},
{
layerId = "E768F6A6-15EB-4D2C-841C-D9E78CD24AB1";
paths = (
{
closed = 1;
nodes = (
"766 672 LINE",
"625 659 OFFCURVE",
"386 664 OFFCURVE",
"244 686 CURVE",
"247 724 LINE",
"384 700 OFFCURVE",
"639 692 OFFCURVE",
"769 711 CURVE"
);
},
{
closed = 1;
nodes = (
"840 62 LINE",
"732 42 OFFCURVE",
"574 19 OFFCURVE",
"421 25 CURVE SMOOTH",
"267 31 OFFCURVE",
"205 87 OFFCURVE",
"173 204 CURVE",
"208 222 LINE",
"233 114 OFFCURVE",
"284 66 OFFCURVE",
"422 61 CURVE SMOOTH",
"571 55 OFFCURVE",
"740 79 OFFCURVE",
"841 102 CURVE"
);
}
);
width = 1000;
},
{
layerId = "E5DBD9E3-8A55-410D-8C4B-D00EFB9ED751";
paths = (
{
closed = 1;
nodes = (
"589 3 OFFCURVE",
"743 23 OFFCURVE",
"842 43 CURVE",
"840 63 OFFCURVE",
"844 119 OFFCURVE",
"850 144 CURVE",
"760 120 OFFCURVE",
"583 96 OFFCURVE",
"420 99 CURVE SMOOTH",
"304 101 OFFCURVE",
"254 149 OFFCURVE",
"232 240 CURVE",
"213 224 OFFCURVE",
"175 206 OFFCURVE",
"153 198 CURVE",
"189 66 OFFCURVE",
"269 9 OFFCURVE",
"420 6 CURVE SMOOTH"
);
},
{
closed = 1;
nodes = (
"767 659 OFFCURVE",
"772 715 OFFCURVE",
"776 735 CURVE",
"643 715 OFFCURVE",
"381 718 OFFCURVE",
"245 745 CURVE",
"248 721 OFFCURVE",
"242 676 OFFCURVE",
"239 651 CURVE",
"382 625 OFFCURVE",
"620 621 OFFCURVE",
"767 641 CURVE"
);
}
);
width = 1000;
},
{
layerId = "001C0F45-7B19-4771-B55F-26ADC6604229";
paths = (
{
closed = 1;
nodes = (
"597 -5 OFFCURVE",
"749 13 OFFCURVE",
"844 34 CURVE",
"842 63 OFFCURVE",
"846 128 OFFCURVE",
"855 165 CURVE",
"771 140 OFFCURVE",
"590 117 OFFCURVE",
"420 118 CURVE",
"314 120 OFFCURVE",
"265 167 OFFCURVE",
"245 250 CURVE",
"216 225 OFFCURVE",
"176 207 OFFCURVE",
"144 195 CURVE",
"182 56 OFFCURVE",
"271 -2 OFFCURVE",
"420 -4 CURVE"
);
},
{
closed = 1;
nodes = (
"768 652 OFFCURVE",
"774 717 OFFCURVE",
"780 747 CURVE",
"646 727 OFFCURVE",
"380 727 OFFCURVE",
"246 756 CURVE",
"249 719 OFFCURVE",
"242 671 OFFCURVE",
"237 633 CURVE",
"380 606 OFFCURVE",
"618 603 OFFCURVE",
"769 625 CURVE"
);
}
);
width = 1000;
},
{
layerId = "192F6294-2DDB-4A85-B973-E64E677F808A";
paths = (
{
closed = 1;
nodes = (
"605 -13 OFFCURVE",
"755 4 OFFCURVE",
"846 25 CURVE",
"843 64 OFFCURVE",
"848 138 OFFCURVE",
"860 187 CURVE",
"782 161 OFFCURVE",
"596 138 OFFCURVE",
"420 138 CURVE SMOOTH",
"325 138 OFFCURVE",
"277 185 OFFCURVE",
"258 259 CURVE",
"219 226 OFFCURVE",
"178 208 OFFCURVE",
"135 193 CURVE",
"175 46 OFFCURVE",
"273 -13 OFFCURVE",
"420 -13 CURVE SMOOTH"
);
},
{
closed = 1;
nodes = (
"769 646 OFFCURVE",
"776 719 OFFCURVE",
"784 760 CURVE",
"649 739 OFFCURVE",
"380 737 OFFCURVE",
"246 766 CURVE",
"250 718 OFFCURVE",
"242 666 OFFCURVE",
"236 616 CURVE",
"379 587 OFFCURVE",
"617 585 OFFCURVE",
"771 609 CURVE"
);
}
);
width = 1000;
}
);
unicode = 3053;
},
{
glyphname = "go-hira";
lastChange = "2021-05-14 05:13:03 +0000";
layers = (
{
layerId = master01;
paths = (
{
closed = 1;
nodes = (
"580 11 OFFCURVE",
"737 33 OFFCURVE",
"840 52 CURVE",
"839 62 OFFCURVE",
"842 110 OFFCURVE",
"845 123 CURVE",
"749 99 OFFCURVE",
"576 75 OFFCURVE",
"420 80 CURVE SMOOTH",
"293 84 OFFCURVE",
"243 132 OFFCURVE",
"219 231 CURVE",
"210 223 OFFCURVE",
"173 205 OFFCURVE",
"162 201 CURVE",
"196 77 OFFCURVE",
"267 20 OFFCURVE",
"419 16 CURVE SMOOTH"
);
},
{
closed = 1;
nodes = (
"766 666 OFFCURVE",
"769 713 OFFCURVE",
"772 723 CURVE",
"640 704 OFFCURVE",
"381 709 OFFCURVE",
"245 735 CURVE",
"246 723 OFFCURVE",
"243 681 OFFCURVE",
"241 668 CURVE",
"383 644 OFFCURVE",
"621 640 OFFCURVE",
"766 657 CURVE"
);
},
{
closed = 1;
nodes = (
"925 677 LINE",
"905 699 OFFCURVE",
"842 779 OFFCURVE",
"823 803 CURVE",
"786 776 LINE",
"805 755 OFFCURVE",
"870 673 OFFCURVE",
"888 649 CURVE"
);
},
{
closed = 1;
nodes = (
"1010 741 LINE",
"990 763 OFFCURVE",
"927 843 OFFCURVE",
"908 867 CURVE",
"871 839 LINE",
"890 819 OFFCURVE",
"955 737 OFFCURVE",
"973 713 CURVE"
);
}
);
width = 1000;
},
{
layerId = "E768F6A6-15EB-4D2C-841C-D9E78CD24AB1";
paths = (
{
closed = 1;
nodes = (
"974 719 LINE",
"950 751 OFFCURVE",
"895 815 OFFCURVE",
"870 843 CURVE",
"898 866 LINE",
"924 833 OFFCURVE",
"975 771 OFFCURVE",
"1002 742 CURVE"
);
},
{
closed = 1;
nodes = (
"894 658 LINE",
"870 689 OFFCURVE",
"815 754 OFFCURVE",
"790 782 CURVE",
"818 804 LINE",
"844 772 OFFCURVE",
"895 710 OFFCURVE",
"922 680 CURVE"
);
},
{
closed = 1;
nodes = (
"766 672 LINE",
"625 659 OFFCURVE",
"386 664 OFFCURVE",
"244 686 CURVE",
"247 724 LINE",
"384 700 OFFCURVE",
"639 692 OFFCURVE",
"769 711 CURVE"
);
},
{
closed = 1;
nodes = (
"840 62 LINE",
"732 42 OFFCURVE",
"574 19 OFFCURVE",
"421 25 CURVE SMOOTH",
"267 31 OFFCURVE",
"205 87 OFFCURVE",
"173 204 CURVE",
"208 222 LINE",
"233 114 OFFCURVE",
"284 66 OFFCURVE",
"422 61 CURVE SMOOTH",
"571 55 OFFCURVE",
"740 79 OFFCURVE",
"841 102 CURVE"
);
}
);
width = 1000;
},
{
layerId = "E5DBD9E3-8A55-410D-8C4B-D00EFB9ED751";
paths = (
{
closed = 1;
nodes = (
"586 3 OFFCURVE",
"740 23 OFFCURVE",
"839 43 CURVE",
"837 63 OFFCURVE",
"840 119 OFFCURVE",
"847 144 CURVE",
"757 120 OFFCURVE",
"580 96 OFFCURVE",
"417 99 CURVE SMOOTH",
"301 102 OFFCURVE",
"251 150 OFFCURVE",
"229 240 CURVE",
"210 224 OFFCURVE",
"172 206 OFFCURVE",
"150 198 CURVE",
"186 66 OFFCURVE",
"266 9 OFFCURVE",
"416 6 CURVE SMOOTH"
);
},
{
closed = 1;
nodes = (
"764 659 OFFCURVE",
"768 715 OFFCURVE",
"772 735 CURVE",
"640 716 OFFCURVE",
"378 718 OFFCURVE",
"242 745 CURVE",
"244 721 OFFCURVE",
"239 676 OFFCURVE",
"236 651 CURVE",
"379 625 OFFCURVE",
"617 621 OFFCURVE",
"764 641 CURVE"
);
},
{
closed = 1;
nodes = (
"930 674 LINE",
"917 688 OFFCURVE",
"842 787 OFFCURVE",
"829 803 CURVE",
"784 770 LINE",
"797 756 OFFCURVE",
"873 657 OFFCURVE",
"885 641 CURVE"
);
},
{
closed = 1;
nodes = (
"1020 739 LINE",
"1006 754 OFFCURVE",
"932 852 OFFCURVE",
"919 869 CURVE",
"874 836 LINE",
"886 822 OFFCURVE",
"962 722 OFFCURVE",
"974 707 CURVE"
);
}
);
width = 1000;
},
{
layerId = "001C0F45-7B19-4771-B55F-26ADC6604229";
paths = (
{
closed = 1;
nodes = (
"594 -5 OFFCURVE",
"746 13 OFFCURVE",
"841 34 CURVE",
"838 63 OFFCURVE",
"842 128 OFFCURVE",
"852 166 CURVE",
"768 140 OFFCURVE",
"586 117 OFFCURVE",
"417 119 CURVE SMOOTH",
"311 120 OFFCURVE",
"262 167 OFFCURVE",
"242 250 CURVE",
"213 225 OFFCURVE",
"173 207 OFFCURVE",
"141 196 CURVE",
"179 56 OFFCURVE",
"268 -2 OFFCURVE",
"417 -3 CURVE SMOOTH"
);
},
{
closed = 1;
nodes = (
"753 652 OFFCURVE",
"759 717 OFFCURVE",
"765 747 CURVE",
"631 727 OFFCURVE",
"377 727 OFFCURVE",
"242 756 CURVE",
"246 719 OFFCURVE",
"239 671 OFFCURVE",
"234 634 CURVE",
"377 606 OFFCURVE",
"603 602 OFFCURVE",
"754 624 CURVE"
);
},
{
closed = 1;
nodes = (
"935 671 LINE",
"928 678 OFFCURVE",
"842 794 OFFCURVE",
"836 802 CURVE",
"782 764 LINE",
"788 757 OFFCURVE",
"875 640 OFFCURVE",
"881 632 CURVE"
);
},
{
closed = 1;
nodes = (
"1029 738 LINE",
"1023 746 OFFCURVE",
"937 862 OFFCURVE",
"930 870 CURVE",
"877 832 LINE",
"883 825 OFFCURVE",
"970 708 OFFCURVE",
"976 700 CURVE"
);
}
);
width = 1000;
},
{
layerId = "192F6294-2DDB-4A85-B973-E64E677F808A";
paths = (
{
closed = 1;
nodes = (
"599 -13 OFFCURVE",
"749 4 OFFCURVE",
"840 25 CURVE",
"837 64 OFFCURVE",
"841 138 OFFCURVE",
"854 187 CURVE",
"775 161 OFFCURVE",
"590 138 OFFCURVE",
"414 138 CURVE SMOOTH",
"319 138 OFFCURVE",
"270 185 OFFCURVE",
"252 259 CURVE",
"213 226 OFFCURVE",
"172 208 OFFCURVE",
"128 193 CURVE",
"169 46 OFFCURVE",
"267 -13 OFFCURVE",
"414 -13 CURVE SMOOTH"
);
},
{
closed = 1;
nodes = (
"754 643 OFFCURVE",
"756 717 OFFCURVE",
"765 757 CURVE",
"630 736 OFFCURVE",
"373 737 OFFCURVE",
"240 766 CURVE",
"244 718 OFFCURVE",
"236 666 OFFCURVE",
"230 616 CURVE",
"373 587 OFFCURVE",
"601 582 OFFCURVE",
"755 607 CURVE"
);
},
{
closed = 1;
nodes = (
"940 668 LINE",
"842 802 LINE",
"780 759 LINE",
"878 624 LINE"
);
},
{
closed = 1;
nodes = (
"1039 737 LINE",
"942 872 LINE",
"880 829 LINE",
"977 694 LINE"
);
}
);
width = 1000;
}
);
unicode = 3054;
},
{
glyphname = "sa-hira";
lastChange = "2021-05-14 05:13:03 +0000";
layers = (
{
layerId = master01;
paths = (
{
closed = 1;
nodes = (
"662 -28 OFFCURVE",
"669 16 OFFCURVE",
"674 28 CURVE",
"398 3 OFFCURVE",
"243 79 OFFCURVE",
"266 216 CURVE SMOOTH",
"288 342 OFFCURVE",
"518 356 OFFCURVE",
"732 263 CURVE",
"736 272 OFFCURVE",
"758 308 OFFCURVE",
"764 316 CURVE",
"668 357 OFFCURVE",
"605 453 OFFCURVE",
"569 585 CURVE",
"676 596 OFFCURVE",
"779 610 OFFCURVE",
"856 626 CURVE",
"854 636 OFFCURVE",
"846 676 OFFCURVE",
"844 687 CURVE",
"769 669 OFFCURVE",
"664 655 OFFCURVE",
"555 644 CURVE",
"545 697 OFFCURVE",
"538 755 OFFCURVE",
"534 816 CURVE",
"523 815 OFFCURVE",
"482 813 OFFCURVE",
"469 814 CURVE",
"473 752 OFFCURVE",
"481 693 OFFCURVE",
"492 639 CURVE",
"370 629 OFFCURVE",
"248 625 OFFCURVE",
"162 627 CURVE",
"165 616 OFFCURVE",
"172 572 OFFCURVE",
"173 564 CURVE",
"261 562 OFFCURVE",
"384 568 OFFCURVE",
"507 579 CURVE",
"533 486 OFFCURVE",
"571 409 OFFCURVE",
"618 356 CURVE",
"408 410 OFFCURVE",
"226 363 OFFCURVE",
"203 229 CURVE SMOOTH",
"174 64 OFFCURVE",
"309 -63 OFFCURVE",
"662 -37 CURVE"
);
}
);
width = 1000;
},
{
layerId = "E768F6A6-15EB-4D2C-841C-D9E78CD24AB1";
paths = (
{
closed = 1;
nodes = (
"771 624 OFFCURVE",
"662 609 OFFCURVE",
"551 598 CURVE",
"589 458 OFFCURVE",
"656 350 OFFCURVE",
"752 308 CURVE",
"734 278 LINE",
"524 368 OFFCURVE",
"270 356 OFFCURVE",
"246 216 CURVE SMOOTH",
"220 66 OFFCURVE",
"390 -16 OFFCURVE",
"666 10 CURVE",
"660 -29 LINE",
"312 -53 OFFCURVE",
"187 71 OFFCURVE",
"212 224 CURVE",
"233 362 OFFCURVE",
"431 403 OFFCURVE",
"652 339 CURVE",
"597 392 OFFCURVE",
"549 482 OFFCURVE",
"517 594 CURVE",
"389 583 OFFCURVE",
"261 576 OFFCURVE",
"170 578 CURVE",
"165 613 LINE",
"253 611 OFFCURVE",
"381 616 OFFCURVE",
"509 627 CURVE",
"495 684 OFFCURVE",
"485 746 OFFCURVE",
"481 810 CURVE",
"516 813 LINE",
"520 749 OFFCURVE",
"529 687 OFFCURVE",
"542 630 CURVE",
"656 641 OFFCURVE",
"766 657 OFFCURVE",
"846 676 CURVE",
"852 641 LINE"
);
}
);
width = 1000;
},
{
layerId = "E5DBD9E3-8A55-410D-8C4B-D00EFB9ED751";
paths = (
{
closed = 1;
nodes = (
"665 -28 OFFCURVE",
"674 23 OFFCURVE",
"683 47 CURVE",
"407 23 OFFCURVE",
"267 92 OFFCURVE",
"288 216 CURVE SMOOTH",
"308 329 OFFCURVE",
"514 343 OFFCURVE",
"733 248 CURVE",
"739 265 OFFCURVE",
"765 309 OFFCURVE",
"778 324 CURVE",
"682 365 OFFCURVE",
"623 449 OFFCURVE",
"589 573 CURVE",
"691 583 OFFCURVE",
"789 597 OFFCURVE",
"862 612 CURVE",
"857 632 OFFCURVE",
"848 676 OFFCURVE",
"845 699 CURVE",
"773 682 OFFCURVE",
"674 668 OFFCURVE",
"571 658 CURVE",
"562 708 OFFCURVE",
"556 762 OFFCURVE",
"553 820 CURVE",
"532 818 OFFCURVE",
"484 816 OFFCURVE",
"458 818 CURVE",
"462 759 OFFCURVE",
"468 703 OFFCURVE",
"478 651 CURVE",
"360 642 OFFCURVE",
"244 639 OFFCURVE",
"161 642 CURVE",
"167 620 OFFCURVE",
"176 567 OFFCURVE",
"178 550 CURVE",
"263 549 OFFCURVE",
"380 554 OFFCURVE",
"498 564 CURVE",
"520 487 OFFCURVE",
"551 422 OFFCURVE",
"590 371 CURVE",
"390 416 OFFCURVE",
"220 365 OFFCURVE",
"196 234 CURVE",
"162 57 OFFCURVE",
"309 -73 OFFCURVE",
"665 -45 CURVE"
);
}
);
width = 1000;
},
{
layerId = "001C0F45-7B19-4771-B55F-26ADC6604229";
paths = (
{
closed = 1;
nodes = (
"668 -27 OFFCURVE",
"679 30 OFFCURVE",
"692 66 CURVE",
"417 42 OFFCURVE",
"291 106 OFFCURVE",
"310 216 CURVE SMOOTH",
"328 315 OFFCURVE",
"510 331 OFFCURVE",
"733 233 CURVE",
"743 259 OFFCURVE",
"772 309 OFFCURVE",
"792 332 CURVE",
"696 372 OFFCURVE",
"641 446 OFFCURVE",
"609 561 CURVE",
"706 571 OFFCURVE",
"798 583 OFFCURVE",
"868 597 CURVE",
"861 628 OFFCURVE",
"850 677 OFFCURVE",
"845 711 CURVE",
"777 695 OFFCURVE",
"685 682 OFFCURVE",
"586 672 CURVE",
"580 718 OFFCURVE",
"575 769 OFFCURVE",
"572 824 CURVE",
"541 821 OFFCURVE",
"487 820 OFFCURVE",
"448 822 CURVE",
"451 766 OFFCURVE",
"456 713 OFFCURVE",
"464 663 CURVE",
"351 655 OFFCURVE",
"241 653 OFFCURVE",
"160 657 CURVE",
"168 623 OFFCURVE",
"179 561 OFFCURVE",
"182 536 CURVE",
"265 535 OFFCURVE",
"376 540 OFFCURVE",
"489 550 CURVE",
"507 486 OFFCURVE",
"532 431 OFFCURVE",
"564 385 CURVE",
"373 423 OFFCURVE",
"214 367 OFFCURVE",
"188 239 CURVE SMOOTH",
"150 50 OFFCURVE",
"308 -83 OFFCURVE",
"667 -53 CURVE"
);
}
);
width = 1000;
},
{
layerId = "192F6294-2DDB-4A85-B973-E64E677F808A";
paths = (
{
closed = 1;
nodes = (
"671 -27 OFFCURVE",
"683 38 OFFCURVE",
"701 85 CURVE",
"426 61 OFFCURVE",
"315 119 OFFCURVE",
"332 216 CURVE SMOOTH",
"348 302 OFFCURVE",
"507 319 OFFCURVE",
"733 218 CURVE",
"746 253 OFFCURVE",
"779 309 OFFCURVE",
"805 339 CURVE",
"711 380 OFFCURVE",
"659 443 OFFCURVE",
"629 548 CURVE",
"721 558 OFFCURVE",
"808 570 OFFCURVE",
"874 582 CURVE",
"864 623 OFFCURVE",
"852 678 OFFCURVE",
"845 723 CURVE",
"782 708 OFFCURVE",
"696 696 OFFCURVE",
"603 686 CURVE",
"598 729 OFFCURVE",
"594 776 OFFCURVE",
"591 829 CURVE",
"550 823 OFFCURVE",
"489 823 OFFCURVE",
"438 826 CURVE",
"440 773 OFFCURVE",
"444 723 OFFCURVE",
"450 675 CURVE",
"342 669 OFFCURVE",
"237 667 OFFCURVE",
"159 671 CURVE",
"170 627 OFFCURVE",
"183 556 OFFCURVE",
"187 522 CURVE",
"267 522 OFFCURVE",
"372 526 OFFCURVE",
"479 535 CURVE",
"494 484 OFFCURVE",
"514 438 OFFCURVE",
"540 399 CURVE",
"358 429 OFFCURVE",
"208 369 OFFCURVE",
"181 245 CURVE SMOOTH",
"138 42 OFFCURVE",
"308 -93 OFFCURVE",
"670 -61 CURVE"
);
}
);
width = 1000;
}
);
unicode = 3055;
},
{
glyphname = "za-hira";
lastChange = "2021-05-14 05:13:03 +0000";
layers = (
{
layerId = master01;
paths = (
{
closed = 1;
nodes = (
"657 -29 OFFCURVE",
"665 16 OFFCURVE",
"669 28 CURVE",
"393 3 OFFCURVE",
"238 79 OFFCURVE",
"262 216 CURVE SMOOTH",
"284 342 OFFCURVE",
"514 356 OFFCURVE",
"728 263 CURVE",
"731 271 OFFCURVE",
"753 308 OFFCURVE",
"760 316 CURVE",
"663 357 OFFCURVE",
"601 453 OFFCURVE",
"565 585 CURVE",
"656 595 OFFCURVE",
"745 608 OFFCURVE",
"816 623 CURVE",
"814 633 OFFCURVE",
"806 672 OFFCURVE",
"804 684 CURVE",
"734 667 OFFCURVE",
"644 654 OFFCURVE",
"551 644 CURVE",
"540 697 OFFCURVE",
"533 755 OFFCURVE",
"529 816 CURVE",
"518 815 OFFCURVE",
"477 813 OFFCURVE",
"464 814 CURVE",
"468 752 OFFCURVE",
"476 693 OFFCURVE",
"488 638 CURVE",
"367 628 OFFCURVE",
"246 625 OFFCURVE",
"156 627 CURVE",
"158 616 OFFCURVE",
"166 572 OFFCURVE",
"167 564 CURVE",
"260 562 OFFCURVE",
"381 568 OFFCURVE",
"502 579 CURVE",
"528 486 OFFCURVE",
"566 409 OFFCURVE",
"614 356 CURVE",
"403 410 OFFCURVE",
"221 363 OFFCURVE",
"198 229 CURVE SMOOTH",
"169 64 OFFCURVE",
"305 -63 OFFCURVE",
"657 -37 CURVE"
);
},
{
closed = 1;
nodes = (
"919 670 LINE",
"898 691 OFFCURVE",
"831 767 OFFCURVE",
"811 791 CURVE",
"775 761 LINE",
"795 741 OFFCURVE",
"865 663 OFFCURVE",
"884 640 CURVE"
);
},
{
closed = 1;
nodes = (
"1000 737 LINE",
"979 757 OFFCURVE",
"912 834 OFFCURVE",
"891 858 CURVE",
"856 828 LINE",
"876 808 OFFCURVE",
"945 730 OFFCURVE",
"965 707 CURVE"
);
}
);
width = 1000;
},
{
layerId = "E768F6A6-15EB-4D2C-841C-D9E78CD24AB1";
paths = (
{
closed = 1;
nodes = (
"968 709 LINE",
"943 740 OFFCURVE",
"884 801 OFFCURVE",
"858 827 CURVE",
"885 852 LINE",
"912 820 OFFCURVE",
"967 761 OFFCURVE",
"995 734 CURVE"
);
},
{
closed = 1;
nodes = (
"892 643 LINE",
"866 674 OFFCURVE",
"808 735 OFFCURVE",
"781 761 CURVE",
"809 786 LINE",
"836 754 OFFCURVE",
"891 695 OFFCURVE",
"919 668 CURVE"
);
},
{
closed = 1;
nodes = (
"740 620 OFFCURVE",
"647 607 OFFCURVE",
"551 597 CURVE",
"589 457 OFFCURVE",
"656 350 OFFCURVE",
"752 308 CURVE",
"734 278 LINE",
"524 368 OFFCURVE",
"270 356 OFFCURVE",
"246 216 CURVE SMOOTH",
"220 66 OFFCURVE",
"390 -16 OFFCURVE",
"666 10 CURVE",
"660 -29 LINE",
"312 -53 OFFCURVE",
"187 71 OFFCURVE",
"212 224 CURVE",
"233 362 OFFCURVE",
"431 403 OFFCURVE",
"652 339 CURVE",
"597 391 OFFCURVE",
"549 482 OFFCURVE",
"517 594 CURVE",
"392 582 OFFCURVE",
"266 576 OFFCURVE",
"170 578 CURVE",
"165 613 LINE",
"258 611 OFFCURVE",
"384 616 OFFCURVE",
"509 627 CURVE",
"495 684 OFFCURVE",
"485 746 OFFCURVE",
"481 810 CURVE",
"516 813 LINE",
"520 748 OFFCURVE",
"529 687 OFFCURVE",
"543 630 CURVE",
"640 640 OFFCURVE",
"735 653 OFFCURVE",
"809 671 CURVE",
"815 636 LINE"
);
}
);
width = 1000;
},
{
layerId = "E5DBD9E3-8A55-410D-8C4B-D00EFB9ED751";
paths = (
{
closed = 1;
nodes = (
"660 -28 OFFCURVE",
"669 23 OFFCURVE",
"678 47 CURVE",
"403 23 OFFCURVE",
"262 92 OFFCURVE",
"284 216 CURVE SMOOTH",
"303 329 OFFCURVE",
"510 343 OFFCURVE",
"728 248 CURVE",
"734 265 OFFCURVE",
"760 308 OFFCURVE",
"773 324 CURVE",
"677 365 OFFCURVE",
"618 449 OFFCURVE",
"584 574 CURVE",
"672 583 OFFCURVE",
"756 596 OFFCURVE",
"824 609 CURVE",
"819 630 OFFCURVE",
"809 674 OFFCURVE",
"806 697 CURVE",
"740 681 OFFCURVE",
"655 668 OFFCURVE",
"566 659 CURVE",
"558 708 OFFCURVE",
"552 762 OFFCURVE",
"548 820 CURVE",
"527 818 OFFCURVE",
"479 816 OFFCURVE",
"454 818 CURVE",
"457 759 OFFCURVE",
"464 703 OFFCURVE",
"473 651 CURVE",
"357 642 OFFCURVE",
"241 639 OFFCURVE",
"153 642 CURVE",
"159 620 OFFCURVE",
"168 567 OFFCURVE",
"170 550 CURVE",
"260 549 OFFCURVE",
"377 554 OFFCURVE",
"493 565 CURVE",
"515 487 OFFCURVE",
"546 421 OFFCURVE",
"585 371 CURVE",
"385 416 OFFCURVE",
"216 365 OFFCURVE",
"191 234 CURVE SMOOTH",
"157 57 OFFCURVE",
"304 -73 OFFCURVE",
"660 -45 CURVE"
);
},
{
closed = 1;
nodes = (
"931 674 LINE",
"916 688 OFFCURVE",
"837 782 OFFCURVE",
"824 798 CURVE",
"780 763 LINE",
"793 750 OFFCURVE",
"874 654 OFFCURVE",
"887 639 CURVE"
);
},
{
closed = 1;
nodes = (
"1014 740 LINE",
"1000 754 OFFCURVE",
"921 848 OFFCURVE",
"907 864 CURVE",
"864 829 LINE",
"877 816 OFFCURVE",
"958 720 OFFCURVE",
"971 705 CURVE"
);
}
);
width = 1000;
},
{
layerId = "001C0F45-7B19-4771-B55F-26ADC6604229";
paths = (
{
closed = 1;
nodes = (
"663 -28 OFFCURVE",
"674 30 OFFCURVE",
"687 66 CURVE",
"412 42 OFFCURVE",
"286 105 OFFCURVE",
"305 216 CURVE SMOOTH",
"323 315 OFFCURVE",
"506 331 OFFCURVE",
"728 233 CURVE",
"738 259 OFFCURVE",
"767 309 OFFCURVE",
"787 331 CURVE",
"691 372 OFFCURVE",
"636 446 OFFCURVE",
"604 562 CURVE",
"687 572 OFFCURVE",
"767 583 OFFCURVE",
"831 596 CURVE",
"823 627 OFFCURVE",
"813 676 OFFCURVE",
"807 710 CURVE",
"745 695 OFFCURVE",
"666 683 OFFCURVE",
"581 674 CURVE",
"575 719 OFFCURVE",
"570 769 OFFCURVE",
"567 824 CURVE",
"536 820 OFFCURVE",
"482 819 OFFCURVE",
"443 822 CURVE",
"446 766 OFFCURVE",
"451 713 OFFCURVE",
"459 663 CURVE",
"347 655 OFFCURVE",
"235 653 OFFCURVE",
"151 656 CURVE",
"159 623 OFFCURVE",
"170 561 OFFCURVE",
"173 535 CURVE",
"260 535 OFFCURVE",
"372 541 OFFCURVE",
"484 550 CURVE",
"502 487 OFFCURVE",
"527 431 OFFCURVE",
"559 385 CURVE",
"369 422 OFFCURVE",
"210 367 OFFCURVE",
"184 239 CURVE SMOOTH",
"145 49 OFFCURVE",
"304 -83 OFFCURVE",
"663 -53 CURVE"
);
},
{
closed = 1;
nodes = (
"934 679 LINE",
"927 686 OFFCURVE",
"836 799 OFFCURVE",
"829 806 CURVE",
"777 766 LINE",
"784 759 OFFCURVE",
"876 647 OFFCURVE",
"882 639 CURVE"
);
},
{
closed = 1;
nodes = (
"1022 746 LINE",
"1015 753 OFFCURVE",
"924 865 OFFCURVE",
"917 873 CURVE",
"865 833 LINE",
"872 826 OFFCURVE",
"964 713 OFFCURVE",
"970 706 CURVE"
);
}
);
width = 1000;
},
{
layerId = "192F6294-2DDB-4A85-B973-E64E677F808A";
paths = (
{
closed = 1;
nodes = (
"666 -27 OFFCURVE",
"679 38 OFFCURVE",
"696 85 CURVE",
"421 61 OFFCURVE",
"310 119 OFFCURVE",
"327 216 CURVE SMOOTH",
"343 302 OFFCURVE",
"502 319 OFFCURVE",
"728 218 CURVE",
"742 253 OFFCURVE",
"774 309 OFFCURVE",
"801 339 CURVE",
"706 380 OFFCURVE",
"653 445 OFFCURVE",
"623 551 CURVE",
"703 561 OFFCURVE",
"777 571 OFFCURVE",
"838 583 CURVE",
"828 624 OFFCURVE",
"816 678 OFFCURVE",
"809 723 CURVE",
"751 710 OFFCURVE",
"677 698 OFFCURVE",
"598 689 CURVE",
"593 731 OFFCURVE",
"589 777 OFFCURVE",
"587 829 CURVE",
"545 823 OFFCURVE",
"485 823 OFFCURVE",
"433 826 CURVE",
"435 773 OFFCURVE",
"439 723 OFFCURVE",
"446 676 CURVE",
"337 669 OFFCURVE",
"230 667 OFFCURVE",
"148 671 CURVE",
"159 627 OFFCURVE",
"172 556 OFFCURVE",
"176 522 CURVE",
"260 522 OFFCURVE",
"367 527 OFFCURVE",
"474 536 CURVE",
"489 485 OFFCURVE",
"509 439 OFFCURVE",
"535 399 CURVE",
"353 429 OFFCURVE",
"204 369 OFFCURVE",
"177 245 CURVE SMOOTH",
"133 42 OFFCURVE",
"303 -93 OFFCURVE",
"666 -61 CURVE"
);
},
{
closed = 1;
nodes = (
"944 679 LINE",
"847 814 LINE",
"785 771 LINE",
"882 636 LINE"
);
},
{
closed = 1;
nodes = (
"1041 743 LINE",
"945 878 LINE",
"883 836 LINE",
"979 700 LINE"
);
}
);
width = 1000;
}
);
unicode = 3056;
},
{
glyphname = "si-hira";
lastChange = "2021-05-14 05:13:03 +0000";
layers = (
{
layerId = master01;
paths = (
{
closed = 1;
nodes = (
"522 -32 OFFCURVE",
"725 10 OFFCURVE",
"834 50 CURVE",
"833 60 OFFCURVE",
"836 111 OFFCURVE",
"839 122 CURVE",
"733 75 OFFCURVE",
"517 31 OFFCURVE",
"433 31 CURVE SMOOTH",
"359 31 OFFCURVE",
"344 43 OFFCURVE",
"344 96 CURVE SMOOTH",
"344 198 OFFCURVE",
"352 725 OFFCURVE",
"357 796 CURVE",
"347 796 OFFCURVE",
"296 801 OFFCURVE",
"287 803 CURVE",
"287 772 OFFCURVE",
"288 714 OFFCURVE",
"288 625 CURVE SMOOTH",
"288 513 OFFCURVE",
"281 178 OFFCURVE",
"281 82 CURVE SMOOTH",
"281 -7 OFFCURVE",
"318 -32 OFFCURVE",
"430 -32 CURVE SMOOTH"
);
}
);
width = 1000;
},
{
layerId = "E768F6A6-15EB-4D2C-841C-D9E78CD24AB1";
paths = (
{
closed = 1;
nodes = (
"834 57 LINE",
"725 18 OFFCURVE",
"521 -26 OFFCURVE",
"432 -26 CURVE SMOOTH",
"328 -26 OFFCURVE",
"295 -3 OFFCURVE",
"295 82 CURVE SMOOTH",
"295 156 OFFCURVE",
"303 522 OFFCURVE",
"303 617 CURVE SMOOTH",
"303 715 OFFCURVE",
"303 764 OFFCURVE",
"303 794 CURVE",
"341 789 LINE",
"339 729 OFFCURVE",
"330 156 OFFCURVE",
"330 82 CURVE SMOOTH",
"330 23 OFFCURVE",
"347 10 OFFCURVE",
"432 10 CURVE SMOOTH",
"518 10 OFFCURVE",
"730 52 OFFCURVE",
"835 99 CURVE"
);
}
);
width = 1000;
},
{
layerId = "E5DBD9E3-8A55-410D-8C4B-D00EFB9ED751";
paths = (
{
closed = 1;
nodes = (
"522 -38 OFFCURVE",
"724 2 OFFCURVE",
"833 43 CURVE",
"833 63 OFFCURVE",
"838 124 OFFCURVE",
"843 146 CURVE",
"736 98 OFFCURVE",
"517 53 OFFCURVE",
"435 53 CURVE SMOOTH",
"371 53 OFFCURVE",
"358 63 OFFCURVE",
"358 111 CURVE SMOOTH",
"358 242 OFFCURVE",
"366 722 OFFCURVE",
"374 802 CURVE",
"352 802 OFFCURVE",
"289 809 OFFCURVE",
"270 812 CURVE",
"272 780 OFFCURVE",
"274 714 OFFCURVE",
"274 633 CURVE SMOOTH",
"274 504 OFFCURVE",
"267 200 OFFCURVE",
"267 83 CURVE SMOOTH",
"267 -12 OFFCURVE",
"307 -38 OFFCURVE",
"429 -38 CURVE SMOOTH"
);
}
);
width = 1000;
},
{
layerId = "001C0F45-7B19-4771-B55F-26ADC6604229";
paths = (
{
closed = 1;
nodes = (
"523 -44 OFFCURVE",
"724 -5 OFFCURVE",
"833 37 CURVE",
"833 66 OFFCURVE",
"839 137 OFFCURVE",
"847 170 CURVE",
"739 121 OFFCURVE",
"516 76 OFFCURVE",
"436 76 CURVE SMOOTH",
"383 76 OFFCURVE",
"372 83 OFFCURVE",
"372 126 CURVE SMOOTH",
"372 285 OFFCURVE",
"380 719 OFFCURVE",
"390 809 CURVE",
"357 809 OFFCURVE",
"282 817 OFFCURVE",
"254 822 CURVE",
"256 789 OFFCURVE",
"259 713 OFFCURVE",
"259 641 CURVE",
"260 495 OFFCURVE",
"253 223 OFFCURVE",
"253 84 CURVE SMOOTH",
"253 -17 OFFCURVE",
"297 -44 OFFCURVE",
"427 -44 CURVE SMOOTH"
);
}
);
width = 1000;
},
{
layerId = "192F6294-2DDB-4A85-B973-E64E677F808A";
paths = (
{
closed = 1;
nodes = (
"523 -51 OFFCURVE",
"723 -13 OFFCURVE",
"833 31 CURVE",
"833 69 OFFCURVE",
"841 150 OFFCURVE",
"851 195 CURVE",
"742 145 OFFCURVE",
"515 98 OFFCURVE",
"438 98 CURVE SMOOTH",
"394 98 OFFCURVE",
"386 103 OFFCURVE",
"386 141 CURVE SMOOTH",
"386 328 OFFCURVE",
"393 716 OFFCURVE",
"406 815 CURVE",
"362 815 OFFCURVE",
"275 825 OFFCURVE",
"238 831 CURVE",
"241 797 OFFCURVE",
"245 713 OFFCURVE",
"245 649 CURVE",
"246 486 OFFCURVE",
"238 245 OFFCURVE",
"238 85 CURVE SMOOTH",
"238 -21 OFFCURVE",
"287 -51 OFFCURVE",
"426 -51 CURVE SMOOTH"
);
}
);
width = 1000;
}
);
unicode = 3057;
},
{
glyphname = "zi-hira";
lastChange = "2021-05-14 05:13:03 +0000";
layers = (
{
layerId = master01;
paths = (
{
closed = 1;
nodes = (
"522 -32 OFFCURVE",
"725 10 OFFCURVE",
"834 50 CURVE",
"833 60 OFFCURVE",
"836 111 OFFCURVE",
"839 122 CURVE",
"733 75 OFFCURVE",
"517 31 OFFCURVE",
"433 31 CURVE SMOOTH",
"359 31 OFFCURVE",
"344 43 OFFCURVE",
"344 96 CURVE SMOOTH",
"344 198 OFFCURVE",
"352 725 OFFCURVE",
"357 796 CURVE",
"347 796 OFFCURVE",
"296 801 OFFCURVE",
"287 803 CURVE",
"287 772 OFFCURVE",
"288 714 OFFCURVE",
"288 625 CURVE SMOOTH",
"288 513 OFFCURVE",
"281 178 OFFCURVE",
"281 82 CURVE SMOOTH",
"281 -7 OFFCURVE",
"318 -32 OFFCURVE",
"430 -32 CURVE SMOOTH"
);
},
{
closed = 1;
nodes = (
"739 587 LINE",
"717 608 OFFCURVE",
"648 683 OFFCURVE",
"628 706 CURVE",
"593 676 LINE",
"613 656 OFFCURVE",
"685 579 OFFCURVE",
"704 556 CURVE"
);
},
{
closed = 1;
nodes = (
"819 656 LINE",
"797 677 OFFCURVE",
"728 752 OFFCURVE",
"708 776 CURVE",
"673 745 LINE",
"693 725 OFFCURVE",
"765 649 OFFCURVE",
"784 626 CURVE"
);
}
);
width = 1000;
},
{
layerId = "E768F6A6-15EB-4D2C-841C-D9E78CD24AB1";
paths = (
{
closed = 1;
nodes = (
"787 630 LINE",
"762 660 OFFCURVE",
"703 722 OFFCURVE",
"677 748 CURVE",
"704 772 LINE",
"731 741 OFFCURVE",
"786 682 OFFCURVE",
"815 654 CURVE"
);
},
{
closed = 1;
nodes = (
"711 564 LINE",
"685 594 OFFCURVE",
"627 656 OFFCURVE",
"600 682 CURVE",
"628 706 LINE",
"655 675 OFFCURVE",
"710 616 OFFCURVE",
"738 588 CURVE"
);
},
{
closed = 1;
nodes = (
"834 57 LINE",
"725 18 OFFCURVE",
"521 -26 OFFCURVE",
"432 -26 CURVE SMOOTH",
"328 -26 OFFCURVE",
"295 -3 OFFCURVE",
"295 82 CURVE SMOOTH",
"295 156 OFFCURVE",
"303 522 OFFCURVE",
"303 617 CURVE SMOOTH",
"303 715 OFFCURVE",
"303 764 OFFCURVE",
"303 794 CURVE",
"341 789 LINE",
"339 729 OFFCURVE",
"330 156 OFFCURVE",
"330 82 CURVE SMOOTH",
"330 23 OFFCURVE",
"347 10 OFFCURVE",
"432 10 CURVE SMOOTH",
"518 10 OFFCURVE",
"730 52 OFFCURVE",
"835 99 CURVE"
);
}
);
width = 1000;
},
{
layerId = "E5DBD9E3-8A55-410D-8C4B-D00EFB9ED751";
paths = (
{
closed = 1;
nodes = (
"522 -38 OFFCURVE",
"724 2 OFFCURVE",
"833 43 CURVE",
"833 63 OFFCURVE",
"838 124 OFFCURVE",
"843 146 CURVE",
"736 98 OFFCURVE",
"517 53 OFFCURVE",
"435 53 CURVE SMOOTH",
"371 53 OFFCURVE",
"358 63 OFFCURVE",
"358 111 CURVE SMOOTH",
"358 242 OFFCURVE",
"366 722 OFFCURVE",
"374 802 CURVE",
"352 802 OFFCURVE",
"289 809 OFFCURVE",
"270 812 CURVE",
"272 780 OFFCURVE",
"274 714 OFFCURVE",
"274 633 CURVE SMOOTH",
"274 504 OFFCURVE",
"267 200 OFFCURVE",
"267 83 CURVE SMOOTH",
"267 -12 OFFCURVE",
"307 -38 OFFCURVE",
"429 -38 CURVE SMOOTH"
);
},
{
closed = 1;
nodes = (
"739 586 LINE",
"725 600 OFFCURVE",
"642 691 OFFCURVE",
"628 707 CURVE",
"586 670 LINE",
"600 657 OFFCURVE",
"684 564 OFFCURVE",
"697 549 CURVE"
);
},
{
closed = 1;
nodes = (
"823 659 LINE",
"809 673 OFFCURVE",
"726 764 OFFCURVE",
"712 780 CURVE",
"670 743 LINE",
"683 730 OFFCURVE",
"768 637 OFFCURVE",
"781 622 CURVE"
);
}
);
width = 1000;
},
{
layerId = "001C0F45-7B19-4771-B55F-26ADC6604229";
paths = (
{
closed = 1;
nodes = (
"523 -44 OFFCURVE",
"724 -5 OFFCURVE",
"833 37 CURVE",
"833 66 OFFCURVE",
"839 137 OFFCURVE",
"847 170 CURVE",
"739 121 OFFCURVE",
"516 76 OFFCURVE",
"436 76 CURVE SMOOTH",
"383 76 OFFCURVE",
"372 83 OFFCURVE",
"372 126 CURVE SMOOTH",
"372 285 OFFCURVE",
"380 719 OFFCURVE",
"390 809 CURVE",
"357 809 OFFCURVE",
"282 817 OFFCURVE",
"254 822 CURVE",
"256 789 OFFCURVE",
"259 713 OFFCURVE",
"259 641 CURVE",
"260 495 OFFCURVE",
"253 223 OFFCURVE",
"253 84 CURVE SMOOTH",
"253 -17 OFFCURVE",
"297 -44 OFFCURVE",
"427 -44 CURVE SMOOTH"
);
},
{
closed = 1;
nodes = (
"740 585 LINE",
"733 592 OFFCURVE",
"636 699 OFFCURVE",
"629 707 CURVE",
"579 664 LINE",
"586 657 OFFCURVE",
"684 550 OFFCURVE",
"690 542 CURVE"
);
},
{
closed = 1;
nodes = (
"827 662 LINE",
"820 669 OFFCURVE",
"723 776 OFFCURVE",
"716 784 CURVE",
"667 740 LINE",
"673 734 OFFCURVE",
"771 626 OFFCURVE",
"778 618 CURVE"
);
}
);
width = 1000;
},
{
layerId = "192F6294-2DDB-4A85-B973-E64E677F808A";
paths = (
{
closed = 1;
nodes = (
"523 -51 OFFCURVE",
"723 -13 OFFCURVE",
"833 31 CURVE",
"833 69 OFFCURVE",
"841 150 OFFCURVE",
"851 195 CURVE",
"742 145 OFFCURVE",
"515 98 OFFCURVE",
"438 98 CURVE SMOOTH",
"394 98 OFFCURVE",
"386 103 OFFCURVE",
"386 141 CURVE SMOOTH",
"386 328 OFFCURVE",
"393 716 OFFCURVE",
"406 815 CURVE",
"362 815 OFFCURVE",
"275 825 OFFCURVE",
"238 831 CURVE",
"241 797 OFFCURVE",
"245 713 OFFCURVE",
"245 649 CURVE",
"246 486 OFFCURVE",
"238 245 OFFCURVE",
"238 85 CURVE SMOOTH",
"238 -21 OFFCURVE",
"287 -51 OFFCURVE",
"426 -51 CURVE SMOOTH"
);
},
{
closed = 1;
nodes = (
"740 584 LINE",
"629 708 LINE",
"572 658 LINE",
"684 535 LINE"
);
},
{
closed = 1;
nodes = (
"832 664 LINE",
"720 788 LINE",
"663 738 LINE",
"775 615 LINE"
);
}
);
width = 1000;
}
);
unicode = 3058;
},
{
glyphname = "su-hira";
lastChange = "2021-05-14 05:13:03 +0000";
layers = (
{
layerId = master01;
paths = (
{
closed = 1;
nodes = (
"503 -4 OFFCURVE",
"593 107 OFFCURVE",
"602 245 CURVE SMOOTH",
"606 304 OFFCURVE",
"599 353 OFFCURVE",
"583 392 CURVE",
"583 591 LINE",
"728 592 OFFCURVE",
"862 593 OFFCURVE",
"933 593 CURVE",
"932 604 OFFCURVE",
"932 647 OFFCURVE",
"933 657 CURVE",
"861 653 OFFCURVE",
"727 651 OFFCURVE",
"583 649 CURVE",
"583 713 OFFCURVE",
"583 788 OFFCURVE",
"585 822 CURVE",
"574 822 OFFCURVE",
"527 822 OFFCURVE",
"516 823 CURVE",
"518 789 OFFCURVE",
"520 711 OFFCURVE",
"521 648 CURVE",
"343 646 OFFCURVE",
"161 646 OFFCURVE",
"64 647 CURVE",
"65 637 OFFCURVE",
"67 593 OFFCURVE",
"67 582 CURVE",
"171 585 OFFCURVE",
"349 588 OFFCURVE",
"521 590 CURVE",
"521 464 LINE",
"500 476 OFFCURVE",
"476 483 OFFCURVE",
"448 483 CURVE SMOOTH",
"358 483 OFFCURVE",
"300 425 OFFCURVE",
"300 337 CURVE SMOOTH",
"300 249 OFFCURVE",
"364 194 OFFCURVE",
"442 194 CURVE SMOOTH",
"478 194 OFFCURVE",
"514 210 OFFCURVE",
"540 238 CURVE",
"535 132 OFFCURVE",
"442 30 OFFCURVE",
"291 -21 CURVE",
"301 -30 OFFCURVE",
"330 -65 OFFCURVE",
"336 -75 CURVE"
);
},
{
closed = 1;
nodes = (
"399 251 OFFCURVE",
"359 283 OFFCURVE",
"359 338 CURVE SMOOTH",
"359 390 OFFCURVE",
"390 426 OFFCURVE",
"447 426 CURVE SMOOTH",
"494 426 OFFCURVE",
"525 390 OFFCURVE",
"525 338 CURVE SMOOTH",
"525 278 OFFCURVE",
"487 251 OFFCURVE",
"445 251 CURVE SMOOTH"
);
}
);
width = 1000;
},
{
layerId = "E768F6A6-15EB-4D2C-841C-D9E78CD24AB1";
paths = (
{
closed = 1;
nodes = (
"929 605 LINE",
"858 604 OFFCURVE",
"720 603 OFFCURVE",
"570 601 CURVE",
"570 383 LINE",
"586 344 OFFCURVE",
"592 293 OFFCURVE",
"586 234 CURVE SMOOTH",
"574 109 OFFCURVE",
"490 1 OFFCURVE",
"329 -69 CURVE",
"304 -38 LINE",
"448 17 OFFCURVE",
"540 123 OFFCURVE",
"551 237 CURVE SMOOTH",
"552 249 OFFCURVE",
"553 260 OFFCURVE",
"553 270 CURVE",
"530 227 OFFCURVE",
"487 206 OFFCURVE",
"445 206 CURVE SMOOTH",
"370 206 OFFCURVE",
"310 257 OFFCURVE",
"310 339 CURVE SMOOTH",
"310 419 OFFCURVE",
"364 473 OFFCURVE",
"448 473 CURVE SMOOTH",
"482 473 OFFCURVE",
"512 460 OFFCURVE",
"534 438 CURVE",
"535 601 LINE",
"365 599 OFFCURVE",
"184 597 OFFCURVE",
"69 594 CURVE",
"67 633 LINE",
"173 632 OFFCURVE",
"359 633 OFFCURVE",
"535 635 CURVE",
"534 689 OFFCURVE",
"534 782 OFFCURVE",
"532 821 CURVE",
"570 821 LINE",
"569 783 OFFCURVE",
"570 691 OFFCURVE",
"570 636 CURVE",
"719 638 OFFCURVE",
"858 640 OFFCURVE",
"929 643 CURVE"
);
},
{
closed = 1;
nodes = (
"536 398 OFFCURVE",
"495 437 OFFCURVE",
"448 437 CURVE SMOOTH",
"382 437 OFFCURVE",
"345 397 OFFCURVE",
"345 339 CURVE SMOOTH",
"345 275 OFFCURVE",
"393 241 OFFCURVE",
"445 241 CURVE SMOOTH",
"489 241 OFFCURVE",
"536 271 OFFCURVE",
"536 341 CURVE SMOOTH"
);
}
);
width = 1000;
},
{
layerId = "E5DBD9E3-8A55-410D-8C4B-D00EFB9ED751";
paths = (
{
closed = 1;
nodes = (
"517 -9 OFFCURVE",
"612 104 OFFCURVE",
"618 256 CURVE SMOOTH",
"621 315 OFFCURVE",
"613 363 OFFCURVE",
"595 401 CURVE",
"595 580 LINE",
"737 581 OFFCURVE",
"866 582 OFFCURVE",
"937 582 CURVE",
"935 602 OFFCURVE",
"935 651 OFFCURVE",
"937 671 CURVE",
"864 666 OFFCURVE",
"735 664 OFFCURVE",
"596 662 CURVE",
"596 730 OFFCURVE",
"597 793 OFFCURVE",
"599 824 CURVE",
"577 822 OFFCURVE",
"521 823 OFFCURVE",
"501 825 CURVE",
"503 796 OFFCURVE",
"506 727 OFFCURVE",
"507 661 CURVE",
"328 659 OFFCURVE",
"148 659 OFFCURVE",
"60 661 CURVE",
"63 642 OFFCURVE",
"65 592 OFFCURVE",
"64 571 CURVE",
"159 574 OFFCURVE",
"334 577 OFFCURVE",
"507 579 CURVE",
"508 483 LINE",
"490 490 OFFCURVE",
"470 493 OFFCURVE",
"448 493 CURVE SMOOTH",
"352 493 OFFCURVE",
"289 431 OFFCURVE",
"289 336 CURVE SMOOTH",
"289 240 OFFCURVE",
"357 181 OFFCURVE",
"439 181 CURVE SMOOTH",
"471 181 OFFCURVE",
"501 194 OFFCURVE",
"527 215 CURVE",
"513 126 OFFCURVE",
"422 40 OFFCURVE",
"278 -4 CURVE",
"299 -22 OFFCURVE",
"330 -60 OFFCURVE",
"342 -81 CURVE"
);
},
{
closed = 1;
nodes = (
"407 261 OFFCURVE",
"374 290 OFFCURVE",
"374 336 CURVE SMOOTH",
"374 384 OFFCURVE",
"400 415 OFFCURVE",
"447 415 CURVE SMOOTH",
"488 415 OFFCURVE",
"512 384 OFFCURVE",
"512 336 CURVE SMOOTH",
"512 285 OFFCURVE",
"482 261 OFFCURVE",
"447 261 CURVE SMOOTH"
);
}
);
width = 1000;
},
{
layerId = "001C0F45-7B19-4771-B55F-26ADC6604229";
paths = (
{
closed = 1;
nodes = (
"531 -14 OFFCURVE",
"631 102 OFFCURVE",
"634 267 CURVE SMOOTH",
"635 326 OFFCURVE",
"626 374 OFFCURVE",
"608 411 CURVE",
"608 569 LINE",
"745 570 OFFCURVE",
"871 571 OFFCURVE",
"941 570 CURVE",
"938 601 OFFCURVE",
"938 655 OFFCURVE",
"941 684 CURVE",
"867 680 OFFCURVE",
"743 677 OFFCURVE",
"609 675 CURVE",
"609 744 OFFCURVE",
"611 796 OFFCURVE",
"613 825 CURVE",
"581 823 OFFCURVE",
"516 825 OFFCURVE",
"485 828 CURVE",
"488 801 OFFCURVE",
"491 741 OFFCURVE",
"493 674 CURVE",
"313 672 OFFCURVE",
"136 673 OFFCURVE",
"56 675 CURVE",
"60 647 OFFCURVE",
"63 590 OFFCURVE",
"62 559 CURVE",
"146 562 OFFCURVE",
"319 566 OFFCURVE",
"494 568 CURVE",
"494 498 LINE",
"480 501 OFFCURVE",
"465 503 OFFCURVE",
"449 503 CURVE SMOOTH",
"346 503 OFFCURVE",
"279 438 OFFCURVE",
"279 334 CURVE SMOOTH",
"279 232 OFFCURVE",
"351 169 OFFCURVE",
"436 169 CURVE SMOOTH",
"463 169 OFFCURVE",
"489 178 OFFCURVE",
"512 193 CURVE",
"489 120 OFFCURVE",
"399 50 OFFCURVE",
"265 13 CURVE",
"296 -15 OFFCURVE",
"330 -56 OFFCURVE",
"348 -86 CURVE"
);
},
{
closed = 1;
nodes = (
"413 271 OFFCURVE",
"386 298 OFFCURVE",
"386 335 CURVE SMOOTH",
"386 377 OFFCURVE",
"408 403 OFFCURVE",
"446 403 CURVE SMOOTH",
"476 403 OFFCURVE",
"499 378 OFFCURVE",
"499 335 CURVE SMOOTH",
"499 293 OFFCURVE",
"478 271 OFFCURVE",
"447 271 CURVE SMOOTH"
);
}
);
width = 1000;
},
{
layerId = "192F6294-2DDB-4A85-B973-E64E677F808A";
paths = (
{
closed = 1;
nodes = (
"545 -18 OFFCURVE",
"650 100 OFFCURVE",
"650 279 CURVE SMOOTH",
"650 337 OFFCURVE",
"640 384 OFFCURVE",
"621 421 CURVE",
"621 558 LINE",
"753 560 OFFCURVE",
"875 560 OFFCURVE",
"945 559 CURVE",
"941 600 OFFCURVE",
"941 659 OFFCURVE",
"944 698 CURVE",
"871 693 OFFCURVE",
"751 690 OFFCURVE",
"622 688 CURVE",
"623 756 OFFCURVE",
"625 800 OFFCURVE",
"628 827 CURVE",
"584 824 OFFCURVE",
"511 826 OFFCURVE",
"470 830 CURVE",
"472 806 OFFCURVE",
"476 754 OFFCURVE",
"478 687 CURVE",
"298 686 OFFCURVE",
"124 687 OFFCURVE",
"53 689 CURVE",
"58 651 OFFCURVE",
"60 589 OFFCURVE",
"59 547 CURVE",
"134 551 OFFCURVE",
"304 555 OFFCURVE",
"480 557 CURVE",
"481 511 LINE",
"470 512 OFFCURVE",
"460 513 OFFCURVE",
"449 513 CURVE SMOOTH",
"339 513 OFFCURVE",
"269 444 OFFCURVE",
"269 333 CURVE SMOOTH",
"269 223 OFFCURVE",
"344 156 OFFCURVE",
"433 156 CURVE SMOOTH",
"453 156 OFFCURVE",
"472 161 OFFCURVE",
"490 169 CURVE",
"456 113 OFFCURVE",
"371 60 OFFCURVE",
"252 30 CURVE",
"293 -7 OFFCURVE",
"330 -51 OFFCURVE",
"354 -92 CURVE"
);
},
{
closed = 1;
nodes = (
"417 281 OFFCURVE",
"400 305 OFFCURVE",
"400 334 CURVE SMOOTH",
"400 370 OFFCURVE",
"415 392 OFFCURVE",
"444 392 CURVE SMOOTH",
"469 392 OFFCURVE",
"483 372 OFFCURVE",
"483 334 CURVE SMOOTH",
"483 301 OFFCURVE",
"467 281 OFFCURVE",
"445 281 CURVE SMOOTH"
);
}
);
width = 1000;
}
);
unicode = 3059;
},
{
glyphname = "zu-hira";
lastChange = "2021-05-14 05:13:03 +0000";
layers = (
{
layerId = master01;
paths = (
{
closed = 1;
nodes = (
"503 -4 OFFCURVE",
"593 107 OFFCURVE",
"602 245 CURVE SMOOTH",
"606 304 OFFCURVE",
"599 353 OFFCURVE",
"583 392 CURVE",
"583 591 LINE",
"728 592 OFFCURVE",
"862 593 OFFCURVE",
"933 593 CURVE",
"932 604 OFFCURVE",
"932 647 OFFCURVE",
"933 657 CURVE",
"861 653 OFFCURVE",
"727 651 OFFCURVE",
"583 649 CURVE",
"583 713 OFFCURVE",
"583 788 OFFCURVE",
"585 822 CURVE",
"574 822 OFFCURVE",
"527 822 OFFCURVE",
"516 823 CURVE",
"518 789 OFFCURVE",
"520 711 OFFCURVE",
"521 648 CURVE",
"343 646 OFFCURVE",
"161 646 OFFCURVE",
"64 647 CURVE",
"65 637 OFFCURVE",
"67 593 OFFCURVE",
"67 582 CURVE",
"171 585 OFFCURVE",
"349 588 OFFCURVE",
"521 590 CURVE",
"521 464 LINE",
"500 476 OFFCURVE",
"476 483 OFFCURVE",
"448 483 CURVE SMOOTH",
"358 483 OFFCURVE",
"300 425 OFFCURVE",
"300 337 CURVE SMOOTH",
"300 249 OFFCURVE",
"364 194 OFFCURVE",
"442 194 CURVE SMOOTH",
"478 194 OFFCURVE",
"514 210 OFFCURVE",
"540 238 CURVE",
"535 132 OFFCURVE",
"442 30 OFFCURVE",
"291 -21 CURVE",
"301 -30 OFFCURVE",
"330 -65 OFFCURVE",
"336 -75 CURVE"
);
},
{
closed = 1;
nodes = (
"399 251 OFFCURVE",
"359 283 OFFCURVE",
"359 338 CURVE SMOOTH",
"359 390 OFFCURVE",
"390 426 OFFCURVE",
"447 426 CURVE SMOOTH",
"494 426 OFFCURVE",
"525 390 OFFCURVE",
"525 338 CURVE SMOOTH",
"525 278 OFFCURVE",
"487 251 OFFCURVE",
"445 251 CURVE SMOOTH"
);
},
{
closed = 1;
nodes = (
"838 699 LINE",
"819 722 OFFCURVE",
"761 799 OFFCURVE",
"743 824 CURVE",
"705 797 LINE",
"723 776 OFFCURVE",
"784 697 OFFCURVE",
"801 672 CURVE"
);
},
{
closed = 1;
nodes = (
"930 752 LINE",
"911 774 OFFCURVE",
"853 852 OFFCURVE",
"835 877 CURVE",
"797 850 LINE",
"815 828 OFFCURVE",
"876 749 OFFCURVE",
"893 725 CURVE"
);
}
);
width = 1000;
},
{
layerId = "E768F6A6-15EB-4D2C-841C-D9E78CD24AB1";
paths = (
{
closed = 1;
nodes = (
"901 726 LINE",
"878 758 OFFCURVE",
"826 825 OFFCURVE",
"802 853 CURVE",
"831 875 LINE",
"855 842 OFFCURVE",
"905 778 OFFCURVE",
"930 747 CURVE"
);
},
{
closed = 1;
nodes = (
"819 667 LINE",
"796 700 OFFCURVE",
"744 766 OFFCURVE",
"720 795 CURVE",
"749 816 LINE",
"773 783 OFFCURVE",
"823 719 OFFCURVE",
"848 689 CURVE"
);
},
{
closed = 1;
nodes = (
"929 605 LINE",
"858 604 OFFCURVE",
"720 603 OFFCURVE",
"570 601 CURVE",
"570 383 LINE",
"586 344 OFFCURVE",
"592 293 OFFCURVE",
"586 234 CURVE SMOOTH",
"574 109 OFFCURVE",
"490 1 OFFCURVE",
"329 -69 CURVE",
"304 -38 LINE",
"448 17 OFFCURVE",
"540 123 OFFCURVE",
"551 237 CURVE SMOOTH",
"552 249 OFFCURVE",
"553 260 OFFCURVE",
"553 270 CURVE",
"530 227 OFFCURVE",
"487 206 OFFCURVE",
"445 206 CURVE SMOOTH",
"370 206 OFFCURVE",
"310 257 OFFCURVE",
"310 339 CURVE SMOOTH",
"310 419 OFFCURVE",
"364 473 OFFCURVE",
"448 473 CURVE SMOOTH",
"482 473 OFFCURVE",
"512 460 OFFCURVE",
"534 438 CURVE",
"535 601 LINE",
"365 599 OFFCURVE",
"184 597 OFFCURVE",
"69 594 CURVE",
"67 633 LINE",
"173 632 OFFCURVE",
"359 633 OFFCURVE",
"535 635 CURVE",
"534 689 OFFCURVE",
"534 782 OFFCURVE",
"532 821 CURVE",
"570 821 LINE",
"569 783 OFFCURVE",
"570 691 OFFCURVE",
"570 636 CURVE",
"719 638 OFFCURVE",
"858 640 OFFCURVE",
"929 643 CURVE"
);
},
{
closed = 1;
nodes = (
"536 398 OFFCURVE",
"495 437 OFFCURVE",
"448 437 CURVE SMOOTH",
"382 437 OFFCURVE",
"345 397 OFFCURVE",
"345 339 CURVE SMOOTH",
"345 275 OFFCURVE",
"393 241 OFFCURVE",
"445 241 CURVE SMOOTH",
"489 241 OFFCURVE",
"536 271 OFFCURVE",
"536 341 CURVE SMOOTH"
);
}
);
width = 1000;
},
{
layerId = "E5DBD9E3-8A55-410D-8C4B-D00EFB9ED751";
paths = (
{
closed = 1;
nodes = (
"517 -9 OFFCURVE",
"612 104 OFFCURVE",
"618 256 CURVE SMOOTH",
"621 315 OFFCURVE",
"613 363 OFFCURVE",
"595 401 CURVE",
"595 580 LINE",
"737 581 OFFCURVE",
"866 582 OFFCURVE",
"937 582 CURVE",
"935 602 OFFCURVE",
"935 651 OFFCURVE",
"937 671 CURVE",
"864 666 OFFCURVE",
"735 664 OFFCURVE",
"596 662 CURVE",
"596 730 OFFCURVE",
"597 793 OFFCURVE",
"599 824 CURVE",
"577 822 OFFCURVE",
"521 823 OFFCURVE",
"501 825 CURVE",
"503 796 OFFCURVE",
"506 727 OFFCURVE",
"507 661 CURVE",
"328 659 OFFCURVE",
"148 659 OFFCURVE",
"60 661 CURVE",
"63 642 OFFCURVE",
"65 592 OFFCURVE",
"64 571 CURVE",
"159 574 OFFCURVE",
"334 577 OFFCURVE",
"507 579 CURVE",
"508 483 LINE",
"490 490 OFFCURVE",
"470 493 OFFCURVE",
"448 493 CURVE SMOOTH",
"352 493 OFFCURVE",
"289 431 OFFCURVE",
"289 336 CURVE SMOOTH",
"289 240 OFFCURVE",
"357 181 OFFCURVE",
"439 181 CURVE SMOOTH",
"471 181 OFFCURVE",
"501 194 OFFCURVE",
"527 215 CURVE",
"513 126 OFFCURVE",
"422 40 OFFCURVE",
"278 -4 CURVE",
"299 -22 OFFCURVE",
"330 -60 OFFCURVE",
"342 -81 CURVE"
);
},
{
closed = 1;
nodes = (
"407 261 OFFCURVE",
"374 290 OFFCURVE",
"374 336 CURVE SMOOTH",
"374 384 OFFCURVE",
"400 415 OFFCURVE",
"447 415 CURVE SMOOTH",
"488 415 OFFCURVE",
"512 384 OFFCURVE",
"512 336 CURVE SMOOTH",
"512 285 OFFCURVE",
"482 261 OFFCURVE",
"447 261 CURVE SMOOTH"
);
},
{
closed = 1;
nodes = (
"830 710 LINE",
"817 725 OFFCURVE",
"750 816 OFFCURVE",
"738 833 CURVE",
"692 800 LINE",
"704 786 OFFCURVE",
"773 694 OFFCURVE",
"784 678 CURVE"
);
},
{
closed = 1;
nodes = (
"932 756 LINE",
"919 771 OFFCURVE",
"852 862 OFFCURVE",
"840 879 CURVE",
"794 846 LINE",
"806 832 OFFCURVE",
"875 740 OFFCURVE",
"886 724 CURVE"
);
}
);
width = 1000;
},
{
layerId = "001C0F45-7B19-4771-B55F-26ADC6604229";
paths = (
{
closed = 1;
nodes = (
"530 -14 OFFCURVE",
"630 102 OFFCURVE",
"634 267 CURVE SMOOTH",
"635 325 OFFCURVE",
"626 373 OFFCURVE",
"608 410 CURVE",
"608 568 LINE",
"744 570 OFFCURVE",
"870 570 OFFCURVE",
"940 570 CURVE",
"937 601 OFFCURVE",
"938 654 OFFCURVE",
"940 683 CURVE",
"867 679 OFFCURVE",
"742 676 OFFCURVE",
"608 674 CURVE",
"609 743 OFFCURVE",
"610 796 OFFCURVE",
"613 824 CURVE",
"580 822 OFFCURVE",
"516 824 OFFCURVE",
"485 827 CURVE",
"487 800 OFFCURVE",
"490 741 OFFCURVE",
"492 673 CURVE",
"313 672 OFFCURVE",
"136 672 OFFCURVE",
"56 674 CURVE",
"60 646 OFFCURVE",
"62 590 OFFCURVE",
"62 558 CURVE",
"146 562 OFFCURVE",
"319 565 OFFCURVE",
"493 567 CURVE",
"494 498 LINE",
"480 501 OFFCURVE",
"465 502 OFFCURVE",
"448 502 CURVE SMOOTH",
"345 502 OFFCURVE",
"279 437 OFFCURVE",
"279 334 CURVE SMOOTH",
"279 231 OFFCURVE",
"350 168 OFFCURVE",
"436 168 CURVE SMOOTH",
"463 168 OFFCURVE",
"488 178 OFFCURVE",
"511 192 CURVE",
"488 119 OFFCURVE",
"399 50 OFFCURVE",
"265 13 CURVE",
"296 -15 OFFCURVE",
"330 -56 OFFCURVE",
"348 -87 CURVE"
);
},
{
closed = 1;
nodes = (
"413 270 OFFCURVE",
"386 298 OFFCURVE",
"386 335 CURVE SMOOTH",
"386 377 OFFCURVE",
"408 403 OFFCURVE",
"446 403 CURVE SMOOTH",
"476 403 OFFCURVE",
"499 377 OFFCURVE",
"499 335 CURVE SMOOTH",
"499 293 OFFCURVE",
"478 270 OFFCURVE",
"446 270 CURVE SMOOTH"
);
},
{
closed = 1;
nodes = (
"822 721 LINE",
"816 728 OFFCURVE",
"740 832 OFFCURVE",
"734 840 CURVE",
"680 803 LINE",
"686 795 OFFCURVE",
"763 691 OFFCURVE",
"769 683 CURVE"
);
},
{
closed = 1;
nodes = (
"935 760 LINE",
"928 768 OFFCURVE",
"852 872 OFFCURVE",
"846 880 CURVE",
"793 842 LINE",
"799 835 OFFCURVE",
"875 731 OFFCURVE",
"881 723 CURVE"
);
}
);
width = 1000;
},
{
layerId = "192F6294-2DDB-4A85-B973-E64E677F808A";
paths = (
{
closed = 1;
nodes = (
"543 -19 OFFCURVE",
"648 99 OFFCURVE",
"648 278 CURVE SMOOTH",
"648 336 OFFCURVE",
"638 383 OFFCURVE",
"619 419 CURVE",
"619 557 LINE",
"751 558 OFFCURVE",
"873 558 OFFCURVE",
"942 557 CURVE",
"939 598 OFFCURVE",
"939 657 OFFCURVE",
"942 696 CURVE",
"869 691 OFFCURVE",
"749 688 OFFCURVE",
"620 686 CURVE",
"621 754 OFFCURVE",
"623 798 OFFCURVE",
"626 824 CURVE",
"583 822 OFFCURVE",
"510 823 OFFCURVE",
"468 828 CURVE",
"471 804 OFFCURVE",
"475 752 OFFCURVE",
"477 685 CURVE",
"297 683 OFFCURVE",
"124 685 OFFCURVE",
"52 687 CURVE",
"58 649 OFFCURVE",
"60 587 OFFCURVE",
"59 545 CURVE",
"134 549 OFFCURVE",
"304 553 OFFCURVE",
"479 555 CURVE",
"479 510 LINE",
"469 511 OFFCURVE",
"459 511 OFFCURVE",
"448 511 CURVE SMOOTH",
"338 511 OFFCURVE",
"268 442 OFFCURVE",
"268 331 CURVE SMOOTH",
"268 222 OFFCURVE",
"343 156 OFFCURVE",
"432 156 CURVE SMOOTH",
"452 156 OFFCURVE",
"471 160 OFFCURVE",
"489 168 CURVE",
"454 112 OFFCURVE",
"370 60 OFFCURVE",
"252 30 CURVE",
"293 -7 OFFCURVE",
"330 -51 OFFCURVE",
"354 -92 CURVE"
);
},
{
closed = 1;
nodes = (
"416 280 OFFCURVE",
"399 304 OFFCURVE",
"399 333 CURVE SMOOTH",
"399 369 OFFCURVE",
"414 391 OFFCURVE",
"443 391 CURVE SMOOTH",
"468 391 OFFCURVE",
"482 370 OFFCURVE",
"482 333 CURVE SMOOTH",
"482 300 OFFCURVE",
"465 280 OFFCURVE",
"444 280 CURVE SMOOTH"
);
},
{
closed = 1;
nodes = (
"809 735 LINE",
"725 851 LINE",
"663 808 LINE",
"748 692 LINE"
);
},
{
closed = 1;
nodes = (
"933 763 LINE",
"849 880 LINE",
"787 837 LINE",
"871 720 LINE"
);
}
);
width = 1000;
}
);
unicode = 305A;
},
